<svg width="150" height="150" version="1.1" viewBox="0 0 150 150" xmlns="http://www.w3.org/2000/svg" xmlns:xlink="http://www.w3.org/1999/xlink"><!--Generated by IJSVG (https://github.com/curthard89/IJSVG)--><g id="process-deployment-icon" transform="scale(6.25)"><g fill="#FFFFFF"><g fill="#FFFFFF"><path d="M5,3.5c0,1.379 -1.122,2.5 -2.5,2.5h-2.5v3h13.513c0.457,-0.604 1.174,-1 1.987,-1h2.5v-5.912c0,-1.151 -0.897,-2.088 -2,-2.088h-11v3.5Z" transform="translate(3, 5)"></path><path d="M12.5,4h-3v-1h3.5v-3h-13v0.912c0,1.151 0.897,2.088 2,2.088h6.5v1h-3c-0.276,0 -0.5,0.224 -0.5,0.5c0,0.276 0.224,0.5 0.5,0.5h7c0.276,0 0.5,-0.224 0.5,-0.5c0,-0.276 -0.224,-0.5 -0.5,-0.5Z" transform="translate(3, 15)"></path></g><path d="M5.5,0h-4c-0.827,0 -1.5,0.673 -1.5,1.5v7c0,0.827 0.673,1.5 1.5,1.5h4c0.827,0 1.5,-0.673 1.5,-1.5v-7c0,-0.827 -0.673,-1.5 -1.5,-1.5Zm-1.5,8h-1v-1h1v1Z"></path><g fill="#FFFFFF"><path d="M7,1.5c0,-0.827 -0.673,-1.5 -1.5,-1.5h-4c-0.827,0 -1.5,0.673 -1.5,1.5v0.5h7v-0.5Z" transform="translate(17, 14)"></path><path d="M0,0h7v4h-7Z" transform="translate(17, 17)"></path><path d="M0,0.5c0,0.827 0.673,1.5 1.5,1.5h4c0.827,0 1.5,-0.673 1.5,-1.5v-0.5h-7v0.5Z" transform="translate(17, 22)"></path></g></g><path fill="none" d="M0,0h24v24h-24Z"></path></g></svg>
