<svg width="150" height="150" version="1.1" viewBox="0 0 150 150" xmlns="http://www.w3.org/2000/svg" xmlns:xlink="http://www.w3.org/1999/xlink"><!--Generated by IJSVG (https://github.com/curthard89/IJSVG)--><g id="process-deployment-icon" transform="scale(6.25)"><g fill="#FFFFFF"><path d="M10.979,0.568c-0.158,0.16 -0.646,0.648 -3.076,1.429c-0.299,0.096 -0.559,0.087 -0.821,0.023c0.547,0.588 0.541,1.506 -0.033,2.077c-1.279,1.274 -4.183,4.026 -7.049,5.85c1.176,0.68 2.536,1.076 3.99,1.076c4.411,0 8,-3.59 8,-8c0,-1.07 -0.215,-2.09 -0.598,-3.023c-0.112,0.205 -0.244,0.399 -0.413,0.568Z" transform="translate(6.01, 9.977)"></path><path d="M0.754,3.744c0.516,-0.165 2.234,-0.74 2.675,-1.183v0c0.585,-0.585 0.584,-1.536 0,-2.121c-0.283,-0.283 -0.659,-0.44 -1.06,-0.44h-0.001c-0.401,0 -0.778,0.156 -1.061,0.44c-0.442,0.441 -1.017,2.159 -1.183,2.675c-0.124,0.39 0.249,0.754 0.63,0.629Zm1.261,-2.597c0.196,-0.195 0.513,-0.195 0.707,0c0.195,0.195 0.195,0.512 0,0.707c-0.128,0.124 -0.677,0.365 -1.309,0.601c0.237,-0.63 0.479,-1.18 0.602,-1.308Z" transform="translate(12.853, 7.277)"></path><path d="M12.763,7.657c-0.195,-0.197 -0.512,-0.196 -0.707,-0.002c-5.735,5.708 -9.873,7.554 -10.481,6.946c-0.268,-0.268 -0.073,-1.479 1.372,-3.746c0.275,0.711 0.644,1.377 1.1,1.976c1.723,-0.997 4.293,-2.889 7.303,-5.884c0.391,-0.389 0.938,-0.494 1.436,-0.363c-0.383,-0.396 -0.521,-0.971 -0.351,-1.498c0.78,-2.43 1.269,-2.916 1.429,-3.076c0.299,-0.299 0.672,-0.492 1.068,-0.602c-1.288,-0.886 -2.845,-1.408 -4.523,-1.408c-4.411,0 -8,3.588 -8,8c-4.44089e-16,0.55 0.063,1.085 0.17,1.602c-1.997,2.913 -2.579,4.837 -1.71,5.706c2.093,2.093 9.737,-4.799 11.892,-6.944c0.196,-0.195 0.197,-0.512 0.002,-0.707Z" transform="translate(-0.409, 5)"></path><path d="M9.035,0.188c-0.145,-0.145 -0.363,-0.188 -0.551,-0.106l-2.475,1.061c-0.059,0.024 -0.111,0.061 -0.156,0.106l-1.549,1.549l-1.828,-0.609c-0.18,-0.061 -0.377,-0.014 -0.512,0.121l-1.769,1.768c-0.195,0.195 -0.195,0.512 0,0.707l0.519,0.518l1.613,-1.613c0.195,-0.195 0.512,-0.195 0.707,0c0.195,0.195 0.195,0.512 0,0.707l-1.613,1.612l1.793,1.793l1.613,-1.613c0.195,-0.195 0.512,-0.195 0.707,0c0.195,0.195 0.195,0.512 0,0.707l-1.613,1.613l0.518,0.518c0.196,0.195 0.512,0.195 0.707,0l1.768,-1.768c0.134,-0.134 0.181,-0.332 0.121,-0.512l-0.609,-1.828l1.549,-1.549c0.045,-0.045 0.081,-0.098 0.106,-0.156l1.061,-2.476c0.079,-0.188 0.037,-0.405 -0.107,-0.55Z" transform="translate(14.319, 0.458)"></path></g><path fill="none" d="M0,0h24v24h-24Z"></path></g></svg>
