<svg width="150" height="150" version="1.1" viewBox="0 0 150 150" xmlns="http://www.w3.org/2000/svg" xmlns:xlink="http://www.w3.org/1999/xlink"><!--Generated by IJSVG (https://github.com/curthard89/IJSVG)--><g id="process-analysis-icon" transform="scale(6.25)"><g fill="#FFFFFF"><path d="M23,10.029h-4.823l-1.749,-4.372c-0.164,-0.408 -0.576,-0.659 -1.013,-0.625c-0.438,0.038 -0.801,0.358 -0.893,0.788l-1.874,8.741l-2.16,-13.688c-0.073,-0.461 -0.455,-0.811 -0.92,-0.842c-0.47,-0.031 -0.892,0.264 -1.026,0.712l-2.786,9.286h-4.756c-0.552,0 -1,0.448 -1,1c0,0.552 0.448,1 1,1h5.5c0.442,0 0.831,-0.29 0.958,-0.713l1.739,-5.796l2.315,14.665c0.075,0.476 0.479,0.83 0.96,0.842c0.01,0.002 0.019,0.002 0.028,0.002c0.47,0 0.878,-0.329 0.977,-0.79l2.312,-10.792l0.781,1.953c0.153,0.381 0.521,0.629 0.93,0.629h5.5c0.552,0 1,-0.448 1,-1c0,-0.552 -0.448,-1 -1,-1Z" transform="translate(0, 0.971)"></path></g><path fill="none" d="M0,0h24v24h-24Z"></path></g></svg>
