<svg width="150" height="150" version="1.1" viewBox="0 0 150 150" xmlns="http://www.w3.org/2000/svg" xmlns:xlink="http://www.w3.org/1999/xlink"><!--Generated by IJSVG (https://github.com/curthard89/IJSVG)--><g id="process-design-icon" transform="scale(6.25)"><path fill="#FFFFFF" d="M23.5,11h-9.5v-1c0,-1.102 -0.898,-2 -2,-2h-3c-0.552,0 -1,-0.448 -1,-1v-3h5.5c0.276,0 0.5,-0.224 0.5,-0.5v-3c0,-0.276 -0.224,-0.5 -0.5,-0.5h-13c-0.276,0 -0.5,0.224 -0.5,0.5v3c0,0.276 0.224,0.5 0.5,0.5h6.5v3c0,1.103 0.897,2 2,2h3c0.551,0 1,0.448 1,1v1h-2.5c-0.276,0 -0.5,0.224 -0.5,0.5v3c0,0.276 0.224,0.5 0.5,0.5h7.5v5c0,0.552 -0.449,1 -1,1h-3v-0.5c0,-0.276 -0.224,-0.5 -0.5,-0.5h-13c-0.276,0 -0.5,0.224 -0.5,0.5v3c0,0.276 0.224,0.5 0.5,0.5h13c0.276,0 0.5,-0.224 0.5,-0.5v-1.5h3c1.103,0 2,-0.897 2,-2v-5h4.5c0.276,0 0.5,-0.224 0.5,-0.5v-3c0,-0.276 -0.224,-0.5 -0.5,-0.5Z"></path><path fill="none" d="M0,0h24v24h-24Z"></path></g></svg>
