<svg width="335px" height="215px" viewBox="0 0 335 215" version="1.1" xmlns="http://www.w3.org/2000/svg" xmlns:xlink="http://www.w3.org/1999/xlink" xmlns:sketch="http://www.bohemiancoding.com/sketch/ns">
    <g id="services-development-icon" stroke="none" stroke-width="1" fill="none" fill-rule="evenodd" sketch:type="MSPage">
        <path d="M90.408,159 C87.938,169.09 85.47,179.19 83,189.29 L152.144,189.29 C149.676,179.19 147.205,169.09 144.736,159 L90.408,159" id="Fill-513-2" fill="#B3B3B3" sketch:type="MSShapeGroup"></path>
        <path d="M156.271,189 L78.573,189 C76.6,189 75,190.88 75,193.2 L75,194.77 L159.843,194.77 L159.843,193.2 C159.843,190.88 158.243,189 156.271,189" id="Fill-514-2" fill="#CCCCCC" sketch:type="MSShapeGroup"></path>
        <path d="M0,148 L0,164.7 C0,167.91 2.601,170.51 5.816,170.51 L227.846,170.51 C231.057,170.51 233.664,167.91 233.664,164.7 L233.664,148 L0,148" id="Fill-515-2" fill="#CCCCCC" sketch:type="MSShapeGroup"></path>
        <path d="M233.664,147.161 L233.664,5.819 C233.664,2.603 231.057,0 227.846,0 L5.816,0 C2.601,0 0,2.603 0,5.819 L0,147.161 L233.664,147.161" id="Fill-516-2" fill="#103754" sketch:type="MSShapeGroup"></path>
        <path d="M10,10 L224.522,10 L224.522,138.422 L10,138.422 L10,10 L10,10 Z" id="Fill-517-2" fill="#F95360" sketch:type="MSShapeGroup"></path>
        <path d="M23.992,77.371 C22.343,77.371 21,76.031 21,74.381 L21,20.994 C21,19.343 22.343,18 23.992,18 L88.432,18 C90.083,18 91.426,19.343 91.426,20.994 L91.426,74.381 C91.426,76.031 90.083,77.371 88.432,77.371 L23.992,77.371" id="Fill-518-2" fill="#FFFFFF" sketch:type="MSShapeGroup"></path>
        <path d="M87.809,17 L23.369,17 C21.509,17 20,18.507 20,20.369 L20,73.756 C20,75.616 21.509,77.126 23.369,77.126 L87.809,77.126 C89.67,77.126 91.178,75.616 91.178,73.756 L91.178,20.369 C91.178,18.507 89.67,17 87.809,17 L87.809,17 L87.809,17 Z M87.809,17.751 C89.252,17.751 90.427,18.925 90.427,20.369 L90.427,73.756 C90.427,75.196 89.252,76.366 87.809,76.366 L23.369,76.366 C21.927,76.366 20.752,75.196 20.752,73.756 L20.752,20.369 C20.752,18.925 21.927,17.751 23.369,17.751 L87.809,17.751 L87.809,17.751 Z" id="Fill-519-2" fill="#98ABAC" sketch:type="MSShapeGroup"></path>
        <path d="M87.809,17 L23.369,17 C21.509,17 20,18.507 20,20.369 L20,26.752 L91.178,26.752 L91.178,20.369 C91.178,18.507 89.67,17 87.809,17" id="Fill-520-2" fill="#98ABAC" sketch:type="MSShapeGroup"></path>
        <path d="M26.758,21.878 C26.758,22.916 25.916,23.756 24.879,23.756 C23.84,23.756 23,22.916 23,21.878 C23,20.841 23.84,20 24.879,20 C25.916,20 26.758,20.841 26.758,21.878" id="Fill-521-2" fill="#FFFFFF" sketch:type="MSShapeGroup"></path>
        <path d="M32.76,21.878 C32.76,22.916 31.918,23.756 30.881,23.756 C29.842,23.756 29,22.916 29,21.878 C29,20.841 29.842,20 30.881,20 C31.918,20 32.76,20.841 32.76,21.878" id="Fill-522-2" fill="#FFFFFF" sketch:type="MSShapeGroup"></path>
        <path d="M37.757,21.878 C37.757,22.916 36.917,23.756 35.878,23.756 C34.84,23.756 34,22.916 34,21.878 C34,20.841 34.84,20 35.878,20 C36.917,20 37.757,20.841 37.757,21.878" id="Fill-523-2" fill="#FFFFFF" sketch:type="MSShapeGroup"></path>
        <path d="M43,20 L86.594,20 L86.594,23.383 L43,23.383 L43,20 L43,20 Z" id="Fill-524-2" fill="#FFFFFF" sketch:type="MSShapeGroup"></path>
        <path d="M24,32 L39.468,32 L39.468,33.393 L24,33.393 L24,32 L24,32 Z" id="Fill-525-2" fill="#C6D6D7" sketch:type="MSShapeGroup"></path>
        <path d="M24,62 L40.596,62 L40.596,63.39 L24,63.39 L24,62 L24,62 Z" id="Fill-526-2" fill="#98ABAC" sketch:type="MSShapeGroup"></path>
        <path d="M24,66 L85.813,66 L85.813,67.39 L24,67.39 L24,66 L24,66 Z" id="Fill-527-2" fill="#C6D6D7" sketch:type="MSShapeGroup"></path>
        <path d="M24,70 L85.813,70 L85.813,71.39 L24,71.39 L24,70 L24,70 Z" id="Fill-528-2" fill="#C6D6D7" sketch:type="MSShapeGroup"></path>
        <path d="M76,32 L85.828,32 L85.828,33.393 L76,33.393 L76,32 L76,32 Z" id="Fill-529-2" fill="#C6D6D7" sketch:type="MSShapeGroup"></path>
        <path d="M64,32 L73.827,32 L73.827,33.393 L64,33.393 L64,32 L64,32 Z" id="Fill-530-2" fill="#C6D6D7" sketch:type="MSShapeGroup"></path>
        <path d="M52,32 L61.829,32 L61.829,33.393 L52,33.393 L52,32 L52,32 Z" id="Fill-531-2" fill="#C6D6D7" sketch:type="MSShapeGroup"></path>
        <path d="M24,39 L86.125,39 L86.125,57.59 L24,57.59 L24,39 L24,39 Z" id="Fill-532-2" fill="#2DAEB7" sketch:type="MSShapeGroup"></path>
        <path d="M45.993,129.37 C44.343,129.37 43,128.03 43,126.38 L43,72.99 C43,71.34 44.343,70 45.993,70 L110.432,70 C112.083,70 113.427,71.34 113.427,72.99 L113.427,126.38 C113.427,128.03 112.083,129.37 110.432,129.37 L45.993,129.37" id="Fill-533-2" fill="#FFFFFF" sketch:type="MSShapeGroup"></path>
        <path d="M110.808,69 L46.369,69 C44.509,69 43,70.51 43,72.37 L43,125.76 C43,127.62 44.509,129.13 46.369,129.13 L110.808,129.13 C112.669,129.13 114.178,127.62 114.178,125.76 L114.178,72.37 C114.178,70.51 112.669,69 110.808,69 L110.808,69 L110.808,69 Z M110.808,69.76 C112.252,69.76 113.426,70.93 113.426,72.37 L113.426,125.76 C113.426,127.2 112.252,128.38 110.808,128.38 L46.369,128.38 C44.926,128.38 43.752,127.2 43.752,125.76 L43.752,72.37 C43.752,70.93 44.926,69.76 46.369,69.76 L110.808,69.76 L110.808,69.76 Z" id="Fill-534-2" fill="#98ABAC" sketch:type="MSShapeGroup"></path>
        <path d="M110.808,69 L46.369,69 C44.509,69 43,70.51 43,72.37 L43,78.76 L114.178,78.76 L114.178,72.37 C114.178,70.51 112.669,69 110.808,69" id="Fill-535-2" fill="#98ABAC" sketch:type="MSShapeGroup"></path>
        <path d="M49.757,73.88 C49.757,74.91 48.917,75.76 47.879,75.76 C46.841,75.76 46,74.91 46,73.88 C46,72.84 46.841,72 47.879,72 C48.917,72 49.757,72.84 49.757,73.88" id="Fill-536-2" fill="#FFFFFF" sketch:type="MSShapeGroup"></path>
        <path d="M54.76,73.88 C54.76,74.91 53.918,75.76 52.879,75.76 C51.842,75.76 51,74.91 51,73.88 C51,72.84 51.842,72 52.879,72 C53.918,72 54.76,72.84 54.76,73.88" id="Fill-537-2" fill="#FFFFFF" sketch:type="MSShapeGroup"></path>
        <path d="M59.758,73.88 C59.758,74.91 58.916,75.76 57.878,75.76 C56.841,75.76 56,74.91 56,73.88 C56,72.84 56.841,72 57.878,72 C58.916,72 59.758,72.84 59.758,73.88" id="Fill-538-2" fill="#FFFFFF" sketch:type="MSShapeGroup"></path>
        <path d="M65,73 L108.593,73 L108.593,76.38 L65,76.38 L65,73 L65,73 Z" id="Fill-539-2" fill="#FFFFFF" sketch:type="MSShapeGroup"></path>
        <path d="M47,84 L62.468,84 L62.468,85.4 L47,85.4 L47,84 L47,84 Z" id="Fill-540-2" fill="#C6D6D7" sketch:type="MSShapeGroup"></path>
        <path d="M99,84 L108.828,84 L108.828,85.4 L99,85.4 L99,84 L99,84 Z" id="Fill-541-2" fill="#C6D6D7" sketch:type="MSShapeGroup"></path>
        <path d="M86,84 L95.828,84 L95.828,85.4 L86,85.4 L86,84 L86,84 Z" id="Fill-542-2" fill="#C6D6D7" sketch:type="MSShapeGroup"></path>
        <path d="M74,84 L83.827,84 L83.827,85.4 L74,85.4 L74,84 L74,84 Z" id="Fill-543-2" fill="#C6D6D7" sketch:type="MSShapeGroup"></path>
        <path d="M47,91 L59.268,91 L59.268,104.51 L47,104.51 L47,91 L47,91 Z" id="Fill-544-2" fill="#F1A648" sketch:type="MSShapeGroup"></path>
        <path d="M46.841,103.5 L58.267,103.5 L58.267,90.84 L46.841,90.84 L46.841,103.5 L46.841,103.5 Z M46,90 L59.109,90 L59.109,104.35 L46,104.35 L46,90 L46,90 Z" id="Fill-545-2" fill="#FFFFFF" sketch:type="MSShapeGroup"></path>
        <path d="M46.3762103,104.258 L46.1242103,104.158 C45.9692103,104.018 45.9582103,103.788 46.0972103,103.628 L58.3662103,90.128 C58.5062103,89.968 58.7452103,89.958 58.8972103,90.098 C59.0502103,90.238 59.0612103,90.478 58.9222103,90.628 L46.6552103,104.138 C46.5802103,104.218 46.4782103,104.258 46.3762103,104.258" id="Fill-546-2" fill="#FFFFFF" sketch:type="MSShapeGroup"></path>
        <path d="M58.6442103,104.258 C58.5422103,104.258 58.4402103,104.218 58.3662103,104.138 L46.0972103,90.628 C45.9582103,90.478 45.9692103,90.238 46.1242103,90.098 C46.2762103,89.958 46.5132103,89.968 46.6552103,90.128 L58.9222103,103.628 C59.0612103,103.788 59.0502103,104.018 58.8972103,104.158 C58.8252103,104.228 58.7352103,104.258 58.6442103,104.258" id="Fill-547-2" fill="#FFFFFF" sketch:type="MSShapeGroup"></path>
        <path d="M63,91 L75.268,91 L75.268,104.51 L63,104.51 L63,91 L63,91 Z" id="Fill-548-2" fill="#F1A648" sketch:type="MSShapeGroup"></path>
        <path d="M63.842,103.5 L75.267,103.5 L75.267,90.84 L63.842,90.84 L63.842,103.5 L63.842,103.5 Z M63,90 L76.109,90 L76.109,104.35 L63,104.35 L63,90 L63,90 Z" id="Fill-549-2" fill="#FFFFFF" sketch:type="MSShapeGroup"></path>
        <path d="M63.3763128,104.258 C63.2853128,104.258 63.1953128,104.228 63.1233128,104.158 C62.9693128,104.018 62.9583128,103.788 63.0973128,103.628 L75.3653128,90.128 C75.5063128,89.968 75.7433128,89.958 75.8963128,90.098 C76.0503128,90.238 76.0613128,90.478 75.9233128,90.628 L63.6543128,104.138 C63.5803128,104.218 63.4773128,104.258 63.3763128,104.258" id="Fill-550-2" fill="#FFFFFF" sketch:type="MSShapeGroup"></path>
        <path d="M75.6443128,104.258 C75.5423128,104.258 75.4393128,104.218 75.3653128,104.138 L63.0973128,90.628 C62.9583128,90.478 62.9693128,90.238 63.1233128,90.098 C63.2763128,89.958 63.5133128,89.968 63.6543128,90.128 L75.9233128,103.628 C76.0613128,103.788 76.0503128,104.018 75.8963128,104.158 L75.6443128,104.258" id="Fill-551-2" fill="#FFFFFF" sketch:type="MSShapeGroup"></path>
        <path d="M80,91 L92.267,91 L92.267,104.51 L80,104.51 L80,91 L80,91 Z" id="Fill-552-2" fill="#FD611F" sketch:type="MSShapeGroup"></path>
        <path d="M96,91 L108.268,91 L108.268,104.51 L96,104.51 L96,91 L96,91 Z" id="Fill-553-2" fill="#F1A648" sketch:type="MSShapeGroup"></path>
        <path d="M96.843,103.5 L108.27,103.5 L108.27,90.84 L96.843,90.84 L96.843,103.5 L96.843,103.5 Z M96,90 L109.111,90 L109.111,104.35 L96,104.35 L96,90 L96,90 Z" id="Fill-554-2" fill="#FFFFFF" sketch:type="MSShapeGroup"></path>
        <path d="M96.3758613,104.258 C96.2848613,104.258 96.1938613,104.228 96.1238613,104.158 C95.9698613,104.018 95.9578613,103.788 96.0968613,103.628 L108.364861,90.128 C108.506861,89.968 108.743861,89.958 108.895861,90.098 C109.049861,90.238 109.061861,90.478 108.922861,90.628 L96.6548613,104.138 C96.5788613,104.218 96.4778613,104.258 96.3758613,104.258" id="Fill-555-2" fill="#FFFFFF" sketch:type="MSShapeGroup"></path>
        <path d="M108.643861,104.258 C108.541861,104.258 108.439861,104.218 108.364861,104.138 L96.0968613,90.628 C95.9578613,90.478 95.9698613,90.238 96.1238613,90.098 C96.2748613,89.958 96.5128613,89.968 96.6548613,90.128 L108.922861,103.628 C109.061861,103.788 109.049861,104.018 108.895861,104.158 C108.824861,104.228 108.733861,104.258 108.643861,104.258" id="Fill-556-2" fill="#FFFFFF" sketch:type="MSShapeGroup"></path>
        <path d="M47,108 L59.268,108 L59.268,121.5 L47,121.5 L47,108 L47,108 Z" id="Fill-557-2" fill="#F1A648" sketch:type="MSShapeGroup"></path>
        <path d="M46.841,121.5 L58.267,121.5 L58.267,108.84 L46.841,108.84 L46.841,121.5 L46.841,121.5 Z M46,108 L59.109,108 L59.109,122.34 L46,122.34 L46,108 L46,108 Z" id="Fill-558-2" fill="#FFFFFF" sketch:type="MSShapeGroup"></path>
        <path d="M46.3762103,122.258 L46.1242103,122.158 C45.9692103,122.018 45.9582103,121.778 46.0972103,121.628 L58.3662103,108.128 C58.5062103,107.968 58.7452103,107.958 58.8972103,108.098 C59.0502103,108.238 59.0612103,108.478 58.9222103,108.628 L46.6552103,122.138 C46.5802103,122.218 46.4782103,122.258 46.3762103,122.258" id="Fill-559-2" fill="#FFFFFF" sketch:type="MSShapeGroup"></path>
        <path d="M58.6442103,122.258 C58.5422103,122.258 58.4402103,122.218 58.3662103,122.138 L46.0972103,108.628 C45.9582103,108.478 45.9692103,108.238 46.1242103,108.098 C46.2762103,107.958 46.5132103,107.968 46.6552103,108.128 L58.9222103,121.628 C59.0612103,121.778 59.0502103,122.018 58.8972103,122.158 C58.8252103,122.228 58.7352103,122.258 58.6442103,122.258" id="Fill-560-2" fill="#FFFFFF" sketch:type="MSShapeGroup"></path>
        <path d="M63,108 L75.268,108 L75.268,121.5 L63,121.5 L63,108 L63,108 Z" id="Fill-561-2" fill="#F1A648" sketch:type="MSShapeGroup"></path>
        <path d="M63.842,121.5 L75.267,121.5 L75.267,108.84 L63.842,108.84 L63.842,121.5 L63.842,121.5 Z M63,108 L76.109,108 L76.109,122.34 L63,122.34 L63,108 L63,108 Z" id="Fill-562-2" fill="#FFFFFF" sketch:type="MSShapeGroup"></path>
        <path d="M63.3763128,122.258 C63.2853128,122.258 63.1953128,122.228 63.1233128,122.158 C62.9693128,122.018 62.9583128,121.778 63.0973128,121.628 L75.3653128,108.128 C75.5063128,107.968 75.7433128,107.958 75.8963128,108.098 C76.0503128,108.238 76.0613128,108.478 75.9233128,108.628 L63.6543128,122.138 C63.5803128,122.218 63.4773128,122.258 63.3763128,122.258" id="Fill-563-2" fill="#FFFFFF" sketch:type="MSShapeGroup"></path>
        <path d="M75.6443128,122.258 C75.5423128,122.258 75.4393128,122.218 75.3653128,122.138 L63.0973128,108.628 C62.9583128,108.478 62.9693128,108.238 63.1233128,108.098 C63.2763128,107.958 63.5133128,107.968 63.6543128,108.128 L75.9233128,121.628 C76.0613128,121.778 76.0503128,122.018 75.8963128,122.158 L75.6443128,122.258" id="Fill-564-2" fill="#FFFFFF" sketch:type="MSShapeGroup"></path>
        <path d="M80,108 L92.267,108 L92.267,121.5 L80,121.5 L80,108 L80,108 Z" id="Fill-565-2" fill="#F1A648" sketch:type="MSShapeGroup"></path>
        <path d="M79.842,121.5 L91.267,121.5 L91.267,108.84 L79.842,108.84 L79.842,121.5 L79.842,121.5 Z M79,108 L92.109,108 L92.109,122.34 L79,122.34 L79,108 L79,108 Z" id="Fill-566-2" fill="#FFFFFF" sketch:type="MSShapeGroup"></path>
        <path d="M79.3755658,122.258 C79.2845658,122.258 79.1945658,122.228 79.1225658,122.158 C78.9695658,122.018 78.9585658,121.778 79.0965658,121.628 L91.3645658,108.128 C91.5055658,107.968 91.7435658,107.958 91.8955658,108.098 C92.0495658,108.238 92.0595658,108.478 91.9215658,108.628 L79.6535658,122.138 C79.5795658,122.218 79.4775658,122.258 79.3755658,122.258" id="Fill-567-2" fill="#FFFFFF" sketch:type="MSShapeGroup"></path>
        <path d="M91.6425658,122.258 C91.5405658,122.258 91.4385658,122.218 91.3645658,122.138 L79.0965658,108.628 C78.9585658,108.478 78.9695658,108.238 79.1225658,108.098 C79.2745658,107.958 79.5135658,107.968 79.6535658,108.128 L91.9215658,121.628 C92.0595658,121.778 92.0495658,122.018 91.8955658,122.158 C91.8235658,122.228 91.7335658,122.258 91.6425658,122.258" id="Fill-568-2" fill="#FFFFFF" sketch:type="MSShapeGroup"></path>
        <path d="M96,108 L108.268,108 L108.268,121.5 L96,121.5 L96,108 L96,108 Z" id="Fill-569-2" fill="#F1A648" sketch:type="MSShapeGroup"></path>
        <path d="M96.843,121.5 L108.27,121.5 L108.27,108.84 L96.843,108.84 L96.843,121.5 L96.843,121.5 Z M96,108 L109.111,108 L109.111,122.34 L96,122.34 L96,108 L96,108 Z" id="Fill-570-2" fill="#FFFFFF" sketch:type="MSShapeGroup"></path>
        <path d="M96.3758613,122.258 C96.2848613,122.258 96.1938613,122.228 96.1238613,122.158 C95.9698613,122.018 95.9578613,121.778 96.0968613,121.628 L108.364861,108.128 C108.506861,107.968 108.743861,107.958 108.895861,108.098 C109.049861,108.238 109.061861,108.478 108.922861,108.628 L96.6548613,122.138 C96.5788613,122.218 96.4778613,122.258 96.3758613,122.258" id="Fill-571-2" fill="#FFFFFF" sketch:type="MSShapeGroup"></path>
        <path d="M108.643861,122.258 C108.541861,122.258 108.439861,122.218 108.364861,122.138 L96.0968613,108.628 C95.9578613,108.478 95.9698613,108.238 96.1238613,108.098 C96.2748613,107.958 96.5128613,107.968 96.6548613,108.128 L108.922861,121.628 C109.061861,121.778 109.049861,122.018 108.895861,122.158 C108.824861,122.228 108.733861,122.258 108.643861,122.258" id="Fill-572-2" fill="#FFFFFF" sketch:type="MSShapeGroup"></path>
        <path d="M89.675,96.74 L83,95 L84.744,101.68 L85.899,99.56 L87.993,101.65 L89.651,99.99 L87.56,97.9 L89.675,96.74" id="Fill-573-2" fill="#FFFFFF" sketch:type="MSShapeGroup"></path>
        <path d="M106.219,118.538 C103.342,118.538 101,116.198 101,113.318 L101,37.22 C101,34.342 103.342,32 106.219,32 L213.273,32 C216.152,32 218.493,34.342 218.493,37.22 L218.493,113.318 C218.493,116.198 216.152,118.538 213.273,118.538 L106.219,118.538" id="Fill-574-2" fill="#FFFFFF" sketch:type="MSShapeGroup"></path>
        <path d="M213.65,32 L106.596,32 C103.506,32 101,34.505 101,37.596 L101,113.694 C101,116.784 103.506,119.284 106.596,119.284 L213.65,119.284 C216.74,119.284 219.245,116.784 219.245,113.694 L219.245,37.596 C219.245,34.505 216.74,32 213.65,32 L213.65,32 L213.65,32 Z M213.65,32.751 C216.32,32.751 218.494,34.925 218.494,37.596 L218.494,113.694 C218.494,116.364 216.32,118.534 213.65,118.534 L106.596,118.534 C103.926,118.534 101.752,116.364 101.752,113.694 L101.752,37.596 C101.752,34.925 103.926,32.751 106.596,32.751 L213.65,32.751 L213.65,32.751 Z" id="Fill-575-2" fill="#98ABAC" sketch:type="MSShapeGroup"></path>
        <path d="M107,47 L132.696,47 L132.696,49.31 L107,49.31 L107,47 L107,47 Z" id="Fill-576-2" fill="#C6D6D7" sketch:type="MSShapeGroup"></path>
        <path d="M194,47 L210.326,47 L210.326,49.31 L194,49.31 L194,47 L194,47 Z" id="Fill-577-2" fill="#C6D6D7" sketch:type="MSShapeGroup"></path>
        <path d="M174,47 L190.328,47 L190.328,49.31 L174,49.31 L174,47 L174,47 Z" id="Fill-578-2" fill="#C6D6D7" sketch:type="MSShapeGroup"></path>
        <path d="M153,47 L169.328,47 L169.328,49.31 L153,49.31 L153,47 L153,47 Z" id="Fill-579-2" fill="#C6D6D7" sketch:type="MSShapeGroup"></path>
        <path d="M107,58 L153.467,58 L153.467,109.15 L107,109.15 L107,58 L107,58 Z" id="Fill-580-2" fill="#FD611F" sketch:type="MSShapeGroup"></path>
        <path d="M108.248,108.15 L153.468,108.15 L153.468,58.25 L108.248,58.25 L108.248,108.15 L108.248,108.15 Z M107,57 L154.716,57 L154.716,109.4 L107,109.4 L107,57 L107,57 Z" id="Fill-581-2" fill="#FFFFFF" sketch:type="MSShapeGroup"></path>
        <path d="M109.034335,108.148909 L153.468335,108.148909 L153.468335,59.2389092 L109.034335,108.148909 L109.034335,108.148909 Z M154.091335,109.398909 L107.624335,109.398909 C107.377335,109.398909 107.152335,109.258909 107.053335,109.028909 C106.953335,108.798909 106.996335,108.538909 107.162335,108.358909 L153.628335,57.2089092 C153.802335,57.0189092 154.075335,56.9489092 154.315335,57.0389092 C154.557335,57.1389092 154.716335,57.3689092 154.716335,57.6289092 L154.716335,108.778909 C154.716335,109.118909 154.434335,109.398909 154.091335,109.398909 L154.091335,109.398909 L154.091335,109.398909 Z" id="Fill-582-2" fill="#FFFFFF" sketch:type="MSShapeGroup"></path>
        <path d="M108.248,108.148909 L152.681,108.148909 L108.248,59.2389092 L108.248,108.148909 L108.248,108.148909 Z M154.091,109.398909 L107.624,109.398909 C107.279,109.398909 107,109.118909 107,108.778909 L107,57.6289092 C107,57.3689092 107.158,57.1389092 107.4,57.0389092 C107.639,56.9489092 107.912,57.0189092 108.086,57.2089092 L154.554,108.358909 C154.72,108.538909 154.763,108.798909 154.663,109.028909 C154.561,109.258909 154.339,109.398909 154.091,109.398909 L154.091,109.398909 L154.091,109.398909 Z" id="Fill-583-2" fill="#FFFFFF" sketch:type="MSShapeGroup"></path>
        <path d="M161,59 L188.569,59 L188.569,62.76 L161,62.76 L161,59 L161,59 Z" id="Fill-584-2" fill="#98ABAC" sketch:type="MSShapeGroup"></path>
        <path d="M161,68 L210.83,68 L210.83,70.31 L161,70.31 L161,68 L161,68 Z" id="Fill-585-2" fill="#C6D6D7" sketch:type="MSShapeGroup"></path>
        <path d="M161,75 L203.348,75 L203.348,77.31 L161,77.31 L161,75 L161,75 Z" id="Fill-586-2" fill="#C6D6D7" sketch:type="MSShapeGroup"></path>
        <path d="M161,83 L207.928,83 L207.928,85.31 L161,85.31 L161,83 L161,83 Z" id="Fill-587-2" fill="#C6D6D7" sketch:type="MSShapeGroup"></path>
        <path d="M161,90 L197.522,90 L197.522,92.31 L161,92.31 L161,90 L161,90 Z" id="Fill-588-2" fill="#C6D6D7" sketch:type="MSShapeGroup"></path>
        <path d="M161,99 L177.129,99 L177.129,105.77 L161,105.77 L161,99 L161,99 Z" id="Fill-589-2" fill="#F1A648" sketch:type="MSShapeGroup"></path>
        <path d="M163,101 L173.717,101 L173.717,103.32 L163,103.32 L163,101 L163,101 Z" id="Fill-590-2" fill="#FFFFFF" sketch:type="MSShapeGroup"></path>
        <path d="M215.876,32 L104.369,32 C102.509,32 101,33.508 101,35.37 L101,41.754 L219.245,41.754 L219.245,35.37 C219.245,33.508 217.738,32 215.876,32" id="Fill-591-2" fill="#98ABAC" sketch:type="MSShapeGroup"></path>
        <path d="M107.759,36.878 C107.759,37.916 106.917,38.76 105.879,38.76 C104.841,38.76 104,37.916 104,36.878 C104,35.841 104.841,35 105.879,35 C106.917,35 107.759,35.841 107.759,36.878" id="Fill-592-2" fill="#FFFFFF" sketch:type="MSShapeGroup"></path>
        <path d="M112.76,36.878 C112.76,37.916 111.918,38.76 110.881,38.76 C109.842,38.76 109,37.916 109,36.878 C109,35.841 109.842,35 110.881,35 C111.918,35 112.76,35.841 112.76,36.878" id="Fill-593-2" fill="#FFFFFF" sketch:type="MSShapeGroup"></path>
        <path d="M118.756,36.878 C118.756,37.916 117.916,38.76 116.878,38.76 C115.839,38.76 115,37.916 115,36.878 C115,35.841 115.839,35 116.878,35 C117.916,35 118.756,35.841 118.756,36.878" id="Fill-594-2" fill="#FFFFFF" sketch:type="MSShapeGroup"></path>
        <path d="M124,35 L214.662,35 L214.662,38.383 L124,38.383 L124,35 L124,35 Z" id="Fill-595-2" fill="#FFFFFF" sketch:type="MSShapeGroup"></path>
        <path d="M316.28,106 L168.86,106 C166.725,106 165,107.73 165,109.86 L165,199.69 C165,201.82 166.725,203.55 168.86,203.55 L316.28,203.55 C318.42,203.55 320.15,201.82 320.15,199.69 L320.15,109.86 C320.15,107.73 318.42,106 316.28,106" id="Fill-596-2" fill="#103754" sketch:type="MSShapeGroup"></path>
        <path d="M175,115 L310.934,115 L310.934,193.76 L175,193.76 L175,115 L175,115 Z" id="Fill-597-2" fill="#0B263B" sketch:type="MSShapeGroup"></path>
        <path d="M334.846,202 L151.094,202 C151.057,202.32 151,202.62 151,202.93 L151,205.72 C151,210.33 154.748,214.08 159.365,214.08 L326.576,214.08 C331.206,214.08 334.936,210.33 334.936,205.72 L334.936,202.93 C334.936,202.62 334.886,202.32 334.846,202" id="Fill-598-2" fill="#CCCCCC" sketch:type="MSShapeGroup"></path>
        <path d="M151,209 C152.275,211.99 155.242,214.09 158.697,214.09 L325.908,214.09 C329.368,214.09 332.338,211.99 333.608,209 L151,209" id="Fill-599-2" fill="#B3B3B3" sketch:type="MSShapeGroup"></path>
        <path d="M186,135 L228.113,135 L228.113,137.36 L186,137.36 L186,135 L186,135 Z" id="Fill-600-2" fill="#2DAEB7" sketch:type="MSShapeGroup"></path>
        <path d="M231,135 L240.547,135 L240.547,137.36 L231,137.36 L231,135 L231,135 Z" id="Fill-601-2" fill="#FD611F" sketch:type="MSShapeGroup"></path>
        <path d="M186,126 L214.109,126 L214.109,128.36 L186,128.36 L186,126 L186,126 Z" id="Fill-602-2" fill="#FD611F" sketch:type="MSShapeGroup"></path>
        <path d="M210,144 L298.477,144 L298.477,146.36 L210,146.36 L210,144 L210,144 Z" id="Fill-603-2" fill="#FFFFFF" sketch:type="MSShapeGroup"></path>
        <path d="M186,144 L206.47,144 L206.47,146.36 L186,146.36 L186,144 L186,144 Z" id="Fill-604-2" fill="#F1A648" sketch:type="MSShapeGroup"></path>
        <path d="M195,153 L266.45,153 L266.45,155.37 L195,155.37 L195,153 L195,153 Z" id="Fill-605-2" fill="#FFFFFF" sketch:type="MSShapeGroup"></path>
        <path d="M270,153 L282.25,153 L282.25,155.37 L270,155.37 L270,153 L270,153 Z" id="Fill-606-2" fill="#FD611F" sketch:type="MSShapeGroup"></path>
        <path d="M195,162 L208.707,162 L208.707,164.36 L195,164.36 L195,162 L195,162 Z" id="Fill-607-2" fill="#F1A648" sketch:type="MSShapeGroup"></path>
        <path d="M195,171 L208.707,171 L208.707,173.36 L195,173.36 L195,171 L195,171 Z" id="Fill-608-2" fill="#F1A648" sketch:type="MSShapeGroup"></path>
        <path d="M212,162 L286.659,162 L286.659,164.36 L212,164.36 L212,162 L212,162 Z" id="Fill-609-2" fill="#2DAEB7" sketch:type="MSShapeGroup"></path>
        <path d="M212,171 L251.078,171 L251.078,173.36 L212,173.36 L212,171 L212,171 Z" id="Fill-610-2" fill="#2DAEB7" sketch:type="MSShapeGroup"></path>
        <path d="M254,171 L293.073,171 L293.073,173.36 L254,173.36 L254,171 L254,171 Z" id="Fill-611-2" fill="#FFFFFF" sketch:type="MSShapeGroup"></path>
        <path d="M212,180 L263.773,180 L263.773,182.36 L212,182.36 L212,180 L212,180 Z" id="Fill-612-2" fill="#2DAEB7" sketch:type="MSShapeGroup"></path>
        <path d="M186,180 L209.017,180 L209.017,182.36 L186,182.36 L186,180 L186,180 Z" id="Fill-613-2" fill="#F1A648" sketch:type="MSShapeGroup"></path>
        <path d="M268,180 L275.242,180 L275.242,182.36 L268,182.36 L268,180 L268,180 Z" id="Fill-614-2" fill="#FD611F" sketch:type="MSShapeGroup"></path>
        <path d="M228,202.16 C228,203.38 228.991,204.37 230.211,204.37 L255.682,204.37 C256.903,204.37 257.891,203.38 257.891,202.16 L257.875,202 L228.016,202 L228,202.16" id="Fill-615-2" fill="#B3B3B3" sketch:type="MSShapeGroup"></path>
    </g>
</svg>
