<svg width="100%" height="100%" viewBox="0 0 369 366" version="1.1" xmlns="http://www.w3.org/2000/svg" xmlns:xlink="http://www.w3.org/1999/xlink" xml:space="preserve" xmlns:serif="http://www.serif.com/" style="fill-rule:evenodd;clip-rule:evenodd;stroke-linejoin:round;stroke-miterlimit:1.41421;"><g id="services-launch-icon.svg"><path id="Fill-2837-2" d="M181.16,365.34c-100.05,0 -181.16,-81.11 -181.16,-181.17c0,-100.06 81.11,-181.17 181.16,-181.17c100.06,0 181.18,81.11 181.18,181.17c0,100.06 -81.12,181.17 -181.18,181.17" style="fill:#e6e6e6;"/><path id="Fill-2838-2" d="M181.17,318.34c-74.1,0 -134.17,-60.07 -134.17,-134.17c0,-74.1 60.07,-134.17 134.17,-134.17c74.1,0 134.17,60.07 134.17,134.17c0,74.1 -60.07,134.17 -134.17,134.17" style="fill:#d9d9d9;"/><path id="Fill-2839-2" d="M364.5,95l-0.64,3.87l-3.86,0.64l3.86,0.63l0.64,3.87l0.63,-3.87l3.87,-0.63l-3.87,-0.64l-0.63,-3.87" style="fill:#ccc;"/><path id="Fill-2840-2" d="M171,279.63c57.79,0 104.81,-47.01 104.81,-104.81c0,-57.79 -47.02,-104.82 -104.81,-104.82" style="fill:#1695a4;"/><path id="Fill-2841-2" d="M170.83,70c-57.8,0 -104.83,47.03 -104.83,104.82c0,57.8 47.03,104.81 104.83,104.81" style="fill:#14b0bf;"/><path id="Fill-2842-2" d="M271.89,203.002c-1.38,0.03 -3.17,0.68 -3.2,1.15c-0.03,0.48 -1.93,1.33 -2.56,1.59c-0.63,0.25 -1.85,2.2 -2.12,2.83c-0.26,0.65 -1.82,0.45 -2.39,0.71c-0.58,0.26 -1.76,1.21 -1.77,1.78c0,0.57 -0.32,0.51 -0.71,-0.14l-0.75,0.8l-0.9,0.99c-0.51,1.61 -2.22,3.64 -2.8,3.82c-0.59,0.16 -0.69,2.99 -0.69,4.12c0,1.15 0.44,2.55 0.98,3.13l0.12,0.91l0.2,1.8c-0.32,1.39 0.75,2.63 1.05,2.88c0.31,0.24 2.9,-0.47 3.89,-0.71c0.41,-0.1 0.93,-0.32 1.42,-0.57c4.63,-7.75 8.27,-16.16 10.79,-25.04c-0.2,-0.03 -0.39,-0.06 -0.56,-0.05" style="fill:#a6dae9;"/><path id="Fill-2843-2" d="M98.3,205.416c-0.15,0.29 1.72,2.21 2.45,2.87c0.73,0.66 2.27,3.8 2.58,4.83c0.32,1.04 0.13,2.72 0.03,3.12c-0.09,0.4 0.35,1.27 0.43,1.64c0.06,0.36 -0.65,3.44 -0.38,4.68c0.28,1.24 -1.45,5.11 -1.41,7.03c0.04,1.93 0.91,4.43 1.27,4.24c0.34,-0.19 0.46,1.75 -0.12,1.98c-0.59,0.24 -1.27,1.77 -0.94,1.84c0.33,0.08 -0.03,1.59 0.07,2.2c0.09,0.6 0.6,4.59 0.71,5.59c0.11,0.99 1.52,3.41 1.82,4.24c0.3,0.82 0.61,2.38 0.72,2.61c0.12,0.25 0.26,0.49 0.28,0.5c0.03,0 1.17,0.43 1.5,0.68c0.34,0.25 2.58,0.09 3.31,-0.06c0.73,-0.15 0.06,-0.82 -0.27,-1.18c-0.33,-0.37 -0.62,-2.14 -1,-2.32c-0.38,-0.17 -0.55,-2.43 -0.21,-2.93c0.34,-0.5 1.67,-1.3 1.82,-1.72c0.14,-0.41 0.18,-2.38 -0.17,-2.65c-0.37,-0.27 0.11,-2.65 -0.17,-3.84c-0.27,-1.18 2.06,-2.26 2.2,-3.2c0.13,-0.94 2.65,-1.95 3.22,-2.42c0.57,-0.47 1.07,-3.16 0.8,-3.74c-0.28,-0.58 0.93,-1.04 1.47,-1.04c0.53,0 1.13,-0.39 1.35,-0.39c0.2,-0.01 0.84,-1.2 1.18,-1.47c0.35,-0.27 1.06,-3.12 1.68,-3.58c0.63,-0.47 1.15,-2.19 1.15,-2.69c0,-0.5 0.95,-2 1.27,-2.45c0.31,-0.45 2.67,-1.53 3.08,-1.7c0.43,-0.17 1.06,-3.95 1.23,-5.31c0.16,-1.36 0.87,-3.17 0.92,-3.62c0.04,-0.44 0.8,-0.83 0.94,-0.97c0.14,-0.14 0.7,-1.87 1.06,-2.27c0.37,-0.39 1.67,-2.04 1.69,-2.41c0.04,-0.37 0.23,-1.32 0.45,-2.11l-0.01,-0.92l0.01,-1.47c-0.41,-1.14 -1.67,-2.57 -1.99,-2.25c-0.33,0.31 -1.79,-1.01 -2.53,-1.29c-0.74,-0.27 -2.59,-0.51 -3.06,-0.51c-0.47,0 -2.09,-1.32 -2.82,-1.55c-0.72,-0.23 -2.57,-0.58 -2.91,-0.8c-0.34,-0.22 -0.8,-2.97 -2.28,-3.87c-1.51,-0.91 -4.12,-3 -4.4,-3.78c-0.29,-0.77 -3.16,-2.38 -4.04,-2.87c-0.88,-0.49 -2.23,-0.61 -2.39,-0.43c-0.18,0.17 -1.27,-1.49 -1.84,-1.97c-0.57,-0.46 -2.29,-0.85 -2.37,-0.43c-0.08,0.42 -1.22,0.2 -1.49,-0.16c-0.26,-0.36 -1.15,0.14 -1.56,0.28c-0.41,0.13 -1.84,2.31 -2.49,2.83c-0.66,0.52 -1.44,-0.48 -1.87,-0.67c-0.44,-0.19 -2.08,0.33 -2.53,0.65c-0.45,0.31 -1.48,-2.31 -1.24,-3.52c0.24,-1.2 -1.08,-3.61 -2.11,-3.66c-1.01,-0.06 -1.33,-2.59 -1.13,-3.52c0.21,-0.93 -1.84,-1.51 -2.35,-1.57c-0.52,-0.07 -1.79,1.24 -2.01,1.87c-0.22,0.63 -4.86,-0.86 -4.31,-3.64c0.54,-2.78 2.74,-5.65 3.29,-6c0.54,-0.34 3.52,-0.5 4.18,-0.13c0.67,0.39 1.26,-0.01 1.37,-0.17c0.11,-0.18 2.55,0.02 3.27,0.32c0.72,0.3 1.77,3.1 2.52,3.45c0.76,0.35 1.03,-1.81 1.15,-2.34c0.12,-0.52 -0.37,-1.86 -0.55,-2.24c-0.19,-0.37 1.21,-3.78 2.35,-4.36c1.13,-0.58 2.33,-2.47 2.24,-2.81c-0.1,-0.33 0.91,-0.59 1.18,-0.74c0.27,-0.13 -0.04,-2.89 0.4,-3.49c0.45,-0.59 2.58,-1.86 3.26,-2.14c0.67,-0.29 1.18,-2.02 0.94,-2.33c-0.25,-0.31 1.74,-2 2.78,-2.33c1.03,-0.32 1.93,0.59 1.67,0.74c0.2,-0.11 1.63,-0.85 2.24,-1.25c0.71,-0.48 0.01,-1.76 -0.45,-2.15c-0.45,-0.37 -0.18,-1.86 0.37,-2c0.55,-0.13 1.03,-1.43 0.88,-1.7c-0.14,-0.29 2.28,0.22 3.2,-0.47c0.91,-0.68 0.26,1.65 -0.41,2.58c-0.67,0.94 0.5,1.83 0.93,1.65c0.43,-0.18 0.9,0.49 0.98,0.76c0.09,0.26 1.02,-0.28 1.63,-0.01c0.61,0.27 0.97,-0.84 1.02,-1.34c0.05,-0.51 -1.46,-1.57 -1.69,-2.18c-0.24,-0.61 -0.34,-4.16 -0.37,-4.89c-0.03,-0.73 -1.01,-1.91 -1.33,-1.69c-0.3,0.2 -0.94,-1.89 -1.45,-2.35c-0.51,-0.45 -0.63,-1.46 -0.61,-1.8c0.03,-0.33 -1.71,-2.15 -2.14,-3c-0.41,-0.84 -1,-0.66 -1.04,-0.28c-0.04,0.39 -1.25,0.44 -1.74,0.39c-0.51,-0.04 -0.91,-1.97 -0.91,-2.69c0,-0.73 -2.25,-0.85 -2.62,-1.44c-0.36,-0.58 -1.83,-0.31 -2.06,-0.71c-0.23,-0.41 -1.53,-0.78 -1.78,-0.63c-0.27,0.15 -0.14,5.36 -0.39,6.77c-0.25,1.41 -1.44,2.64 -1.88,2.61c-0.43,-0.03 -0.17,1 0.13,0.91c0.31,-0.09 -0.84,1.54 -1,2.61c-0.15,1.06 -1.23,-0.05 -1.41,-1.02c-0.17,-0.97 -1.23,-2.28 -1.43,-1.95c-0.2,0.33 -0.94,-0.4 -1.25,-0.19c-0.31,0.21 -2.32,-1.16 -3.13,-1.61c-0.8,-0.42 -1.26,-2.91 -1.73,-3.12c-0.46,-0.23 -0.07,-0.52 -0.08,-0.9c-0.02,-0.38 1.56,-1.82 2.04,-2.39c0.47,-0.57 2.21,-2.83 2.9,-3.31c0.69,-0.5 1.23,-1.78 1.1,-2.02c-0.11,-0.24 2.95,-1.19 3.78,-1.48c0.83,-0.28 1.54,-2.59 1.65,-3.26c0.12,-0.66 -0.52,-1.92 -0.9,-2.08c-0.39,-0.17 1.16,-0.23 1.67,0.03c0.51,0.25 2.09,-0.47 2.72,-0.14c0.61,0.33 1.87,1.08 2.79,1.65l-0.21,1.7l-0.36,2.88c-2.42,1 -3.11,2.73 -2.26,2.69c0.84,-0.04 4.69,1.67 5.78,2.45c1.09,0.78 1.44,-1.13 1.76,-1.77c0.32,-0.62 0.21,-2.47 -0.05,-2.84c-0.26,-0.36 1.26,-0.23 1.68,0.18c0.44,0.4 0.94,-0.43 1.27,-0.57c0.32,-0.15 0.49,-1.73 0.66,-2.05c0.18,-0.32 -0.71,-0.65 -0.74,-1.04c-0.03,-0.4 -1.76,-1.15 -2.32,-1.42c-0.57,-0.27 -0.7,-1.46 -0.42,-1.67c0.27,-0.21 -0.19,-1.73 -0.47,-2.23c-0.28,-0.5 -2.08,-0.91 -2.69,-0.91c-0.6,0 -1.22,-1.4 -1.57,-1.6c-0.35,-0.2 -2.67,-0.46 -3.24,-0.29c-0.58,0.17 -1.63,-1.65 -2.6,-1.09c-0.97,0.55 -1.97,-0.65 -2.41,-0.89c-0.44,-0.24 -2.71,2.2 -2.68,3.91c0.02,1.72 0.87,3.37 1.23,3.42c0.36,0.04 -0.08,1.59 -0.48,2.03c-0.38,0.44 -1.34,-0.46 -0.98,-0.85c0.36,-0.39 -0.98,-2.18 -1.45,-2.91c-0.33,-0.53 -1.51,-0.99 -2.31,-1.31c-0.46,0.5 -0.92,1.02 -1.37,1.54c0.17,0.62 0.38,1.43 0.18,2.05c-0.34,1.04 -1.21,1.2 -1.27,0.75c-0.02,-0.2 -0.46,-0.35 -0.98,-0.43c-12.69,15.24 -21.15,34.11 -23.57,54.79c0.51,0.58 1.08,1.27 1.24,1.76c0.28,0.91 1.88,1.52 2.18,1.71c0.3,0.18 0.41,-1.76 0.19,-2.27c-0.2,-0.5 0.39,-0.81 0.38,-0.44c-0.02,0.38 1.51,2.09 2,2.71c0.5,0.62 1.02,4.62 1.5,5.47c0.47,0.86 5.09,2.64 6.58,2.95c1.48,0.32 3.35,1.98 3.65,2.46c0.28,0.48 2.26,0.72 2.68,0.91c0.43,0.19 1.44,1.53 1.86,1.81c0.42,0.28 0.75,1.08 0.75,1.29c0,0.21 2.61,1.2 3.24,1.89c0.63,0.7 1.67,0.51 1.87,0.22c0.2,-0.3 0.71,1.38 0.98,1.96c0.27,0.58 0.33,2.01 0.13,2.23c-0.2,0.22 -0.58,2.85 -1.02,3.37c-0.45,0.53 -1.37,4.34 -1.17,5.09c0.2,0.75 1.42,2.31 1.95,2.54c0.53,0.23 0.31,1.04 -0.11,1.1c-0.42,0.05 -0.22,3.69 0.76,4.23c0.98,0.54 1.8,2.15 1.66,2.42" style="fill:#a6dae9;"/><path id="Fill-2845-2" d="M104.01,97.43c1.25,-0.21 3.34,-0.56 3.48,-0.91c0.11,-0.29 0.12,-1.15 -0.12,-1.45c0.2,0.01 0.44,0.02 0.62,0.02c0.47,0 1.26,-2.61 1.77,-3.22c0.5,-0.61 3.37,-1.51 4.05,-1.92c0.68,-0.42 2.18,-1.86 2.76,-2.02c0.57,-0.18 1.41,-1.51 1.28,-1.79c-0.13,-0.26 1.94,-1.52 2.73,-1.85c0.78,-0.34 1.19,-1.26 0.89,-1.29c-0.18,-0.03 -4.56,2.26 -8.57,4.54c-4.58,3.1 -8.88,6.58 -12.9,10.35c1.25,-0.09 3.18,-0.32 4.01,-0.46" style="fill:#a6dae9;"/><path id="Fill-2846-2" d="M178.99,228.037c1.34,-0.79 3.62,-4.16 4.37,-4.87c0.75,-0.71 1.29,-3.26 1.45,-3.81c0.15,-0.56 1.29,-1.46 1.72,-1.59c0.42,-0.12 1.78,-5.77 2.97,-7c1.2,-1.24 2.6,-7.21 2.45,-9.37c-0.15,-2.14 0.76,-6.23 1.04,-7.22c0.29,-0.98 1.79,-2.73 2.26,-3.09c0.46,-0.37 3.33,-4.63 4.26,-6.16c0.93,-1.52 1.82,-4.88 1.64,-5.67c-0.18,-0.79 -2.18,-1.33 -2.56,-0.95c-0.37,0.39 -2.26,0.71 -2.86,0.71c-0.61,0 -1.99,-3.23 -2.85,-3.9c-0.86,-0.66 -1.63,-4.37 -2.13,-5.07c-0.49,-0.7 -1.88,-2.47 -2.31,-2.88c-0.43,-0.41 -0.51,-2.37 -0.61,-2.91c-0.09,-0.54 0.84,0.35 1,1.13c0.16,0.78 2.38,3.94 3.07,5.01c0.68,1.06 2.49,4.44 2.96,5.5c0.46,1.06 4.49,0.52 5.8,-0.09c1.31,-0.62 2.94,-1.66 3,-2.03c0.06,-0.36 2.15,-1.32 2.72,-1.78c0.58,-0.47 1.09,-2.89 1.47,-3.28c0.38,-0.4 -0.31,-2.7 -0.74,-3.39c-0.43,-0.69 -2.52,-1.24 -2.94,-0.97c-0.43,0.27 -1.33,-1.55 -1.65,-2.21c-0.32,-0.68 -1.92,-1.5 -2.09,-1.96c-0.17,-0.46 0.43,-1.18 0.68,-1.33c0.25,-0.17 3.2,1.9 4.05,2.93c0.84,1.03 1.81,2.92 1.98,3.25c0.15,0.33 2.48,0.5 3,0.11c0.52,-0.38 1.11,-0.27 1.32,0.22l0.73,-0.13l2.56,-0.4c1.2,1.31 1.55,2.45 1.52,2.71c-0.02,0.25 0.74,1.31 1.24,1.43c0.49,0.11 0.86,1.78 1,2.2c0.15,0.41 1.61,2.91 1.9,3.96c0.31,1.05 1.55,3.11 1.85,3.66c0.29,0.55 0.54,2.14 0.54,2.58c0,0.43 0.93,1.29 1.51,1.25c0.58,-0.04 1.75,-3.7 2.02,-5.06c0.28,-1.36 1.21,-2.48 1.48,-2.48c0.27,0 0.48,-0.77 0.48,-1.06c0,-0.29 1.48,-0.26 1.61,-0.63c0.12,-0.37 0.57,-2.79 1.09,-3.15c0.53,-0.37 2.4,-1.6 3.06,-1.83c0.66,-0.22 2.34,1.22 2.71,1.9c0.38,0.67 0.72,2.39 0.57,2.67c-0.14,0.29 0.89,1.77 1.79,1.74c0.89,-0.02 1.17,1.14 1.19,1.56c0.04,0.42 1.21,1.61 1.45,2.15c0.23,0.53 0.17,1.99 0.01,2.33c-0.16,0.33 -0.05,2.24 0.12,2.78c0.17,0.53 2.92,3.32 3.95,4.17c1.03,0.84 1.51,-1.73 0.99,-2.53c-0.53,-0.8 -2.33,-2.65 -2.75,-3.21c-0.42,-0.56 -0.49,-2.78 -0.33,-3.41c0.15,-0.62 1.56,0.35 2.15,0.8c0.59,0.45 1.37,1.46 1.39,1.79c0.02,0.34 3.7,-1.73 3.83,-3.97c0.13,-2.24 1.35,-4.77 1.47,-5.35c0.13,-0.6 -0.36,-1.41 -0.67,-1.43c-0.31,-0.03 0.55,-1.71 1.58,-1.68c1.04,0.03 3.53,-2.74 4.11,-3.84c0.58,-1.1 1.77,-2 1.91,-2.15c0.14,-0.12 0.97,-2.73 1.11,-3.8c0.14,-1.07 -0.61,-2.76 -0.7,-3.31c-0.08,-0.55 -0.97,-1.84 -1.21,-2.24c-0.22,-0.4 -0.44,-1.91 -0.3,-2.19c0.13,-0.28 1.07,-0.58 1.16,-0.83c0.11,-0.25 1.17,-1.39 1.09,-1.89c-0.08,-0.5 0.66,0.65 1.15,1.07c0.49,0.41 1.02,3.08 1.62,3.38c0.6,0.29 3.05,-2.84 2.75,-4.85c-0.3,-2.02 0.71,-4.6 1.3,-4.84c0.45,-0.17 1.6,-1.8 2.37,-2.97c-5.37,-15.54 -14.3,-29.43 -25.81,-40.69c-0.14,0.01 -0.27,0.01 -0.4,-0.01l-0.89,-0.2c-1.51,-0.31 -2.38,-1.92 -2.12,-2.29c0.08,-0.12 0.06,-0.39 -0.01,-0.71c-0.84,-0.76 -1.7,-1.5 -2.57,-2.23c-0.71,-0.02 -1.46,0 -1.9,-0.02c-0.9,-0.03 -2.85,-0.68 -3.2,-1.02c-0.35,-0.35 -1.53,0.31 -1.6,0.96c-0.08,0.65 -2.13,0.95 -2.32,1.45c-0.21,0.49 -1.26,0.53 -1.46,0.24c-0.21,-0.27 -2.11,0.67 -3.06,0.81c-0.95,0.14 -2.71,0.91 -3.14,1.1c-0.42,0.18 -1.43,1.16 -1.59,1.57c-0.15,0.41 -1.37,1.09 -1.76,1.24c-0.4,0.16 -0.31,1.92 0.19,2.18c0.5,0.24 -0.94,-0.22 -1.57,-0.54c-0.64,-0.32 -1.34,0.75 -1.54,1.12c-0.2,0.37 -0.78,-0.22 -0.76,-0.75c0.03,-0.53 -1.56,-0.95 -1.77,-0.53c-0.21,0.42 -1.31,-0.14 -1.77,-0.38c-0.46,-0.24 -2.43,1.81 -3.16,2.56c-0.74,0.73 -4.23,1.31 -4.89,1.03c-0.65,-0.28 -1.3,1.55 -0.74,1.67c0.56,0.11 -1.42,-0.09 -2.5,0.01c-1.09,0.11 -4.25,1.37 -5,1.93c-0.76,0.56 -1.37,-0.12 -1.37,-0.55c0,-0.44 -1.2,-0.84 -1.56,-0.96c-0.35,-0.12 -1.05,2.37 -1.68,2.85c-0.63,0.48 -1.38,-1.94 -2.85,-2.34c-1.48,-0.4 -3.79,-1.82 -4.44,-1.99c-0.65,-0.18 -1.97,-1.56 -2.34,-1.95c-0.37,-0.4 -2.26,-0.73 -2.86,-0.73c-0.61,0 -2.56,1.12 -3.08,1.56c-0.54,0.44 -1.32,0.35 -1.58,0.51c-0.27,0.16 -2.47,2.33 -3.33,3c-0.85,0.68 -2.35,3.59 -2.83,4.29c-0.5,0.69 -1.2,0.82 -1.49,0.84c-0.28,0.01 -0.52,0.79 -0.52,1.08c0,0.28 -2.53,1.6 -2.79,2.75c-0.27,1.16 0.24,3.79 0.24,4.72c0,0.94 0.94,2.79 1.65,2.82c0.7,0.03 0.33,1.59 0.15,2.02c-0.18,0.44 0.44,0.92 0.42,1.29c-0.02,0.38 -1.78,0.9 -2.32,1.11c-0.55,0.2 -1.43,1.43 -1.54,1.89c-0.1,0.39 -1.8,0.68 -2.35,1.21c0.14,-0.38 0.32,-0.92 0.48,-1.22c0.32,-0.62 -0.13,-1.69 -0.39,-1.9c-0.27,-0.23 -0.39,-3.28 -0.82,-3.93c-0.43,-0.65 -1.5,-1.76 -1.76,-1.98c-0.26,-0.21 0.19,-1.01 0.34,-1.36c0.15,-0.33 -1.42,-0.53 -1.85,-0.28c-0.43,0.26 -0.67,3.27 -0.85,4.1c-0.18,0.82 0.78,2.09 1.04,2.15c0.26,0.06 0.19,1.55 -0.36,1.6c-0.56,0.05 -1.06,2.22 -0.78,2.71c0.29,0.5 -0.39,1.47 -0.72,1.7c-0.33,0.22 2.12,0.09 3.24,0.06c1.11,-0.03 1.99,0.47 1.87,0.56c-0.12,0.1 -2.14,0.39 -2.5,0.87c-0.35,0.48 -1.73,1.4 -2,1.77c-0.26,0.37 0.46,1.18 1.04,1.14c0.58,-0.03 1.24,2.01 1.69,2.39c0.46,0.38 0.29,1.44 0.09,1.73c-0.2,0.29 -2.93,-0.19 -3.97,0.06c-1.04,0.26 -2.35,2.45 -2.43,3.28c-0.1,0.83 0.16,3.21 0.3,3.87c0.13,0.65 2.3,1.06 2.74,1.39c0.45,0.31 2.52,0 2.96,0.21c0.42,0.2 1.83,-2.11 2.1,-3.18c0.27,-1.08 2.49,-3.04 2.95,-3.78c0.46,-0.73 2.85,-0.64 3.44,-1.02c0.59,-0.38 0.26,1.81 0.54,3.01c0.29,1.21 2.57,1.06 2.23,-0.08c-0.33,-1.12 0.23,-1.61 0.32,-1.21c0.09,0.41 2.29,1.31 2.71,1.94c0.41,0.64 0.29,1.99 -0.19,1.97c-0.49,-0.02 -0.51,1.48 0.01,1.65c0.51,0.15 1.2,-1.69 1.75,-1.97c0.56,-0.27 1.01,-1.43 0.75,-1.51c-0.25,-0.09 0.47,-1.12 0.78,-0.78c0.32,0.34 -1.17,-2.24 -2.11,-3.18c-0.93,-0.94 -0.27,-0.53 1.47,0.93l1.21,1.69c0.23,0.3 0.54,1.23 0.75,1.56l0.28,0.5c0.24,0.6 0.45,2.21 0.45,2.65c0,0.44 0.95,1.3 1.52,1.25c0.57,-0.04 1.01,0.28 0.89,0.3c-0.12,0.02 0.37,1.14 0.95,1.17c0.57,0.02 0.82,-1.45 0.24,-1.48c-0.58,-0.04 -0.48,-2.17 -0.56,-3.09c-0.06,-0.93 0.42,-1.68 0.61,-1.68c0.2,0 -0.02,1.9 -0.01,2.34c0.01,0.44 0.26,1.3 0.52,1.92l0.59,0.44l1.33,1.03c1.89,-0.57 4.44,-0.13 4.34,0.25c-0.1,0.39 1.41,0.48 1.5,-0.14c0.09,-0.62 0.16,0.02 0.16,0.45c0,0.43 -1.24,2.12 -1.45,2.9c-0.22,0.79 -4.59,0.26 -6.48,0.11c-1.89,-0.14 -4.66,0.5 -4.88,1.06c-0.21,0.57 -3.15,-1.29 -4.5,-1.86c-1.35,-0.57 -2.41,-2.63 -2.68,-2.89c-0.28,-0.28 0.22,-0.94 0.1,-1.34c-0.13,-0.41 -3.21,-0.49 -4.1,-0.16c-0.9,0.33 -5.52,0.81 -6.61,1.29c-1.1,0.49 -2.74,-0.03 -3.25,-0.12c-0.51,-0.09 -1.73,1.42 -2.35,1.69c-0.63,0.28 -1.41,2.41 -1.75,4.76l-0.84,1.63l-0.55,1.05c-1.52,1.16 -3.21,5.03 -3.7,5.8c-0.5,0.78 -0.89,6.36 -0.89,8.23c0,1.87 1.63,5.84 2.09,6.94c0.46,1.09 3.29,3.51 4.24,4.09c0.94,0.57 4.01,0.65 5.02,0.65c1,-0.01 2.15,-0.96 2.54,-2.13l1.48,0.15l0.68,0.07c0.03,0.82 2.21,1.49 2.75,1.77c0.53,0.3 1.96,0.07 2.39,-0.05c0.42,-0.12 0.9,3.73 0.59,4.84c-0.31,1.11 0.76,5.02 1.07,6.19c0.32,1.18 1.65,4.39 1.79,5.54c0.13,1.16 -0.78,4.99 -0.93,6.33c-0.16,1.35 1.67,5.11 2.15,6.4c0.48,1.29 0.87,4.07 0.87,4.71c0,0.65 1.99,4.53 2.45,6.13c0.46,1.6 5.46,1.99 6.81,1.2" style="fill:#a6dae9;"/><path id="Fill-2847-2" d="M266.037,180.057c0.13,0.28 1.39,-0.72 2.14,-0.83c0.76,-0.12 1.24,-2.15 0.65,-2.29c-0.6,-0.17 -1.35,-1.72 -1.78,-1.91c-0.42,-0.19 -1.25,0.67 -1.22,1.28c0.04,0.62 -1.37,0.87 -1.64,1.38c-0.26,0.51 -0.25,0.88 0.04,0.83c0.29,-0.05 1.68,1.25 1.81,1.54" style="fill:#a6dae9;"/><path id="Fill-2848-2" d="M264.423,191.317c0.37,-0.14 -0.05,-2.14 -0.83,-2.31c-0.79,-0.16 -2.96,2.64 -2.54,4.26c0.41,1.6 0.86,1.51 1.08,1.17c0.23,-0.34 1.52,0.22 1.9,0.34c0.39,0.13 0.39,-0.26 0,-0.85c-0.38,-0.6 0.01,-2.47 0.39,-2.61" style="fill:#a6dae9;"/><path id="Fill-2849-2" d="M259.616,189.368c0.09,-0.71 0.22,-2.95 0.34,-3.39c0.13,-0.45 -1.21,-1.74 -1.87,-1.97c-0.66,-0.23 -2.77,4.36 -4.29,5.17c-1.52,0.82 -2.07,3.61 -1.67,4.26c0.41,0.64 3.57,0.98 4.12,1.47c0.56,0.48 1.17,-0.08 1.5,-0.16c0.34,-0.08 0.23,-0.29 0.11,-0.38c-0.13,-0.08 1.1,-1.38 1.28,-2.21c0.17,-0.82 0.39,-2.08 0.48,-2.79" style="fill:#a6dae9;"/><path id="Fill-2850-2" d="M251.692,197.146c-1.18,-0.45 -2.57,0.24 -2.69,0.71c-0.11,0.45 4.57,1.2 6.13,1.62c1.55,0.42 2.52,0.56 2.17,0.29c-0.36,-0.26 -4.42,-2.17 -5.61,-2.62" style="fill:#a6dae9;"/><path id="Fill-2851-2" d="M261.208,166.502c0.38,-0.52 -0.52,-2.98 -0.98,-2.42c-0.45,0.55 -0.12,1.98 0.03,2.48c0.14,0.49 0.57,0.46 0.95,-0.06" style="fill:#a6dae9;"/><path id="Fill-2852-2" d="M264.116,171.56c0.27,-0.64 -0.34,-1.34 -1.35,-1.55c-1.02,-0.21 -0.87,2.84 -0.42,3.23c0.43,0.38 1.49,-1.05 1.77,-1.68" style="fill:#a6dae9;"/><path id="Fill-2853-2" d="M269.003,190.632c1.22,0.85 3.93,0.46 4,-1.18c-1.19,-0.78 -4.1,-0.65 -4,1.18" style="fill:#a6dae9;"/><path id="Fill-2854-2" d="M268.147,153.41c-0.51,0.35 -0.77,1.25 -0.62,1.62l-0.2,-0.01c-0.41,0 -0.45,1.6 -0.03,1.87c0.42,0.28 1.45,-1.25 1.98,-1.6c0.53,-0.37 1.61,-0.59 1.77,-0.48c0.17,0.12 1.1,-0.16 2.1,-0.62c0.17,-0.08 0.38,-0.35 0.59,-0.72c-0.24,-1.16 -0.52,-2.32 -0.8,-3.47c-0.51,0.37 -1.07,0.78 -1.33,1.01c-0.55,0.48 -2.8,1.95 -3.46,2.4" style="fill:#a6dae9;"/><path id="Fill-2855-2" d="M240.164,186.12l0.01,0c-0.22,-0.15 -0.24,-0.17 -0.01,0" style="fill:#a6dae9;"/><path id="Fill-2856-2" d="M248.53,192.62c-0.43,-1 -1.89,-2.68 -3.22,-3.74l-0.51,-0.83l-0.55,-0.92c-0.5,-1.01 -2,-1.78 -2.13,-2.08c-0.13,-0.3 -0.61,0.87 -1.12,0.53c0.27,0.19 0.83,0.59 1.62,1.15c1.41,1.01 4.12,7.84 4.74,8.31c0.61,0.49 1.61,-1.43 1.17,-2.42" style="fill:#a6dae9;"/><path id="Fill-2857-2" d="M226.041,181.834c-0.38,0.78 2.01,2.41 2.2,2.04c0.19,-0.38 -0.31,-2.27 -0.73,-2.69c-0.43,-0.41 -1.09,-0.11 -1.47,0.65" style="fill:#a6dae9;"/><path id="Fill-2858-2" d="M194.603,217.919c0.09,0.81 1.74,1.46 2.21,1.32c0.48,-0.13 1.81,-2.59 2,-3.29c0.18,-0.71 0.33,-2.23 0.33,-2.59c0,-0.36 0.22,-1.17 0.41,-1.27c0.18,-0.1 0.49,-0.93 0.67,-1.85c0.18,-0.93 -0.99,-5.23 -1.02,-5.99c-0.03,-0.76 -0.88,0.39 -1.1,1.15c-0.23,0.77 -2.37,2.33 -2.85,2.98c-0.47,0.65 -1,2.85 -0.81,3.23c0.18,0.38 -0.19,1.87 -0.4,2.29c-0.22,0.42 0.47,3.21 0.56,4.02" style="fill:#a6dae9;"/><path id="Fill-2859-2" d="M118.003,248.075l1.44,0c0.25,-1.56 -1.52,-1.3 -1.44,0" style="fill:#a6dae9;"/><path id="Fill-2860-2" d="M155.572,85.893c-0.61,0.08 -2.17,-0.23 -2.44,-0.52c-0.27,-0.29 -2.61,-0.55 -3.29,-0.26c-0.67,0.29 -0.21,-1.65 0.73,-1.86c0.94,-0.21 0.14,-1.54 -0.85,-1.54c-1.01,-0.01 -3.48,-0.37 -4.06,-0.24c-0.58,0.12 -1.72,-0.41 -2.13,-0.47c-0.42,-0.06 -3.39,0.89 -4.79,0.82c-1.4,-0.06 -4.86,0.08 -5.6,0.29c-0.75,0.2 -1.29,1.66 -1.18,2.17c0.1,0.53 -3.35,0.52 -4.42,0.53c-1.09,0.01 -6.87,1.25 -8.38,2.08c-1.51,0.82 -2.69,2.95 -2.19,2.99c0.51,0.04 -0.83,1.24 -1.64,1.52c-0.81,0.28 -2.75,0.4 -3.21,0.86c-0.45,0.45 0.48,0.76 0.67,1.07c0.18,0.3 0.72,-0.26 1.23,0.03c0.51,0.29 2.19,0.42 2.64,0.6c0.45,0.17 -1.43,0.53 -2.31,0.59c-0.89,0.06 -0.69,1.8 0.03,2.04c0.72,0.24 2.57,0.5 2.76,0.19c0.19,-0.3 2.21,0.33 3.11,0.44c0.91,0.1 1.6,2.37 1.87,2.86c0.29,0.49 0.34,2.22 0.27,2.72c-0.06,0.5 1.6,1.41 1.91,1.1c0.29,-0.32 0.21,0.78 -0.46,0.72c-0.66,-0.06 -0.23,1.86 0.6,2.14c0.81,0.27 0.25,1.46 -0.22,1.82c-0.47,0.35 -0.22,1.48 -0.71,1.89c-0.48,0.4 1.73,4.23 1.71,6.19c-0.01,1.97 1.22,3.57 1.68,3.57c0.48,0 2.09,0.4 2.3,0.82c0.22,0.42 1,-0.29 1.31,-0.62c0.3,-0.32 0.96,-1.26 1.45,-2.09c0.5,-0.84 1.61,-4.78 1.76,-5.2c0.15,-0.43 2,-0.16 2.42,-0.38c0.42,-0.21 1.63,-1.17 1.98,-1.45c0.34,-0.29 2.98,-1.4 3.71,-1.93c0.71,-0.51 1.91,-2.75 2.48,-3.23c0.55,-0.48 -0.29,-0.34 -1,-0.8c-0.7,-0.46 -0.39,-1.02 -0.18,-1.24c0.2,-0.21 2.33,0.36 3.06,0.64c0.74,0.29 2.13,-0.72 1.6,-1.12c-0.54,-0.38 -0.25,-0.37 0,-0.21c0.26,0.17 0.53,-1.29 0.25,-1.57c-0.28,-0.27 2.16,-2.05 1.73,-3.73c-0.43,-1.68 0.66,-3.4 1.32,-3.42c0.65,-0.02 0.46,-1.9 -0.32,-2.07c-0.79,-0.18 -0.05,-0.35 0.24,-0.62c0.3,-0.26 0.67,-1.94 0.5,-2.26c-0.18,-0.32 1.19,-0.69 1.43,-1.07c0.25,-0.38 1.82,-1.13 2.37,-1.25c0.55,-0.13 0.86,-1.6 0.26,-1.54" style="fill:#a6dae9;"/><path id="Fill-2861-2" d="M169.325,87.046c-0.75,-0.25 -2.26,0.58 -2.07,1.05c0.2,0.47 -1.23,-0.61 -2.22,-0.09c-1,0.52 -1.28,2.26 -0.82,2.49c0.46,0.23 0.79,1.62 0.8,1.89c0.02,0.27 1.94,0.07 2.43,-0.33c0.49,-0.41 0.42,1.41 -0.06,1.9c-0.48,0.49 0.18,1.47 0.72,1.56c0.53,0.07 1.26,1.33 1.81,1.32c0.54,-0.02 1.48,-2.13 1.7,-2.93c0.21,-0.79 2.05,-0.16 2.89,0.09c0.84,0.25 1.14,-2.91 0.23,-3.4c-0.9,-0.47 -2.04,-0.23 -2.41,-0.59c-0.38,-0.37 -1.02,-0.71 -1.45,-0.77c-0.42,-0.06 -0.81,-1.94 -1.55,-2.19" style="fill:#a6dae9;"/><path id="Fill-2862-2" d="M177.33,88.667c1.48,0.21 3.15,-1.01 3.5,-1.35c0.37,-0.35 -4.1,-1.26 -5.79,-1.31c-1.7,-0.05 -3.07,0.18 -3.04,0.52c0.02,0.32 3.85,1.93 5.33,2.14" style="fill:#a6dae9;"/><path id="Fill-2863-2" d="M149.531,128.44c-0.39,-0.16 -0.6,1.3 -0.51,1.86c0.09,0.55 1.45,0.5 2.03,0.41c0.58,-0.1 1.03,-0.57 1.01,-1.06c-0.03,-0.47 -0.86,-2.65 -1.19,-2.65c-0.32,0 -0.95,1.6 -1.34,1.44" style="fill:#a6dae9;"/><path id="Fill-2864-2" d="M154.104,111.538c-0.3,-0.54 -2.62,-0.47 -3.19,-0.51c-0.56,-0.03 -2.3,-0.61 -2.63,-0.98c-0.32,-0.36 -0.58,1.43 -1.1,1.67c-0.54,0.23 0.26,0.57 0.47,0.38c0.22,-0.19 -0.01,0.92 -0.25,1.3c-0.24,0.39 1.54,0.65 1.75,1.24c0.2,0.57 0.94,0.95 1.64,0.84c0.69,-0.12 2.09,-0.84 2.59,-0.89c0.49,-0.05 1.03,-2.52 0.72,-3.05" style="fill:#a6dae9;"/><path id="Fill-2865-2" d="M203.512,98.2c0.8,-0.8 4.08,-1.88 4.45,-2.71c0.37,-0.82 -0.23,-1.49 -0.56,-1.49c-0.34,0 -0.74,0.41 -0.82,0.54c-0.08,0.14 -3.85,1.03 -5,1.58c-1.16,0.56 -2.5,1.42 -2.98,1.91c-0.49,0.49 -1.28,4.22 -1.57,4.64c-0.27,0.42 1.25,1.94 1.94,2.36c0.68,0.42 1.6,0.2 1.87,0.12c0.26,-0.08 -0.35,-2.69 -0.71,-3.6c-0.36,-0.9 2.58,-2.54 3.38,-3.35" style="fill:#a6dae9;"/><path id="Fill-2866-2" d="M199.003,88.907c1.24,1.23 1.92,-0.55 3.28,-0.37c-0.03,-2.5 -3.4,-1.64 -3.28,0.37" style="fill:#a6dae9;"/><path id="Fill-2867-2" d="M223,89.015c-0.04,0.46 3.42,0.83 4.43,0.65c1.02,-0.18 -0.2,-1.76 -1.68,-1.66c-1.48,0.09 -2.71,0.55 -2.75,1.01" style="fill:#a6dae9;"/><path id="Fill-2868-2" d="M98.151,115.054c-0.36,0.34 -0.05,2.04 0.64,2.09c0.7,0.05 1.81,-2.56 2.65,-2.04c0.85,0.52 1.43,0.73 1.29,0.45c-0.15,-0.27 -2.56,-1.34 -2.86,-1.53c-0.3,-0.18 -1.35,0.7 -1.72,1.03" style="fill:#a6dae9;"/><path id="Fill-2869-2" d="M107,172.05c0,0.29 1.52,0.25 1.76,-0.21c0.24,-0.47 0.11,-0.84 -0.29,-0.84c-0.4,0 -1.47,0.76 -1.47,1.05" style="fill:#a6dae9;"/><path id="Fill-2870-2" d="M99.64,170.3c0.72,-0.14 0.37,1.03 0.55,1.45c0.18,0.42 1.91,0.76 2.25,1.04c0.35,0.28 1.25,-0.53 1.94,-0.44c0.69,0.08 -0.23,-2.4 -1.39,-2.33c-1.16,0.08 -2.08,-1.05 -2.35,-1.19c-0.29,-0.12 -1.63,-0.94 -2.02,-1.25c-0.38,-0.31 -3.33,-0.58 -4.34,-0.58c-1.01,0 -2.11,1.03 -2.27,1.37c-0.16,0.34 1.59,0.56 2.09,0.3c0.51,-0.27 2.85,0.29 3.33,0.86c0.48,0.56 1.47,0.91 2.21,0.77" style="fill:#a6dae9;"/><path id="Fill-2871-2" d="M97,172.535c0,0.29 1.53,0.11 1.9,0.12c0.37,0.01 0.35,-0.24 -0.03,-0.55c-0.38,-0.31 -1.87,0.14 -1.87,0.43" style="fill:#a6dae9;"/><path id="Fill-2872-2" d="M97.71,164.026c-0.39,-0.16 -0.71,0.46 -0.71,0.76c0,0.29 0.21,0.53 0.48,0.53c0.27,0 0.63,-1.13 0.23,-1.29" style="fill:#a6dae9;"/><path id="Fill-2873-2" d="M101.294,164.53c-0.14,-0.29 -0.79,-0.53 -0.99,-0.53c-0.19,0 -0.33,0.51 -0.3,1.12c0.04,0.61 1.42,-0.3 1.29,-0.59" style="fill:#a6dae9;"/><path id="Fill-2874-2" d="M102.84,168.23c0.62,-0.29 0.69,-1.03 0.33,-0.99c-0.37,0.04 -1.05,-1.06 -1.45,-1.22c-0.39,-0.16 -0.72,0.66 -0.72,1.02c0,0.36 0.23,0.6 0.5,0.53c0.27,-0.07 0.72,0.95 1.34,0.66" style="fill:#a6dae9;"/><path id="Fill-2875-2" d="M274.06,192.63c-0.32,0.17 -1.86,0.34 -2.06,0.04c-0.2,-0.29 -0.5,0.63 -0.84,0.77c-0.32,0.16 -0.14,0.96 0.35,0.71c0.33,-0.17 1.8,0.64 2.98,1.38c0.23,-1.17 0.44,-2.35 0.63,-3.53c-0.42,0.22 -0.86,0.52 -1.06,0.63" style="fill:#a6dae9;"/><path id="Fill-2876-2" d="M98.3,205.416c-0.15,0.29 1.72,2.21 2.45,2.87c0.73,0.66 2.27,3.8 2.58,4.83c0.32,1.04 0.13,2.72 0.03,3.12c-0.09,0.4 0.35,1.27 0.43,1.64c0.06,0.36 -0.65,3.44 -0.38,4.68c0.28,1.24 -1.45,5.11 -1.41,7.03c0.04,1.93 0.91,4.43 1.27,4.24c0.34,-0.19 0.46,1.75 -0.12,1.98c-0.59,0.24 -1.27,1.77 -0.94,1.84c0.33,0.08 -0.03,1.59 0.07,2.2c0.09,0.6 0.6,4.59 0.71,5.59c0.11,0.99 1.52,3.41 1.82,4.24c0.3,0.82 0.61,2.38 0.72,2.61c0.12,0.25 0.26,0.49 0.28,0.5c0.03,0 1.17,0.43 1.5,0.68c0.34,0.25 2.58,0.09 3.31,-0.06c0.73,-0.15 0.06,-0.82 -0.27,-1.18c-0.33,-0.37 -0.62,-2.14 -1,-2.32c-0.38,-0.17 -0.55,-2.43 -0.21,-2.93c0.34,-0.5 1.67,-1.3 1.82,-1.72c0.14,-0.41 0.18,-2.38 -0.17,-2.65c-0.37,-0.27 0.11,-2.65 -0.17,-3.84c-0.27,-1.18 2.06,-2.26 2.2,-3.2c0.13,-0.94 2.65,-1.95 3.22,-2.42c0.57,-0.47 1.07,-3.16 0.8,-3.74c-0.28,-0.58 0.93,-1.04 1.47,-1.04c0.53,0 1.13,-0.39 1.35,-0.39c0.2,-0.01 0.84,-1.2 1.18,-1.47c0.35,-0.27 1.06,-3.12 1.68,-3.58c0.63,-0.47 1.15,-2.19 1.15,-2.69c0,-0.5 0.95,-2 1.27,-2.45c0.31,-0.45 2.67,-1.53 3.08,-1.7c0.43,-0.17 1.06,-3.95 1.23,-5.31c0.16,-1.36 0.87,-3.17 0.92,-3.62c0.04,-0.44 0.8,-0.83 0.94,-0.97c0.14,-0.14 0.7,-1.87 1.06,-2.27c0.37,-0.39 1.67,-2.04 1.69,-2.41c0.04,-0.37 0.23,-1.32 0.45,-2.11l-0.01,-0.92l0.01,-1.47c-0.41,-1.14 -1.67,-2.57 -1.99,-2.25c-0.33,0.31 -1.79,-1.01 -2.53,-1.29c-0.74,-0.27 -2.59,-0.51 -3.06,-0.51c-0.47,0 -2.09,-1.32 -2.82,-1.55c-0.72,-0.23 -2.57,-0.58 -2.91,-0.8c-0.34,-0.22 -0.8,-2.97 -2.28,-3.87c-1.51,-0.91 -4.12,-3 -4.4,-3.78c-0.29,-0.77 -3.16,-2.38 -4.04,-2.87c-0.88,-0.49 -2.23,-0.61 -2.39,-0.43c-0.18,0.17 -1.27,-1.49 -1.84,-1.97c-0.57,-0.46 -2.29,-0.85 -2.37,-0.43c-0.08,0.42 -1.22,0.2 -1.49,-0.16c-0.26,-0.36 -1.15,0.14 -1.56,0.28c-0.41,0.13 -1.84,2.31 -2.49,2.83c-0.66,0.52 -1.44,-0.48 -1.87,-0.67c-0.44,-0.19 -2.08,0.33 -2.53,0.65c-0.45,0.31 -1.48,-2.31 -1.24,-3.52c0.24,-1.2 -1.08,-3.61 -2.11,-3.66c-1.01,-0.06 -1.33,-2.59 -1.13,-3.52c0.21,-0.93 -1.84,-1.51 -2.35,-1.57c-0.52,-0.07 -1.79,1.24 -2.01,1.87c-0.22,0.63 -4.86,-0.86 -4.31,-3.64c0.54,-2.78 2.74,-5.65 3.29,-6c0.54,-0.34 3.52,-0.5 4.18,-0.13c0.67,0.39 1.26,-0.01 1.37,-0.17c0.11,-0.18 2.55,0.02 3.27,0.32c0.72,0.3 1.77,3.1 2.52,3.45c0.76,0.35 1.03,-1.81 1.15,-2.34c0.12,-0.52 -0.37,-1.86 -0.55,-2.24c-0.19,-0.37 1.21,-3.78 2.35,-4.36c1.13,-0.58 2.33,-2.47 2.24,-2.81c-0.1,-0.33 0.91,-0.59 1.18,-0.74c0.27,-0.13 -0.04,-2.89 0.4,-3.49c0.45,-0.59 2.58,-1.86 3.26,-2.14c0.67,-0.29 1.18,-2.02 0.94,-2.33c-0.25,-0.31 1.74,-2 2.78,-2.33c1.03,-0.32 1.93,0.59 1.67,0.74c0.2,-0.11 1.63,-0.85 2.24,-1.25c0.71,-0.48 0.01,-1.76 -0.45,-2.15c-0.45,-0.37 -0.18,-1.86 0.37,-2c0.55,-0.13 1.03,-1.43 0.88,-1.7c-0.14,-0.29 2.28,0.22 3.2,-0.47c0.91,-0.68 0.26,1.65 -0.41,2.58c-0.67,0.94 0.5,1.83 0.93,1.65c0.43,-0.18 0.9,0.49 0.98,0.76c0.09,0.26 1.02,-0.28 1.63,-0.01c0.61,0.27 0.97,-0.84 1.02,-1.34c0.05,-0.51 -1.46,-1.57 -1.69,-2.18c-0.24,-0.61 -0.34,-4.16 -0.37,-4.89c-0.03,-0.73 -1.01,-1.91 -1.33,-1.69c-0.3,0.2 -0.94,-1.89 -1.45,-2.35c-0.51,-0.45 -0.63,-1.46 -0.61,-1.8c0.03,-0.33 -1.71,-2.15 -2.14,-3c-0.41,-0.84 -1,-0.66 -1.04,-0.28c-0.04,0.39 -1.25,0.44 -1.74,0.39c-0.51,-0.04 -0.91,-1.97 -0.91,-2.69c0,-0.73 -2.25,-0.85 -2.62,-1.44c-0.36,-0.58 -1.83,-0.31 -2.06,-0.71c-0.23,-0.41 -1.53,-0.78 -1.78,-0.63c-0.27,0.15 -0.14,5.36 -0.39,6.77c-0.25,1.41 -1.44,2.64 -1.88,2.61c-0.43,-0.03 -0.17,1 0.13,0.91c0.31,-0.09 -0.84,1.54 -1,2.61c-0.15,1.06 -1.23,-0.05 -1.41,-1.02c-0.17,-0.97 -1.23,-2.28 -1.43,-1.95c-0.2,0.33 -0.94,-0.4 -1.25,-0.19c-0.31,0.21 -2.32,-1.16 -3.13,-1.61c-0.8,-0.42 -1.26,-2.91 -1.73,-3.12c-0.46,-0.23 -0.07,-0.52 -0.08,-0.9c-0.02,-0.38 1.56,-1.82 2.04,-2.39c0.47,-0.57 2.21,-2.83 2.9,-3.31c0.69,-0.5 1.23,-1.78 1.1,-2.02c-0.11,-0.24 2.95,-1.19 3.78,-1.48c0.83,-0.28 1.54,-2.59 1.65,-3.26c0.12,-0.66 -0.52,-1.92 -0.9,-2.08c-0.39,-0.17 1.16,-0.23 1.67,0.03c0.51,0.25 2.09,-0.47 2.72,-0.14c0.61,0.33 1.87,1.08 2.79,1.65l-0.21,1.7l-0.36,2.88c-2.42,1 -3.11,2.73 -2.26,2.69c0.84,-0.04 4.69,1.67 5.78,2.45c1.09,0.78 1.44,-1.13 1.76,-1.77c0.32,-0.62 0.21,-2.47 -0.05,-2.84c-0.26,-0.36 1.26,-0.23 1.68,0.18c0.44,0.4 0.94,-0.43 1.27,-0.57c0.32,-0.15 0.49,-1.73 0.66,-2.05c0.18,-0.32 -0.71,-0.65 -0.74,-1.04c-0.03,-0.4 -1.76,-1.15 -2.32,-1.42c-0.57,-0.27 -0.7,-1.46 -0.42,-1.67c0.27,-0.21 -0.19,-1.73 -0.47,-2.23c-0.28,-0.5 -2.08,-0.91 -2.69,-0.91c-0.6,0 -1.22,-1.4 -1.57,-1.6c-0.35,-0.2 -2.67,-0.46 -3.24,-0.29c-0.58,0.17 -1.63,-1.65 -2.6,-1.09c-0.97,0.55 -1.97,-0.65 -2.41,-0.89c-0.44,-0.24 -2.71,2.2 -2.68,3.91c0.02,1.72 0.87,3.37 1.23,3.42c0.36,0.04 -0.08,1.59 -0.48,2.03c-0.38,0.44 -1.34,-0.46 -0.98,-0.85c0.36,-0.39 -0.98,-2.18 -1.45,-2.91c-0.33,-0.53 -1.51,-0.99 -2.31,-1.31c-0.46,0.5 -0.92,1.02 -1.37,1.54c0.17,0.62 0.38,1.43 0.18,2.05c-0.34,1.04 -1.21,1.2 -1.27,0.75c-0.02,-0.2 -0.46,-0.35 -0.98,-0.43c-0.47,0.57 -0.93,1.16 -1.39,1.74c-0.45,0.56 -0.9,1.13 -1.35,1.71c-0.47,0.62 -0.94,1.24 -1.39,1.87c-0.42,0.57 -0.82,1.14 -1.22,1.71c-0.6,0.85 -1.18,1.71 -1.76,2.58c-0.54,0.83 -1.09,1.67 -1.61,2.52c-0.45,0.72 -0.88,1.47 -1.31,2.2c-0.3,0.51 -0.6,1.03 -0.89,1.54c-0.43,0.78 -0.86,1.56 -1.28,2.34c-0.23,0.45 -0.46,0.9 -0.68,1.35c-0.95,1.85 -1.85,3.73 -2.69,5.65l-0.07,0.16c-0.41,0.94 -0.8,1.89 -1.18,2.85c-0.15,0.36 -0.29,0.73 -0.43,1.09c-0.38,0.98 -0.75,1.97 -1.1,2.97c-0.06,0.16 -0.12,0.33 -0.17,0.5c-1.16,3.34 -2.15,6.75 -2.97,10.23c-0.06,0.24 -0.11,0.47 -0.16,0.7c-0.83,3.61 -1.47,7.28 -1.9,11.01l-0.02,0.07c0.51,0.58 1.08,1.27 1.24,1.76c0.28,0.91 1.88,1.52 2.18,1.71c0.3,0.18 0.41,-1.76 0.19,-2.27c-0.2,-0.5 0.39,-0.81 0.38,-0.44c-0.02,0.38 1.51,2.09 2,2.71c0.5,0.62 1.02,4.62 1.5,5.47c0.47,0.86 5.09,2.64 6.58,2.95c1.48,0.32 3.35,1.98 3.65,2.46c0.28,0.48 2.26,0.72 2.68,0.91c0.43,0.19 1.44,1.53 1.86,1.81c0.42,0.28 0.75,1.08 0.75,1.29c0,0.21 2.61,1.2 3.24,1.89c0.63,0.7 1.67,0.51 1.87,0.22c0.2,-0.3 0.71,1.38 0.98,1.96c0.27,0.58 0.33,2.01 0.13,2.23c-0.2,0.22 -0.58,2.85 -1.02,3.37c-0.45,0.53 -1.37,4.34 -1.17,5.09c0.2,0.75 1.42,2.31 1.95,2.54c0.53,0.23 0.31,1.04 -0.11,1.1c-0.42,0.05 -0.22,3.69 0.76,4.23c0.98,0.54 1.8,2.15 1.66,2.42" style="fill:#d1ecfb;"/><path id="Fill-2878-2" d="M104.01,97.43c1.25,-0.21 3.34,-0.56 3.48,-0.91c0.11,-0.29 0.12,-1.15 -0.12,-1.45c0.2,0.01 0.44,0.02 0.62,0.02c0.47,0 1.26,-2.61 1.77,-3.22c0.5,-0.61 3.37,-1.51 4.05,-1.92c0.68,-0.42 2.18,-1.86 2.76,-2.02c0.57,-0.18 1.41,-1.51 1.28,-1.79c-0.13,-0.26 1.94,-1.52 2.73,-1.85c0.78,-0.34 1.19,-1.26 0.89,-1.29c-0.18,-0.03 -4.56,2.26 -8.57,4.54l-0.11,0.08c-1.15,0.78 -2.28,1.59 -3.4,2.41c-0.75,0.56 -1.49,1.15 -2.23,1.73c-0.4,0.31 -0.79,0.61 -1.18,0.93c-0.88,0.71 -1.75,1.44 -2.61,2.18c-0.18,0.15 -0.36,0.31 -0.54,0.47c-0.96,0.83 -1.9,1.68 -2.83,2.55c1.25,-0.09 3.18,-0.32 4.01,-0.46" style="fill:#d1ecfb;"/><path id="Fill-2879-2" d="M170.122,148.8c-0.49,-0.02 -0.51,1.48 0.01,1.65c0.37,0.11 0.85,-0.84 1.29,-1.47l0,-5.84l-0.12,-0.13c-0.62,-0.63 -0.52,-0.64 0.12,-0.16l0,-35.85c-0.53,0.49 -1.05,0.96 -1.38,1.21c-0.85,0.68 -2.35,3.59 -2.83,4.29c-0.5,0.69 -1.2,0.82 -1.49,0.84c-0.28,0.01 -0.52,0.79 -0.52,1.08c0,0.28 -2.53,1.6 -2.79,2.75c-0.27,1.16 0.24,3.79 0.24,4.72c0,0.94 0.94,2.79 1.65,2.82c0.7,0.03 0.33,1.59 0.15,2.02c-0.18,0.44 0.44,0.92 0.42,1.29c-0.02,0.38 -1.78,0.9 -2.32,1.11c-0.55,0.2 -1.43,1.43 -1.54,1.89c-0.1,0.39 -1.8,0.68 -2.35,1.21c0.14,-0.38 0.32,-0.92 0.48,-1.22c0.32,-0.62 -0.13,-1.69 -0.39,-1.9c-0.27,-0.23 -0.39,-3.28 -0.82,-3.93c-0.43,-0.65 -1.5,-1.76 -1.76,-1.98c-0.26,-0.21 0.19,-1.01 0.34,-1.36c0.15,-0.33 -1.42,-0.53 -1.85,-0.28c-0.43,0.26 -0.67,3.27 -0.85,4.1c-0.18,0.82 0.78,2.09 1.04,2.15c0.26,0.06 0.19,1.55 -0.36,1.6c-0.56,0.05 -1.06,2.22 -0.78,2.71c0.29,0.5 -0.39,1.47 -0.72,1.7c-0.33,0.22 2.12,0.09 3.24,0.06c1.11,-0.03 1.99,0.47 1.87,0.56c-0.12,0.1 -2.14,0.39 -2.5,0.87c-0.35,0.48 -1.73,1.4 -2,1.77c-0.26,0.37 0.46,1.18 1.04,1.14c0.58,-0.03 1.24,2.01 1.69,2.39c0.46,0.38 0.29,1.44 0.09,1.73c-0.2,0.29 -2.93,-0.19 -3.97,0.06c-1.04,0.26 -2.35,2.45 -2.43,3.28c-0.1,0.83 0.16,3.21 0.3,3.87c0.13,0.65 2.3,1.06 2.74,1.39c0.45,0.31 2.52,0 2.96,0.21c0.42,0.2 1.83,-2.11 2.1,-3.18c0.27,-1.08 2.49,-3.04 2.95,-3.78c0.46,-0.73 2.85,-0.64 3.44,-1.02c0.59,-0.38 0.26,1.81 0.54,3.01c0.29,1.21 2.57,1.06 2.23,-0.08c-0.33,-1.12 0.23,-1.61 0.32,-1.21c0.09,0.41 2.29,1.31 2.71,1.94c0.41,0.64 0.29,1.99 -0.19,1.97" style="fill:#d1ecfb;"/><path id="Fill-2880-2" d="M170.81,156.175c-0.45,-0.23 -0.87,-0.44 -1.19,-0.58c-1.35,-0.57 -2.41,-2.63 -2.68,-2.89c-0.28,-0.28 0.22,-0.94 0.1,-1.34c-0.13,-0.41 -3.21,-0.49 -4.1,-0.16c-0.9,0.33 -5.52,0.81 -6.61,1.29c-1.1,0.49 -2.74,-0.03 -3.25,-0.12c-0.51,-0.09 -1.73,1.42 -2.35,1.69c-0.63,0.28 -1.41,2.41 -1.75,4.76l-0.84,1.63l-0.55,1.05c-1.52,1.16 -3.21,5.03 -3.7,5.8c-0.5,0.78 -0.89,6.36 -0.89,8.23c0,1.87 1.63,5.84 2.09,6.94c0.46,1.09 3.29,3.51 4.24,4.09c0.94,0.57 4.01,0.65 5.02,0.65c1,-0.01 2.15,-0.96 2.54,-2.13l1.48,0.15l0.68,0.07c0.03,0.82 2.21,1.49 2.75,1.77c0.53,0.3 1.96,0.07 2.39,-0.05c0.42,-0.12 0.9,3.73 0.59,4.84c-0.31,1.11 0.76,5.02 1.07,6.19c0.32,1.18 1.65,4.39 1.79,5.54c0.13,1.16 -0.78,4.99 -0.93,6.33c-0.16,1.35 1.67,5.11 2.15,6.4c0.48,1.29 0.87,4.07 0.87,4.71c0,0.33 0.51,1.49 1.08,2.77l0,-67.63" style="fill:#d1ecfb;"/><path id="Fill-2881-2" d="M118.003,248.075l1.44,0c0.25,-1.56 -1.52,-1.3 -1.44,0" style="fill:#d1ecfb;"/><path id="Fill-2882-2" d="M146.192,104.753c0.74,0.29 2.13,-0.72 1.6,-1.12c-0.54,-0.38 -0.25,-0.37 0,-0.21c0.26,0.17 0.53,-1.29 0.25,-1.57c-0.28,-0.27 2.16,-2.05 1.73,-3.73c-0.43,-1.68 0.66,-3.4 1.32,-3.42c0.65,-0.02 0.46,-1.9 -0.32,-2.07c-0.79,-0.18 -0.05,-0.35 0.24,-0.62c0.3,-0.26 0.67,-1.94 0.5,-2.26c-0.18,-0.32 1.19,-0.69 1.43,-1.07c0.25,-0.38 1.82,-1.13 2.37,-1.25c0.55,-0.13 0.86,-1.6 0.26,-1.54c-0.61,0.08 -2.17,-0.23 -2.44,-0.52c-0.27,-0.29 -2.61,-0.55 -3.29,-0.26c-0.67,0.29 -0.21,-1.65 0.73,-1.86c0.94,-0.21 0.14,-1.54 -0.85,-1.54c-1.01,-0.01 -3.48,-0.37 -4.06,-0.24c-0.58,0.12 -1.72,-0.41 -2.13,-0.47c-0.42,-0.06 -3.39,0.89 -4.79,0.82c-1.4,-0.06 -4.86,0.08 -5.6,0.29c-0.75,0.2 -1.29,1.66 -1.18,2.17c0.1,0.53 -3.35,0.52 -4.42,0.53c-1.09,0.01 -6.87,1.25 -8.38,2.08c-1.51,0.82 -2.69,2.95 -2.19,2.99c0.51,0.04 -0.83,1.24 -1.64,1.52c-0.81,0.28 -2.75,0.4 -3.21,0.86c-0.45,0.45 0.48,0.76 0.67,1.07c0.18,0.3 0.72,-0.26 1.23,0.03c0.51,0.29 2.19,0.42 2.64,0.6c0.45,0.17 -1.43,0.53 -2.31,0.59c-0.89,0.06 -0.69,1.8 0.03,2.04c0.72,0.24 2.57,0.5 2.76,0.19c0.19,-0.3 2.21,0.33 3.11,0.44c0.91,0.1 1.6,2.37 1.87,2.86c0.29,0.49 0.34,2.22 0.27,2.72c-0.06,0.5 1.6,1.41 1.91,1.1c0.29,-0.32 0.21,0.78 -0.46,0.72c-0.66,-0.06 -0.23,1.86 0.6,2.14c0.81,0.27 0.25,1.46 -0.22,1.82c-0.47,0.35 -0.22,1.48 -0.71,1.89c-0.48,0.4 1.73,4.23 1.71,6.19c-0.01,1.97 1.22,3.57 1.68,3.57c0.48,0 2.09,0.4 2.3,0.82c0.22,0.42 1,-0.29 1.31,-0.62c0.3,-0.32 0.96,-1.26 1.45,-2.09c0.5,-0.84 1.61,-4.78 1.76,-5.2c0.15,-0.43 2,-0.16 2.42,-0.38c0.42,-0.21 1.63,-1.17 1.98,-1.45c0.34,-0.29 2.98,-1.4 3.71,-1.93c0.71,-0.51 1.91,-2.75 2.48,-3.23c0.55,-0.48 -0.29,-0.34 -1,-0.8c-0.7,-0.46 -0.39,-1.02 -0.18,-1.24c0.2,-0.21 2.33,0.36 3.06,0.64" style="fill:#d1ecfb;"/><path id="Fill-2883-2" d="M169.325,87.046c-0.75,-0.25 -2.26,0.58 -2.07,1.05c0.2,0.47 -1.23,-0.61 -2.22,-0.09c-1,0.52 -1.28,2.26 -0.82,2.49c0.46,0.23 0.79,1.62 0.8,1.89c0.02,0.27 1.94,0.07 2.43,-0.33c0.49,-0.41 0.42,1.41 -0.06,1.9c-0.48,0.49 0.18,1.47 0.72,1.56c0.53,0.07 1.26,1.33 1.81,1.32c0.27,-0.01 0.64,-0.55 0.98,-1.18l0,-6.42l-0.01,0c-0.43,-0.06 -0.82,-1.94 -1.56,-2.19" style="fill:#d1ecfb;"/><path id="Fill-2884-2" d="M151.051,130.71c0.58,-0.1 1.03,-0.57 1.01,-1.06c-0.03,-0.47 -0.86,-2.65 -1.19,-2.65c-0.32,0 -0.95,1.6 -1.34,1.44c-0.39,-0.16 -0.6,1.3 -0.51,1.86c0.09,0.55 1.45,0.5 2.03,0.41" style="fill:#d1ecfb;"/><path id="Fill-2885-2" d="M149.154,114.638c0.2,0.57 0.94,0.95 1.64,0.84c0.69,-0.12 2.09,-0.84 2.59,-0.89c0.49,-0.05 1.03,-2.52 0.72,-3.05c-0.3,-0.54 -2.62,-0.47 -3.19,-0.51c-0.56,-0.03 -2.3,-0.61 -2.63,-0.98c-0.32,-0.36 -0.58,1.43 -1.1,1.67c-0.54,0.23 0.26,0.57 0.47,0.38c0.22,-0.19 -0.01,0.92 -0.25,1.3c-0.24,0.39 1.54,0.65 1.75,1.24" style="fill:#d1ecfb;"/><path id="Fill-2886-2" d="M98.151,115.054c-0.36,0.34 -0.05,2.04 0.64,2.09c0.7,0.05 1.81,-2.56 2.65,-2.04c0.85,0.52 1.43,0.73 1.29,0.45c-0.15,-0.27 -2.56,-1.34 -2.86,-1.53c-0.3,-0.18 -1.35,0.7 -1.72,1.03" style="fill:#d1ecfb;"/><path id="Fill-2887-2" d="M107,172.05c0,0.29 1.52,0.25 1.76,-0.21c0.24,-0.47 0.11,-0.84 -0.29,-0.84c-0.4,0 -1.47,0.76 -1.47,1.05" style="fill:#d1ecfb;"/><path id="Fill-2888-2" d="M99.64,170.3c0.72,-0.14 0.37,1.03 0.55,1.45c0.18,0.42 1.91,0.76 2.25,1.04c0.35,0.28 1.25,-0.53 1.94,-0.44c0.69,0.08 -0.23,-2.4 -1.39,-2.33c-1.16,0.08 -2.08,-1.05 -2.35,-1.19c-0.29,-0.12 -1.63,-0.94 -2.02,-1.25c-0.38,-0.31 -3.33,-0.58 -4.34,-0.58c-1.01,0 -2.11,1.03 -2.27,1.37c-0.16,0.34 1.59,0.56 2.09,0.3c0.51,-0.27 2.85,0.29 3.33,0.86c0.48,0.56 1.47,0.91 2.21,0.77" style="fill:#d1ecfb;"/><path id="Fill-2889-2" d="M97,172.535c0,0.29 1.53,0.11 1.9,0.12c0.37,0.01 0.35,-0.24 -0.03,-0.55c-0.38,-0.31 -1.87,0.14 -1.87,0.43" style="fill:#d1ecfb;"/><path id="Fill-2890-2" d="M97.71,164.026c-0.39,-0.16 -0.71,0.46 -0.71,0.76c0,0.29 0.21,0.53 0.48,0.53c0.27,0 0.63,-1.13 0.23,-1.29" style="fill:#d1ecfb;"/><path id="Fill-2891-2" d="M101.294,164.53c-0.14,-0.29 -0.79,-0.53 -0.99,-0.53c-0.19,0 -0.33,0.51 -0.3,1.12c0.04,0.61 1.42,-0.3 1.29,-0.59" style="fill:#d1ecfb;"/><path id="Fill-2892-2" d="M102.84,168.23c0.62,-0.29 0.69,-1.03 0.33,-0.99c-0.37,0.04 -1.05,-1.06 -1.45,-1.22c-0.39,-0.16 -0.72,0.66 -0.72,1.02c0,0.36 0.23,0.6 0.5,0.53c0.27,-0.07 0.72,0.95 1.34,0.66" style="fill:#d1ecfb;"/><path id="Fill-2893-2" d="M107.392,96.019c-0.1,-0.1 -0.54,0.21 -0.34,0.41c0.09,0.13 0.52,-0.19 0.34,-0.41" style="fill:#ade2dc;"/><path id="Fill-2894-2" d="M118.402,130.029c-0.09,-0.13 -0.54,0.21 -0.36,0.41c0.1,0.12 0.55,-0.2 0.36,-0.41" style="fill:#ade2dc;"/><g id="trail"><path id="Fill-2895-2" d="M72.823,269.014c-12.72,0 -22.33,-3.6 -28.09,-10.75c-12.21,-15.16 -4.66,-44.67 20.19,-78.93c0.33,-0.46 0.97,-0.56 1.42,-0.23c0.46,0.33 0.56,0.97 0.23,1.43c-24.28,33.47 -31.85,62.05 -20.25,76.45c19.89,24.71 88.92,2.25 153.88,-50.06c72.96,-58.75 107.99,-120.76 116.99,-138.37c0.26,-0.5 0.87,-0.7 1.37,-0.44c0.5,0.25 0.7,0.87 0.45,1.37c-9.05,17.7 -44.26,80.02 -117.54,139.03c-31.77,25.59 -65.49,44.89 -94.94,54.35c-12.78,4.11 -24.13,6.15 -33.71,6.15" style="fill:#fff;"/><path id="Fill-2896-2" d="M73.087,256.838c-9.39,0 -16.58,-2.6 -21.12,-7.81c-9.78,-11.21 -4.98,-34.49 13.18,-63.87c0.27,-0.44 0.84,-0.57 1.27,-0.3c0.44,0.27 0.58,0.84 0.31,1.27c-17.44,28.22 -22.44,51.28 -13.36,61.68c18.16,20.82 81.71,-4.81 141.66,-57.12c67.33,-58.75 99.82,-117.55 108.17,-134.17c0.23,-0.46 0.78,-0.65 1.25,-0.42c0.46,0.23 0.64,0.79 0.41,1.25c-8.39,16.7 -41.02,75.77 -108.61,134.74c-29.3,25.57 -60.37,45.61 -87.47,56.42c-13.92,5.55 -25.98,8.33 -35.69,8.33" style="fill:#fff;"/></g><g id="spaceship"><path id="Fill-2897-2" d="M301.9,80.753c10.99,7.82 15.52,21.34 12.42,33.69c3.22,-2.11 6.12,-4.84 8.48,-8.17c10.19,-14.33 6.83,-34.2 -7.49,-44.38c-14.33,-10.19 -34.2,-6.83 -44.38,7.49c-2.37,3.33 -4,6.96 -4.93,10.7c10.64,-6.98 24.9,-7.15 35.9,0.67" style="fill:#2c5871;"/><path id="Fill-2898-2" d="M321.42,68l-13.42,18.87c6.53,7.84 8.87,18.34 6.42,28.11c3.22,-2.11 6.12,-4.84 8.48,-8.17c8.56,-12.04 7.56,-27.99 -1.48,-38.81" style="fill:#0e303f;"/><path id="Fill-2899-2" d="M300.16,84.15c3.19,2.27 5.91,4.96 8.14,7.93c10.46,-5.63 21,-14.98 29.69,-27.21c13.81,-19.42 19.25,-40.87 15.61,-55.87c-15.37,1.48 -33.85,13.67 -47.66,33.09c-8.69,12.22 -14.06,25.25 -15.94,36.97c3.54,1.14 6.97,2.83 10.16,5.09" style="fill:#f95360;"/><path id="Fill-2900-2" d="M353.54,9l-0.15,0.02l-53.39,75.07l0.1,0.06c3.19,2.27 5.91,4.96 8.14,7.93c10.46,-5.63 21,-14.98 29.69,-27.21c13.81,-19.42 19.25,-40.87 15.61,-55.87" style="fill:#e61a4b;"/><path id="Fill-2901-2" d="M340.1,27.38c4.03,2.87 7.88,5.82 11.55,8.81c2.85,-10 3.41,-19.46 1.53,-27.19c-7.93,0.76 -16.68,4.39 -25.18,10.37c4.03,2.48 8.08,5.15 12.1,8.01" style="fill:#2c5871;"/><path id="Fill-2902-2" d="M353.02,9.01l-13.02,18.31l0.09,0.06c4.03,2.87 7.88,5.82 11.55,8.81c2.85,-10 3.41,-19.46 1.53,-27.19l-0.15,0.01" style="fill:#0e303f;"/><path id="Fill-2903-2" d="M316.32,61c-4.48,1.98 -10.85,7.98 -16.6,16.06c-5.74,8.07 -9.31,16.06 -9.72,20.94c4.49,-1.98 10.86,-7.98 16.6,-16.05c5.74,-8.08 9.32,-16.07 9.72,-20.95" style="fill:#2c5871;"/><path id="Fill-2904-2" d="M316.1,61.1l-26.07,36.67l-0.03,0.23c4.49,-1.98 10.86,-7.98 16.6,-16.05c5.74,-8.08 9.32,-16.07 9.72,-20.95l-0.22,0.1" style="fill:#0e303f;"/><path id="Fill-2905-2" d="M321.642,54.049c-4.97,-3.53 -6.13,-10.44 -2.6,-15.41c3.53,-4.96 10.44,-6.13 15.4,-2.6c4.97,3.53 6.14,10.44 2.61,15.41c-3.54,4.96 -10.45,6.13 -15.41,2.6" style="fill:#174f78;"/><path id="Fill-2906-2" d="M332.126,38.416c-3.45,-2.45 -8.25,-1.64 -10.71,1.81c-2.45,3.45 -1.64,8.25 1.81,10.7c3.45,2.45 8.25,1.65 10.71,-1.81c2.45,-3.45 1.64,-8.25 -1.81,-10.7" style="fill:#fff;"/><path id="Fill-2907-2" d="M334.89,36.06l-0.09,-0.06l-1.95,2.75l0.09,0.06c3.45,2.45 4.26,7.25 1.81,10.7c-2.46,3.46 -7.26,4.26 -10.71,1.81l-0.09,-0.07l-1.95,2.75l0.09,0.07c4.96,3.53 11.87,2.36 15.41,-2.6c3.53,-4.97 2.36,-11.88 -2.61,-15.41" style="fill:#103754;"/><path id="Fill-2908-2" d="M333.8,48.76c2.45,-3.45 1.64,-8.25 -1.81,-10.7l-0.09,-0.06l-8.9,12.5l0.09,0.07c3.45,2.45 8.25,1.65 10.71,-1.81" style="fill:#d1ecfb;"/></g><path id="Fill-2909-2" d="M223.45,34l-1.34,8.11l-8.11,1.33l8.11,1.33l1.34,8.12l1.33,-8.12l8.11,-1.33l-8.11,-1.33l-1.33,-8.11" style="fill:#ccc;"/><path id="Fill-2910-2" d="M60.45,88l-1.34,8.11l-8.11,1.34l8.11,1.33l1.34,8.11l1.32,-8.11l8.11,-1.33l-8.11,-1.34l-1.32,-8.11" style="fill:#fff;"/><path id="Fill-2911-2" d="M248.91,27l-0.7,4.21l-4.21,0.7l4.21,0.69l0.7,4.22l0.69,-4.22l4.21,-0.69l-4.21,-0.7l-0.69,-4.21" style="fill:#ccc;"/><path id="Fill-2912-2" d="M316.45,154l-1.34,8.12l-8.11,1.33l8.11,1.33l1.34,8.11l1.33,-8.11l8.11,-1.33l-8.11,-1.33l-1.33,-8.12" style="fill:#ccc;"/><path id="Fill-2913-2" d="M300.9,199l-0.69,4.21l-4.21,0.7l4.21,0.69l0.69,4.22l0.69,-4.22l4.22,-0.69l-4.22,-0.7l-0.69,-4.21" style="fill:#fff;"/><path id="Fill-2914-2" d="M46.9,130l-0.69,4.21l-4.21,0.7l4.21,0.69l0.69,4.22l0.7,-4.22l4.21,-0.69l-4.21,-0.7l-0.7,-4.21" style="fill:#ccc;"/><path id="Fill-2915-2" d="M335.45,242l-1.34,8.12l-8.11,1.33l8.11,1.33l1.34,8.12l1.33,-8.12l8.11,-1.33l-8.11,-1.33l-1.33,-8.12" style="fill:#fff;"/><path id="Fill-2916-2" d="M88.45,0l-1.34,8.11l-8.11,1.33l8.11,1.33l1.34,8.12l1.33,-8.12l8.11,-1.33l-8.11,-1.33l-1.33,-8.11" style="fill:#fff;"/><path id="Fill-2917-2" d="M124.91,37l-0.7,4.22l-4.21,0.69l4.21,0.7l0.7,4.21l0.69,-4.21l4.21,-0.7l-4.21,-0.69l-0.69,-4.22" style="fill:#ccc;"/></g></svg>
