<?xml version="1.0" encoding="UTF-8"?>
<svg width="60" height="60" version="1.1" viewBox="0 0 24 24" xmlns="http://www.w3.org/2000/svg" xmlns:xlink="http://www.w3.org/1999/xlink">
    <!--Generated by IJSVG (https://github.com/curthard89/IJSVG)-->
    <path fill="#000000" d="M12,0c-6.617,0 -12,5.383 -12,12c0,6.617 5.383,12 12,12c6.617,0 12,-5.383 12,-12c0,-6.617 -5.383,-12 -12,-12Zm5.942,10.748c-0.088,0.156 -0.254,0.252 -0.433,0.252h-4.056l-0.35,0.349l-0.652,0.651h3.604c0.276,0 0.5,0.224 0.5,0.5c0,0.276 -0.224,0.5 -0.5,0.5h-4.604l-1,1h4.104c0.207,0 0.392,0.127 0.466,0.32c0.075,0.192 0.023,0.411 -0.13,0.55c-1.715,1.559 -3.846,2.49 -5.7,2.49c-0.681,0 -1.269,-0.137 -1.711,-0.389l-1.296,1.296c-0.196,0.196 -0.512,0.195 -0.707,0c-0.195,-0.195 -0.195,-0.512 0,-0.708l1.303,-1.303c-0.437,-0.767 -0.403,-1.923 0.122,-3.332c0.59,-1.585 1.707,-3.25 3.145,-4.688c1.55,-1.551 3.23,-2.663 4.286,-3.186c0.155,-0.077 0.339,-0.068 0.486,0.023c0.147,0.091 0.236,0.252 0.236,0.425v2.477l2.544,-2.55c0.188,-0.188 0.521,-0.188 0.708,0c1.068,1.073 0.932,3.062 -0.365,5.323Z"></path>
    <path fill="none" d="M0,0h24v24h-24Z"></path>
</svg>