<?xml version="1.0" encoding="UTF-8" standalone="no"?>
<svg width="369px" height="366px" viewBox="0 0 369 366" version="1.1" xmlns="http://www.w3.org/2000/svg" xmlns:xlink="http://www.w3.org/1999/xlink" xmlns:sketch="http://www.bohemiancoding.com/sketch/ns">
    <!-- Generator: Sketch 3.1 (8751) - http://www.bohemiancoding.com/sketch -->
    <title>Slice 2</title>
    <desc>Created with Sketch.</desc>
    <defs></defs>
    <g id="Page-1" stroke="none" stroke-width="1" fill="none" fill-rule="evenodd" sketch:type="MSPage">
        <path d="M181.16,365.34 C81.11,365.34 0,284.23 0,184.17 C0,84.11 81.11,3 181.16,3 C281.22,3 362.34,84.11 362.34,184.17 C362.34,284.23 281.22,365.34 181.16,365.34" id="Fill-2837-2" fill="#E6E6E6" sketch:type="MSShapeGroup"></path>
        <path d="M181.17,318.34 C107.07,318.34 47,258.27 47,184.17 C47,110.07 107.07,50 181.17,50 C255.27,50 315.34,110.07 315.34,184.17 C315.34,258.27 255.27,318.34 181.17,318.34" id="Fill-2838-2" fill="#D9D9D9" sketch:type="MSShapeGroup"></path>
        <path d="M364.5,95 L363.86,98.87 L360,99.51 L363.86,100.14 L364.5,104.01 L365.13,100.14 L369,99.51 L365.13,98.87 L364.5,95" id="Fill-2839-2" fill="#CCCCCC" sketch:type="MSShapeGroup"></path>
        <path d="M171,279.63 C228.79,279.63 275.81,232.62 275.81,174.82 C275.81,117.03 228.79,70 171,70" id="Fill-2840-2" fill="#1695A4" sketch:type="MSShapeGroup"></path>
        <path d="M170.83,70 C113.03,70 66,117.03 66,174.82 C66,232.62 113.03,279.63 170.83,279.63" id="Fill-2841-2" fill="#14B0BF" sketch:type="MSShapeGroup"></path>
        <path d="M271.89,203.001962 C270.51,203.031962 268.72,203.681962 268.69,204.151962 C268.66,204.631962 266.76,205.481962 266.13,205.741962 C265.5,205.991962 264.28,207.941962 264.01,208.571962 C263.75,209.221962 262.19,209.021962 261.62,209.281962 C261.04,209.541962 259.86,210.491962 259.85,211.061962 C259.85,211.631962 259.53,211.571962 259.14,210.921962 C259.14,210.921962 259.14,210.921962 258.39,211.721962 L257.49,212.711962 C256.98,214.321962 255.27,216.351962 254.69,216.531962 C254.1,216.691962 254,219.521962 254,220.651962 C254,221.801962 254.44,223.201962 254.98,223.781962 C254.98,223.781962 254.98,223.781962 255.1,224.691962 L255.3,226.491962 C254.98,227.881962 256.05,229.121962 256.35,229.371962 C256.66,229.611962 259.25,228.901962 260.24,228.661962 C260.65,228.561962 261.17,228.341962 261.66,228.091962 C266.29,220.341962 269.93,211.931962 272.45,203.051962 C272.25,203.021962 272.06,202.991962 271.89,203.001962" id="Fill-2842-2" fill="#A6DAE9" sketch:type="MSShapeGroup"></path>
        <path d="M98.3,205.416439 C98.15,205.706439 100.02,207.626439 100.75,208.286439 C101.48,208.946439 103.02,212.086439 103.33,213.116439 C103.65,214.156439 103.46,215.836439 103.36,216.236439 C103.27,216.636439 103.71,217.506439 103.79,217.876439 C103.85,218.236439 103.14,221.316439 103.41,222.556439 C103.69,223.796439 101.96,227.666439 102,229.586439 C102.04,231.516439 102.91,234.016439 103.27,233.826439 C103.61,233.636439 103.73,235.576439 103.15,235.806439 C102.56,236.046439 101.88,237.576439 102.21,237.646439 C102.54,237.726439 102.18,239.236439 102.28,239.846439 C102.37,240.446439 102.88,244.436439 102.99,245.436439 C103.1,246.426439 104.51,248.846439 104.81,249.676439 C105.11,250.496439 105.42,252.056439 105.53,252.286439 C105.65,252.536439 105.79,252.776439 105.81,252.786439 C105.84,252.786439 106.98,253.216439 107.31,253.466439 C107.65,253.716439 109.89,253.556439 110.62,253.406439 C111.35,253.256439 110.68,252.586439 110.35,252.226439 C110.02,251.856439 109.73,250.086439 109.35,249.906439 C108.97,249.736439 108.8,247.476439 109.14,246.976439 C109.48,246.476439 110.81,245.676439 110.96,245.256439 C111.1,244.846439 111.14,242.876439 110.79,242.606439 C110.42,242.336439 110.9,239.956439 110.62,238.766439 C110.35,237.586439 112.68,236.506439 112.82,235.566439 C112.95,234.626439 115.47,233.616439 116.04,233.146439 C116.61,232.676439 117.11,229.986439 116.84,229.406439 C116.56,228.826439 117.77,228.366439 118.31,228.366439 C118.84,228.366439 119.44,227.976439 119.66,227.976439 C119.86,227.966439 120.5,226.776439 120.84,226.506439 C121.19,226.236439 121.9,223.386439 122.52,222.926439 C123.15,222.456439 123.67,220.736439 123.67,220.236439 C123.67,219.736439 124.62,218.236439 124.94,217.786439 C125.25,217.336439 127.61,216.256439 128.02,216.086439 C128.45,215.916439 129.08,212.136439 129.25,210.776439 C129.41,209.416439 130.12,207.606439 130.17,207.156439 C130.21,206.716439 130.97,206.326439 131.11,206.186439 C131.25,206.046439 131.81,204.316439 132.17,203.916439 C132.54,203.526439 133.84,201.876439 133.86,201.506439 C133.9,201.136439 134.09,200.186439 134.31,199.396439 C134.31,199.396439 134.31,199.396439 134.3,198.476439 L134.31,197.006439 C133.9,195.866439 132.64,194.436439 132.32,194.756439 C131.99,195.066439 130.53,193.746439 129.79,193.466439 C129.05,193.196439 127.2,192.956439 126.73,192.956439 C126.26,192.956439 124.64,191.636439 123.91,191.406439 C123.19,191.176439 121.34,190.826439 121,190.606439 C120.66,190.386439 120.2,187.636439 118.72,186.736439 C117.21,185.826439 114.6,183.736439 114.32,182.956439 C114.03,182.186439 111.16,180.576439 110.28,180.086439 C109.4,179.596439 108.05,179.476439 107.89,179.656439 C107.71,179.826439 106.62,178.166439 106.05,177.686439 C105.48,177.226439 103.76,176.836439 103.68,177.256439 C103.6,177.676439 102.46,177.456439 102.19,177.096439 C101.93,176.736439 101.04,177.236439 100.63,177.376439 C100.22,177.506439 98.79,179.686439 98.14,180.206439 C97.48,180.726439 96.7,179.726439 96.27,179.536439 C95.83,179.346439 94.19,179.866439 93.74,180.186439 C93.29,180.496439 92.26,177.876439 92.5,176.666439 C92.74,175.466439 91.42,173.056439 90.39,173.006439 C89.38,172.946439 89.06,170.416439 89.26,169.486439 C89.47,168.556439 87.42,167.976439 86.91,167.916439 C86.39,167.846439 85.12,169.156439 84.9,169.786439 C84.68,170.416439 80.04,168.926439 80.59,166.146439 C81.13,163.366439 83.33,160.496439 83.88,160.146439 C84.42,159.806439 87.4,159.646439 88.06,160.016439 C88.73,160.406439 89.32,160.006439 89.43,159.846439 C89.54,159.666439 91.98,159.866439 92.7,160.166439 C93.42,160.466439 94.47,163.266439 95.22,163.616439 C95.98,163.966439 96.25,161.806439 96.37,161.276439 C96.49,160.756439 96,159.416439 95.82,159.036439 C95.63,158.666439 97.03,155.256439 98.17,154.676439 C99.3,154.096439 100.5,152.206439 100.41,151.866439 C100.31,151.536439 101.32,151.276439 101.59,151.126439 C101.86,150.996439 101.55,148.236439 101.99,147.636439 C102.44,147.046439 104.57,145.776439 105.25,145.496439 C105.92,145.206439 106.43,143.476439 106.19,143.166439 C105.94,142.856439 107.93,141.166439 108.97,140.836439 C110,140.516439 110.9,141.426439 110.64,141.576439 C110.84,141.466439 112.27,140.726439 112.88,140.326439 C113.59,139.846439 112.89,138.566439 112.43,138.176439 C111.98,137.806439 112.25,136.316439 112.8,136.176439 C113.35,136.046439 113.83,134.746439 113.68,134.476439 C113.54,134.186439 115.96,134.696439 116.88,134.006439 C117.79,133.326439 117.14,135.656439 116.47,136.586439 C115.8,137.526439 116.97,138.416439 117.4,138.236439 C117.83,138.056439 118.3,138.726439 118.38,138.996439 C118.47,139.256439 119.4,138.716439 120.01,138.986439 C120.62,139.256439 120.98,138.146439 121.03,137.646439 C121.08,137.136439 119.57,136.076439 119.34,135.466439 C119.1,134.856439 119,131.306439 118.97,130.576439 C118.94,129.846439 117.96,128.666439 117.64,128.886439 C117.34,129.086439 116.7,126.996439 116.19,126.536439 C115.68,126.086439 115.56,125.076439 115.58,124.736439 C115.61,124.406439 113.87,122.586439 113.44,121.736439 C113.03,120.896439 112.44,121.076439 112.4,121.456439 C112.36,121.846439 111.15,121.896439 110.66,121.846439 C110.15,121.806439 109.75,119.876439 109.75,119.156439 C109.75,118.426439 107.5,118.306439 107.13,117.716439 C106.77,117.136439 105.3,117.406439 105.07,117.006439 C104.84,116.596439 103.54,116.226439 103.29,116.376439 C103.02,116.526439 103.15,121.736439 102.9,123.146439 C102.65,124.556439 101.46,125.786439 101.02,125.756439 C100.59,125.726439 100.85,126.756439 101.15,126.666439 C101.46,126.576439 100.31,128.206439 100.15,129.276439 C100,130.336439 98.92,129.226439 98.74,128.256439 C98.57,127.286439 97.51,125.976439 97.31,126.306439 C97.11,126.636439 96.37,125.906439 96.06,126.116439 C95.75,126.326439 93.74,124.956439 92.93,124.506439 C92.13,124.086439 91.67,121.596439 91.2,121.386439 C90.74,121.156439 91.13,120.866439 91.12,120.486439 C91.1,120.106439 92.68,118.666439 93.16,118.096439 C93.63,117.526439 95.37,115.266439 96.06,114.786439 C96.75,114.286439 97.29,113.006439 97.16,112.766439 C97.05,112.526439 100.11,111.576439 100.94,111.286439 C101.77,111.006439 102.48,108.696439 102.59,108.026439 C102.71,107.366439 102.07,106.106439 101.69,105.946439 C101.3,105.776439 102.85,105.716439 103.36,105.976439 C103.87,106.226439 105.45,105.506439 106.08,105.836439 C106.69,106.166439 107.95,106.916439 108.87,107.486439 C108.87,107.486439 108.87,107.486439 108.66,109.186439 L108.3,112.066439 C105.88,113.066439 105.19,114.796439 106.04,114.756439 C106.88,114.716439 110.73,116.426439 111.82,117.206439 C112.91,117.986439 113.26,116.076439 113.58,115.436439 C113.9,114.816439 113.79,112.966439 113.53,112.596439 C113.27,112.236439 114.79,112.366439 115.21,112.776439 C115.65,113.176439 116.15,112.346439 116.48,112.206439 C116.8,112.056439 116.97,110.476439 117.14,110.156439 C117.32,109.836439 116.43,109.506439 116.4,109.116439 C116.37,108.716439 114.64,107.966439 114.08,107.696439 C113.51,107.426439 113.38,106.236439 113.66,106.026439 C113.93,105.816439 113.47,104.296439 113.19,103.796439 C112.91,103.296439 111.11,102.886439 110.5,102.886439 C109.9,102.886439 109.28,101.486439 108.93,101.286439 C108.58,101.086439 106.26,100.826439 105.69,100.996439 C105.11,101.166439 104.06,99.3464394 103.09,99.9064394 C102.12,100.456439 101.12,99.2564394 100.68,99.0164394 C100.24,98.7764394 97.97,101.216439 98,102.926439 C98.02,104.646439 98.87,106.296439 99.23,106.346439 C99.59,106.386439 99.15,107.936439 98.75,108.376439 C98.37,108.816439 97.41,107.916439 97.77,107.526439 C98.13,107.136439 96.79,105.346439 96.32,104.616439 C95.99,104.086439 94.81,103.626439 94.01,103.306439 C93.55,103.806439 93.09,104.326439 92.64,104.846439 C92.81,105.466439 93.02,106.276439 92.82,106.896439 C92.48,107.936439 91.61,108.096439 91.55,107.646439 C91.53,107.446439 91.09,107.296439 90.57,107.216439 C77.88,122.456439 69.42,141.326439 67,162.006439 C67.51,162.586439 68.08,163.276439 68.24,163.766439 C68.52,164.676439 70.12,165.286439 70.42,165.476439 C70.72,165.656439 70.83,163.716439 70.61,163.206439 C70.41,162.706439 71,162.396439 70.99,162.766439 C70.97,163.146439 72.5,164.856439 72.99,165.476439 C73.49,166.096439 74.01,170.096439 74.49,170.946439 C74.96,171.806439 79.58,173.586439 81.07,173.896439 C82.55,174.216439 84.42,175.876439 84.72,176.356439 C85,176.836439 86.98,177.076439 87.4,177.266439 C87.83,177.456439 88.84,178.796439 89.26,179.076439 C89.68,179.356439 90.01,180.156439 90.01,180.366439 C90.01,180.576439 92.62,181.566439 93.25,182.256439 C93.88,182.956439 94.92,182.766439 95.12,182.476439 C95.32,182.176439 95.83,183.856439 96.1,184.436439 C96.37,185.016439 96.43,186.446439 96.23,186.666439 C96.03,186.886439 95.65,189.516439 95.21,190.036439 C94.76,190.566439 93.84,194.376439 94.04,195.126439 C94.24,195.876439 95.46,197.436439 95.99,197.666439 C96.52,197.896439 96.3,198.706439 95.88,198.766439 C95.46,198.816439 95.66,202.456439 96.64,202.996439 C97.62,203.536439 98.44,205.146439 98.3,205.416439" id="Fill-2843-2" fill="#A6DAE9" sketch:type="MSShapeGroup"></path>
        <path d="M104.01,97.4302916 C105.26,97.2202916 107.35,96.8702916 107.49,96.5202916 C107.6,96.2302916 107.61,95.3702916 107.37,95.0702916 C107.57,95.0802916 107.81,95.0902916 107.99,95.0902916 C108.46,95.0902916 109.25,92.4802916 109.76,91.8702916 C110.26,91.2602916 113.13,90.3602916 113.81,89.9502916 C114.49,89.5302916 115.99,88.0902916 116.57,87.9302916 C117.14,87.7502916 117.98,86.4202916 117.85,86.1402916 C117.72,85.8802916 119.79,84.6202916 120.58,84.2902916 C121.36,83.9502916 121.77,83.0302916 121.47,83.0002916 C121.29,82.9702916 116.91,85.2602916 112.9,87.5402916 C108.32,90.6402916 104.02,94.1202916 100,97.8902916 C101.25,97.8002916 103.18,97.5702916 104.01,97.4302916" id="Fill-2845-2" fill="#A6DAE9" sketch:type="MSShapeGroup"></path>
        <path d="M178.99,228.037122 C180.33,227.247122 182.61,223.877122 183.36,223.167122 C184.11,222.457122 184.65,219.907122 184.81,219.357122 C184.96,218.797122 186.1,217.897122 186.53,217.767122 C186.95,217.647122 188.31,211.997122 189.5,210.767122 C190.7,209.527122 192.1,203.557122 191.95,201.397122 C191.8,199.257122 192.71,195.167122 192.99,194.177122 C193.28,193.197122 194.78,191.447122 195.25,191.087122 C195.71,190.717122 198.58,186.457122 199.51,184.927122 C200.44,183.407122 201.33,180.047122 201.15,179.257122 C200.97,178.467122 198.97,177.927122 198.59,178.307122 C198.22,178.697122 196.33,179.017122 195.73,179.017122 C195.12,179.017122 193.74,175.787122 192.88,175.117122 C192.02,174.457122 191.25,170.747122 190.75,170.047122 C190.26,169.347122 188.87,167.577122 188.44,167.167122 C188.01,166.757122 187.93,164.797122 187.83,164.257122 C187.74,163.717122 188.67,164.607122 188.83,165.387122 C188.99,166.167122 191.21,169.327122 191.9,170.397122 C192.58,171.457122 194.39,174.837122 194.86,175.897122 C195.32,176.957122 199.35,176.417122 200.66,175.807122 C201.97,175.187122 203.6,174.147122 203.66,173.777122 C203.72,173.417122 205.81,172.457122 206.38,171.997122 C206.96,171.527122 207.47,169.107122 207.85,168.717122 C208.23,168.317122 207.54,166.017122 207.11,165.327122 C206.68,164.637122 204.59,164.087122 204.17,164.357122 C203.74,164.627122 202.84,162.807122 202.52,162.147122 C202.2,161.467122 200.6,160.647122 200.43,160.187122 C200.26,159.727122 200.86,159.007122 201.11,158.857122 C201.36,158.687122 204.31,160.757122 205.16,161.787122 C206,162.817122 206.97,164.707122 207.14,165.037122 C207.29,165.367122 209.62,165.537122 210.14,165.147122 C210.66,164.767122 211.25,164.877122 211.46,165.367122 C211.46,165.367122 211.46,165.367122 212.19,165.237122 L214.75,164.837122 C215.95,166.147122 216.3,167.287122 216.27,167.547122 C216.25,167.797122 217.01,168.857122 217.51,168.977122 C218,169.087122 218.37,170.757122 218.51,171.177122 C218.66,171.587122 220.12,174.087122 220.41,175.137122 C220.72,176.187122 221.96,178.247122 222.26,178.797122 C222.55,179.347122 222.8,180.937122 222.8,181.377122 C222.8,181.807122 223.73,182.667122 224.31,182.627122 C224.89,182.587122 226.06,178.927122 226.33,177.567122 C226.61,176.207122 227.54,175.087122 227.81,175.087122 C228.08,175.087122 228.29,174.317122 228.29,174.027122 C228.29,173.737122 229.77,173.767122 229.9,173.397122 C230.02,173.027122 230.47,170.607122 230.99,170.247122 C231.52,169.877122 233.39,168.647122 234.05,168.417122 C234.71,168.197122 236.39,169.637122 236.76,170.317122 C237.14,170.987122 237.48,172.707122 237.33,172.987122 C237.19,173.277122 238.22,174.757122 239.12,174.727122 C240.01,174.707122 240.29,175.867122 240.31,176.287122 C240.35,176.707122 241.52,177.897122 241.76,178.437122 C241.99,178.967122 241.93,180.427122 241.77,180.767122 C241.61,181.097122 241.72,183.007122 241.89,183.547122 C242.06,184.077122 244.81,186.867122 245.84,187.717122 C246.87,188.557122 247.35,185.987122 246.83,185.187122 C246.3,184.387122 244.5,182.537122 244.08,181.977122 C243.66,181.417122 243.59,179.197122 243.75,178.567122 C243.9,177.947122 245.31,178.917122 245.9,179.367122 C246.49,179.817122 247.27,180.827122 247.29,181.157122 C247.31,181.497122 250.99,179.427122 251.12,177.187122 C251.25,174.947122 252.47,172.417122 252.59,171.837122 C252.72,171.237122 252.23,170.427122 251.92,170.407122 C251.61,170.377122 252.47,168.697122 253.5,168.727122 C254.54,168.757122 257.03,165.987122 257.61,164.887122 C258.19,163.787122 259.38,162.887122 259.52,162.737122 C259.66,162.617122 260.49,160.007122 260.63,158.937122 C260.77,157.867122 260.02,156.177122 259.93,155.627122 C259.85,155.077122 258.96,153.787122 258.72,153.387122 C258.5,152.987122 258.28,151.477122 258.42,151.197122 C258.55,150.917122 259.49,150.617122 259.58,150.367122 C259.69,150.117122 260.75,148.977122 260.67,148.477122 C260.59,147.977122 261.33,149.127122 261.82,149.547122 C262.31,149.957122 262.84,152.627122 263.44,152.927122 C264.04,153.217122 266.49,150.087122 266.19,148.077122 C265.89,146.057122 266.9,143.477122 267.49,143.237122 C267.94,143.067122 269.09,141.437122 269.86,140.267122 C264.49,124.727122 255.56,110.837122 244.05,99.5771216 C243.91,99.5871216 243.78,99.5871216 243.65,99.5671216 L242.76,99.3671216 C241.25,99.0571216 240.38,97.4471216 240.64,97.0771216 C240.72,96.9571216 240.7,96.6871216 240.63,96.3671216 C239.79,95.6071216 238.93,94.8671216 238.06,94.1371216 C237.35,94.1171216 236.6,94.1371216 236.16,94.1171216 C235.26,94.0871216 233.31,93.4371216 232.96,93.0971216 C232.61,92.7471216 231.43,93.4071216 231.36,94.0571216 C231.28,94.7071216 229.23,95.0071216 229.04,95.5071216 C228.83,95.9971216 227.78,96.0371216 227.58,95.7471216 C227.37,95.4771216 225.47,96.4171216 224.52,96.5571216 C223.57,96.6971216 221.81,97.4671216 221.38,97.6571216 C220.96,97.8371216 219.95,98.8171216 219.79,99.2271216 C219.64,99.6371216 218.42,100.317122 218.03,100.467122 C217.63,100.627122 217.72,102.387122 218.22,102.647122 C218.72,102.887122 217.28,102.427122 216.65,102.107122 C216.01,101.787122 215.31,102.857122 215.11,103.227122 C214.91,103.597122 214.33,103.007122 214.35,102.477122 C214.38,101.947122 212.79,101.527122 212.58,101.947122 C212.37,102.367122 211.27,101.807122 210.81,101.567122 C210.35,101.327122 208.38,103.377122 207.65,104.127122 C206.91,104.857122 203.42,105.437122 202.76,105.157122 C202.11,104.877122 201.46,106.707122 202.02,106.827122 C202.58,106.937122 200.6,106.737122 199.52,106.837122 C198.43,106.947122 195.27,108.207122 194.52,108.767122 C193.76,109.327122 193.15,108.647122 193.15,108.217122 C193.15,107.777122 191.95,107.377122 191.59,107.257122 C191.24,107.137122 190.54,109.627122 189.91,110.107122 C189.28,110.587122 188.53,108.167122 187.06,107.767122 C185.58,107.367122 183.27,105.947122 182.62,105.777122 C181.97,105.597122 180.65,104.217122 180.28,103.827122 C179.91,103.427122 178.02,103.097122 177.42,103.097122 C176.81,103.097122 174.86,104.217122 174.34,104.657122 C173.8,105.097122 173.02,105.007122 172.76,105.167122 C172.49,105.327122 170.29,107.497122 169.43,108.167122 C168.58,108.847122 167.08,111.757122 166.6,112.457122 C166.1,113.147122 165.4,113.277122 165.11,113.297122 C164.83,113.307122 164.59,114.087122 164.59,114.377122 C164.59,114.657122 162.06,115.977122 161.8,117.127122 C161.53,118.287122 162.04,120.917122 162.04,121.847122 C162.04,122.787122 162.98,124.637122 163.69,124.667122 C164.39,124.697122 164.02,126.257122 163.84,126.687122 C163.66,127.127122 164.28,127.607122 164.26,127.977122 C164.24,128.357122 162.48,128.877122 161.94,129.087122 C161.39,129.287122 160.51,130.517122 160.4,130.977122 C160.3,131.367122 158.6,131.657122 158.05,132.187122 C158.19,131.807122 158.37,131.267122 158.53,130.967122 C158.85,130.347122 158.4,129.277122 158.14,129.067122 C157.87,128.837122 157.75,125.787122 157.32,125.137122 C156.89,124.487122 155.82,123.377122 155.56,123.157122 C155.3,122.947122 155.75,122.147122 155.9,121.797122 C156.05,121.467122 154.48,121.267122 154.05,121.517122 C153.62,121.777122 153.38,124.787122 153.2,125.617122 C153.02,126.437122 153.98,127.707122 154.24,127.767122 C154.5,127.827122 154.43,129.317122 153.88,129.367122 C153.32,129.417122 152.82,131.587122 153.1,132.077122 C153.39,132.577122 152.71,133.547122 152.38,133.777122 C152.05,133.997122 154.5,133.867122 155.62,133.837122 C156.73,133.807122 157.61,134.307122 157.49,134.397122 C157.37,134.497122 155.35,134.787122 154.99,135.267122 C154.64,135.747122 153.26,136.667122 152.99,137.037122 C152.73,137.407122 153.45,138.217122 154.03,138.177122 C154.61,138.147122 155.27,140.187122 155.72,140.567122 C156.18,140.947122 156.01,142.007122 155.81,142.297122 C155.61,142.587122 152.88,142.107122 151.84,142.357122 C150.8,142.617122 149.49,144.807122 149.41,145.637122 C149.31,146.467122 149.57,148.847122 149.71,149.507122 C149.84,150.157122 152.01,150.567122 152.45,150.897122 C152.9,151.207122 154.97,150.897122 155.41,151.107122 C155.83,151.307122 157.24,148.997122 157.51,147.927122 C157.78,146.847122 160,144.887122 160.46,144.147122 C160.92,143.417122 163.31,143.507122 163.9,143.127122 C164.49,142.747122 164.16,144.937122 164.44,146.137122 C164.73,147.347122 167.01,147.197122 166.67,146.057122 C166.34,144.937122 166.9,144.447122 166.99,144.847122 C167.08,145.257122 169.28,146.157122 169.7,146.787122 C170.11,147.427122 169.99,148.777122 169.51,148.757122 C169.02,148.737122 169,150.237122 169.52,150.407122 C170.03,150.557122 170.72,148.717122 171.27,148.437122 C171.83,148.167122 172.28,147.007122 172.02,146.927122 C171.77,146.837122 172.49,145.807122 172.8,146.147122 C173.12,146.487122 171.63,143.907122 170.69,142.967122 C169.76,142.027122 170.42,142.437122 172.16,143.897122 C172.16,143.897122 172.16,143.897122 173.37,145.587122 C173.6,145.887122 173.91,146.817122 174.12,147.147122 L174.4,147.647122 C174.64,148.247122 174.85,149.857122 174.85,150.297122 C174.85,150.737122 175.8,151.597122 176.37,151.547122 C176.94,151.507122 177.38,151.827122 177.26,151.847122 C177.14,151.867122 177.63,152.987122 178.21,153.017122 C178.78,153.037122 179.03,151.567122 178.45,151.537122 C177.87,151.497122 177.97,149.367122 177.89,148.447122 C177.83,147.517122 178.31,146.767122 178.5,146.767122 C178.7,146.767122 178.48,148.667122 178.49,149.107122 C178.5,149.547122 178.75,150.407122 179.01,151.027122 C179.01,151.027122 179.01,151.027122 179.6,151.467122 L180.93,152.497122 C182.82,151.927122 185.37,152.367122 185.27,152.747122 C185.17,153.137122 186.68,153.227122 186.77,152.607122 C186.86,151.987122 186.93,152.627122 186.93,153.057122 C186.93,153.487122 185.69,155.177122 185.48,155.957122 C185.26,156.747122 180.89,156.217122 179,156.067122 C177.11,155.927122 174.34,156.567122 174.12,157.127122 C173.91,157.697122 170.97,155.837122 169.62,155.267122 C168.27,154.697122 167.21,152.637122 166.94,152.377122 C166.66,152.097122 167.16,151.437122 167.04,151.037122 C166.91,150.627122 163.83,150.547122 162.94,150.877122 C162.04,151.207122 157.42,151.687122 156.33,152.167122 C155.23,152.657122 153.59,152.137122 153.08,152.047122 C152.57,151.957122 151.35,153.467122 150.73,153.737122 C150.1,154.017122 149.32,156.147122 148.98,158.497122 C148.98,158.497122 148.98,158.497122 148.14,160.127122 L147.59,161.177122 C146.07,162.337122 144.38,166.207122 143.89,166.977122 C143.39,167.757122 143,173.337122 143,175.207122 C143,177.077122 144.63,181.047122 145.09,182.147122 C145.55,183.237122 148.38,185.657122 149.33,186.237122 C150.27,186.807122 153.34,186.887122 154.35,186.887122 C155.35,186.877122 156.5,185.927122 156.89,184.757122 C156.89,184.757122 156.89,184.757122 158.37,184.907122 L159.05,184.977122 C159.08,185.797122 161.26,186.467122 161.8,186.747122 C162.33,187.047122 163.76,186.817122 164.19,186.697122 C164.61,186.577122 165.09,190.427122 164.78,191.537122 C164.47,192.647122 165.54,196.557122 165.85,197.727122 C166.17,198.907122 167.5,202.117122 167.64,203.267122 C167.77,204.427122 166.86,208.257122 166.71,209.597122 C166.55,210.947122 168.38,214.707122 168.86,215.997122 C169.34,217.287122 169.73,220.067122 169.73,220.707122 C169.73,221.357122 171.72,225.237122 172.18,226.837122 C172.64,228.437122 177.64,228.827122 178.99,228.037122" id="Fill-2846-2" fill="#A6DAE9" sketch:type="MSShapeGroup"></path>
        <path d="M266.036676,180.05684 C266.166676,180.33684 267.426676,179.33684 268.176676,179.22684 C268.936676,179.10684 269.416676,177.07684 268.826676,176.93684 C268.226676,176.76684 267.476676,175.21684 267.046676,175.02684 C266.626676,174.83684 265.796676,175.69684 265.826676,176.30684 C265.866676,176.92684 264.456676,177.17684 264.186676,177.68684 C263.926676,178.19684 263.936676,178.56684 264.226676,178.51684 C264.516676,178.46684 265.906676,179.76684 266.036676,180.05684" id="Fill-2847-2" fill="#A6DAE9" sketch:type="MSShapeGroup"></path>
        <path d="M264.423423,191.316571 C264.793423,191.176571 264.373423,189.176571 263.593423,189.006571 C262.803423,188.846571 260.633423,191.646571 261.053423,193.266571 C261.463423,194.866571 261.913423,194.776571 262.133423,194.436571 C262.363423,194.096571 263.653423,194.656571 264.033423,194.776571 C264.423423,194.906571 264.423423,194.516571 264.033423,193.926571 C263.653423,193.326571 264.043423,191.456571 264.423423,191.316571" id="Fill-2848-2" fill="#A6DAE9" sketch:type="MSShapeGroup"></path>
        <path d="M259.61613,189.368352 C259.70613,188.658352 259.83613,186.418352 259.95613,185.978352 C260.08613,185.528352 258.74613,184.238352 258.08613,184.008352 C257.42613,183.778352 255.31613,188.368352 253.79613,189.178352 C252.27613,189.998352 251.72613,192.788352 252.12613,193.438352 C252.53613,194.078352 255.69613,194.418352 256.24613,194.908352 C256.80613,195.388352 257.41613,194.828352 257.74613,194.748352 C258.08613,194.668352 257.97613,194.458352 257.85613,194.368352 C257.72613,194.288352 258.95613,192.988352 259.13613,192.158352 C259.30613,191.338352 259.52613,190.078352 259.61613,189.368352" id="Fill-2849-2" fill="#A6DAE9" sketch:type="MSShapeGroup"></path>
        <path d="M251.691907,197.146135 C250.511907,196.696135 249.121907,197.386135 249.001907,197.856135 C248.891907,198.306135 253.571907,199.056135 255.131907,199.476135 C256.681907,199.896135 257.651907,200.036135 257.301907,199.766135 C256.941907,199.506135 252.881907,197.596135 251.691907,197.146135" id="Fill-2850-2" fill="#A6DAE9" sketch:type="MSShapeGroup"></path>
        <path d="M261.207813,166.502369 C261.587812,165.982369 260.687812,163.522369 260.227813,164.082369 C259.777812,164.632369 260.107812,166.062369 260.257812,166.562369 C260.397812,167.052369 260.827812,167.022369 261.207813,166.502369" id="Fill-2851-2" fill="#A6DAE9" sketch:type="MSShapeGroup"></path>
        <path d="M264.115987,171.560353 C264.385987,170.920353 263.775987,170.220353 262.765987,170.010353 C261.745987,169.800353 261.895987,172.850353 262.345987,173.240353 C262.775987,173.620353 263.835987,172.190353 264.115987,171.560353" id="Fill-2852-2" fill="#A6DAE9" sketch:type="MSShapeGroup"></path>
        <path d="M269.002514,190.632049 C270.222514,191.482049 272.932514,191.092049 273.002514,189.452049 C271.812514,188.672049 268.902514,188.802049 269.002514,190.632049" id="Fill-2853-2" fill="#A6DAE9" sketch:type="MSShapeGroup"></path>
        <path d="M268.146803,153.41 C267.636803,153.76 267.376803,154.66 267.526803,155.03 L267.326803,155.02 C266.916803,155.02 266.876803,156.62 267.296803,156.89 C267.716803,157.17 268.746803,155.64 269.276803,155.29 C269.806803,154.92 270.886803,154.7 271.046803,154.81 C271.216803,154.93 272.146803,154.65 273.146803,154.19 C273.316803,154.11 273.526803,153.84 273.736803,153.47 C273.496803,152.31 273.216803,151.15 272.936803,150 C272.426803,150.37 271.866803,150.78 271.606803,151.01 C271.056803,151.49 268.806803,152.96 268.146803,153.41" id="Fill-2854-2" fill="#A6DAE9" sketch:type="MSShapeGroup"></path>
        <path id="Fill-2855-2" fill="#A6DAE9" sketch:type="MSShapeGroup" d="M240.163937,186.120117 L240.173937,186.120117 C239.953937,185.970117 239.933937,185.950117 240.163937,186.120117"></path>
        <path d="M248.53,192.619711 C248.1,191.619711 246.64,189.939711 245.31,188.879711 C245.31,188.879711 245.31,188.879711 244.8,188.049711 L244.25,187.129711 C243.75,186.119711 242.25,185.349711 242.12,185.049711 C241.99,184.749711 241.51,185.919711 241,185.579711 C241.27,185.769711 241.83,186.169711 242.62,186.729711 C244.03,187.739711 246.74,194.569711 247.36,195.039711 C247.97,195.529711 248.97,193.609711 248.53,192.619711" id="Fill-2856-2" fill="#A6DAE9" sketch:type="MSShapeGroup"></path>
        <path d="M226.040871,181.8341 C225.660871,182.6141 228.050871,184.2441 228.240871,183.8741 C228.430871,183.4941 227.930871,181.6041 227.510871,181.1841 C227.080871,180.7741 226.420871,181.0741 226.040871,181.8341" id="Fill-2857-2" fill="#A6DAE9" sketch:type="MSShapeGroup"></path>
        <path d="M194.603064,217.919272 C194.693064,218.729272 196.343064,219.379272 196.813064,219.239272 C197.293064,219.109272 198.623064,216.649272 198.813064,215.949272 C198.993064,215.239272 199.143064,213.719272 199.143064,213.359272 C199.143064,212.999272 199.363064,212.189272 199.553064,212.089272 C199.733064,211.989272 200.043064,211.159272 200.223064,210.239272 C200.403064,209.309272 199.233064,205.009272 199.203064,204.249272 C199.173064,203.489272 198.323064,204.639272 198.103064,205.399272 C197.873064,206.169272 195.733064,207.729272 195.253064,208.379272 C194.783064,209.029272 194.253064,211.229272 194.443064,211.609272 C194.623064,211.989272 194.253064,213.479272 194.043064,213.899272 C193.823064,214.319272 194.513064,217.109272 194.603064,217.919272" id="Fill-2858-2" fill="#A6DAE9" sketch:type="MSShapeGroup"></path>
        <path d="M118.002635,248.074707 L119.442635,248.074707 C119.692635,246.514707 117.922635,246.774707 118.002635,248.074707" id="Fill-2859-2" fill="#A6DAE9" sketch:type="MSShapeGroup"></path>
        <path d="M155.571591,85.892729 C154.961591,85.972729 153.401591,85.662729 153.131591,85.372729 C152.861591,85.082729 150.521591,84.822729 149.841591,85.112729 C149.171591,85.402729 149.631591,83.462729 150.571591,83.252729 C151.511591,83.042729 150.711591,81.712729 149.721591,81.712729 C148.711591,81.702729 146.241591,81.342729 145.661591,81.472729 C145.081591,81.592729 143.941591,81.062729 143.531591,81.002729 C143.111591,80.942729 140.141591,81.892729 138.741591,81.822729 C137.341591,81.762729 133.881591,81.902729 133.141591,82.112729 C132.391591,82.312729 131.851591,83.772729 131.961591,84.282729 C132.061591,84.812729 128.611591,84.802729 127.541591,84.812729 C126.451591,84.822729 120.671591,86.062729 119.161591,86.892729 C117.651591,87.712729 116.471591,89.842729 116.971591,89.882729 C117.481591,89.922729 116.141591,91.122729 115.331591,91.402729 C114.521591,91.682729 112.581591,91.802729 112.121591,92.262729 C111.671591,92.712729 112.601591,93.022729 112.791591,93.332729 C112.971591,93.632729 113.511591,93.072729 114.021591,93.362729 C114.531591,93.652729 116.211591,93.782729 116.661591,93.962729 C117.111591,94.132729 115.231591,94.492729 114.351591,94.552729 C113.461591,94.612729 113.661591,96.352729 114.381591,96.592729 C115.101591,96.832729 116.951591,97.092729 117.141591,96.782729 C117.331591,96.482729 119.351591,97.112729 120.251591,97.222729 C121.161591,97.322729 121.851591,99.592729 122.121591,100.082729 C122.411591,100.572729 122.461591,102.302729 122.391591,102.802729 C122.331591,103.302729 123.991591,104.212729 124.301591,103.902729 C124.591591,103.582729 124.511591,104.682729 123.841591,104.622729 C123.181591,104.562729 123.611591,106.482729 124.441591,106.762729 C125.251591,107.032729 124.691591,108.222729 124.221591,108.582729 C123.751591,108.932729 124.001591,110.062729 123.511591,110.472729 C123.031591,110.872729 125.241591,114.702729 125.221591,116.662729 C125.211591,118.632729 126.441591,120.232729 126.901591,120.232729 C127.381591,120.232729 128.991591,120.632729 129.201591,121.052729 C129.421591,121.472729 130.201591,120.762729 130.511591,120.432729 C130.811591,120.112729 131.471591,119.172729 131.961591,118.342729 C132.461591,117.502729 133.571591,113.562729 133.721591,113.142729 C133.871591,112.712729 135.721591,112.982729 136.141591,112.762729 C136.561591,112.552729 137.771591,111.592729 138.121591,111.312729 C138.461591,111.022729 141.101591,109.912729 141.831591,109.382729 C142.541591,108.872729 143.741591,106.632729 144.311591,106.152729 C144.861591,105.672729 144.021591,105.812729 143.311591,105.352729 C142.611591,104.892729 142.921591,104.332729 143.131591,104.112729 C143.331591,103.902729 145.461591,104.472729 146.191591,104.752729 C146.931591,105.042729 148.321591,104.032729 147.791591,103.632729 C147.251591,103.252729 147.541591,103.262729 147.791591,103.422729 C148.051591,103.592729 148.321591,102.132729 148.041591,101.852729 C147.761591,101.582729 150.201591,99.802729 149.771591,98.122729 C149.341591,96.442729 150.431591,94.722729 151.091591,94.702729 C151.741591,94.682729 151.551591,92.802729 150.771591,92.632729 C149.981591,92.452729 150.721591,92.282729 151.011591,92.012729 C151.311591,91.752729 151.681591,90.072729 151.511591,89.752729 C151.331591,89.432729 152.701591,89.062729 152.941591,88.682729 C153.191591,88.302729 154.761591,87.552729 155.311591,87.432729 C155.861591,87.302729 156.171591,85.832729 155.571591,85.892729" id="Fill-2860-2" fill="#A6DAE9" sketch:type="MSShapeGroup"></path>
        <path d="M169.325064,87.0459427 C168.575064,86.7959427 167.065064,87.6259427 167.255064,88.0959427 C167.455064,88.5659427 166.025064,87.4859427 165.035064,88.0059427 C164.035064,88.5259427 163.755064,90.2659427 164.215064,90.4959427 C164.675064,90.7259427 165.005064,92.1159427 165.015064,92.3859427 C165.035064,92.6559427 166.955064,92.4559427 167.445064,92.0559427 C167.935064,91.6459427 167.865064,93.4659427 167.385064,93.9559427 C166.905064,94.4459427 167.565064,95.4259427 168.105064,95.5159427 C168.635064,95.5859427 169.365064,96.8459427 169.915064,96.8359427 C170.455064,96.8159427 171.395064,94.7059427 171.615064,93.9059427 C171.825064,93.1159427 173.665064,93.7459427 174.505064,93.9959427 C175.345064,94.2459427 175.645064,91.0859427 174.735064,90.5959427 C173.835064,90.1259427 172.695064,90.3659427 172.325064,90.0059427 C171.945064,89.6359427 171.305064,89.2959427 170.875064,89.2359427 C170.455064,89.1759427 170.065064,87.2959427 169.325064,87.0459427" id="Fill-2861-2" fill="#A6DAE9" sketch:type="MSShapeGroup"></path>
        <path d="M177.330483,88.6668226 C178.810483,88.8768226 180.480483,87.6568226 180.830483,87.3168226 C181.200483,86.9668226 176.730483,86.0568226 175.040483,86.0068226 C173.340483,85.9568226 171.970483,86.1868226 172.000483,86.5268226 C172.020483,86.8468226 175.850483,88.4568226 177.330483,88.6668226" id="Fill-2862-2" fill="#A6DAE9" sketch:type="MSShapeGroup"></path>
        <path d="M149.530674,128.44 C149.140674,128.28 148.930674,129.74 149.020674,130.3 C149.110674,130.85 150.470674,130.8 151.050674,130.71 C151.630674,130.61 152.080674,130.14 152.060674,129.65 C152.030674,129.18 151.200674,127 150.870674,127 C150.550674,127 149.920674,128.6 149.530674,128.44" id="Fill-2863-2" fill="#A6DAE9" sketch:type="MSShapeGroup"></path>
        <path d="M154.103983,111.537656 C153.803983,110.997656 151.483983,111.067656 150.913983,111.027656 C150.353983,110.997656 148.613983,110.417656 148.283983,110.047656 C147.963983,109.687656 147.703983,111.477656 147.183983,111.717656 C146.643983,111.947656 147.443983,112.287656 147.653983,112.097656 C147.873983,111.907656 147.643983,113.017656 147.403983,113.397656 C147.163983,113.787656 148.943983,114.047656 149.153983,114.637656 C149.353983,115.207656 150.093983,115.587656 150.793983,115.477656 C151.483983,115.357656 152.883983,114.637656 153.383983,114.587656 C153.873983,114.537656 154.413983,112.067656 154.103983,111.537656" id="Fill-2864-2" fill="#A6DAE9" sketch:type="MSShapeGroup"></path>
        <path d="M203.511774,98.2 C204.311774,97.4 207.591774,96.32 207.961774,95.49 C208.331774,94.67 207.731774,94 207.401774,94 C207.061774,94 206.661774,94.41 206.581774,94.54 C206.501774,94.68 202.731774,95.57 201.581774,96.12 C200.421774,96.68 199.081774,97.54 198.601774,98.03 C198.111774,98.52 197.321774,102.25 197.031774,102.67 C196.761774,103.09 198.281774,104.61 198.971774,105.03 C199.651774,105.45 200.571774,105.23 200.841774,105.15 C201.101774,105.07 200.491774,102.46 200.131774,101.55 C199.771774,100.65 202.711774,99.01 203.511774,98.2" id="Fill-2865-2" fill="#A6DAE9" sketch:type="MSShapeGroup"></path>
        <path d="M199.00313,88.9070313 C200.24313,90.1370313 200.92313,88.3570313 202.28313,88.5370313 C202.25313,86.0370313 198.88313,86.8970313 199.00313,88.9070313" id="Fill-2866-2" fill="#A6DAE9" sketch:type="MSShapeGroup"></path>
        <path d="M223.000344,89.014549 C222.960344,89.474549 226.420344,89.844549 227.430344,89.664549 C228.450344,89.484549 227.230344,87.904549 225.750344,88.004549 C224.270344,88.094549 223.040344,88.554549 223.000344,89.014549" id="Fill-2867-2" fill="#A6DAE9" sketch:type="MSShapeGroup"></path>
        <path d="M98.1512545,115.05402 C97.7912545,115.39402 98.1012545,117.09402 98.7912545,117.14402 C99.4912545,117.19402 100.601254,114.58402 101.441254,115.10402 C102.291254,115.62402 102.871254,115.83402 102.731254,115.55402 C102.581254,115.28402 100.171254,114.21402 99.8712545,114.02402 C99.5712545,113.84402 98.5212545,114.72402 98.1512545,115.05402" id="Fill-2868-2" fill="#A6DAE9" sketch:type="MSShapeGroup"></path>
        <path d="M107,172.05 C107,172.34 108.52,172.3 108.76,171.84 C109,171.37 108.87,171 108.47,171 C108.07,171 107,171.76 107,172.05" id="Fill-2869-2" fill="#A6DAE9" sketch:type="MSShapeGroup"></path>
        <path d="M99.6402975,170.3 C100.360298,170.16 100.010298,171.33 100.190298,171.75 C100.370298,172.17 102.100298,172.51 102.440298,172.79 C102.790298,173.07 103.690298,172.26 104.380298,172.35 C105.070298,172.43 104.150298,169.95 102.990298,170.02 C101.830298,170.1 100.910298,168.97 100.640298,168.83 C100.350298,168.71 99.0102975,167.89 98.6202975,167.58 C98.2402975,167.27 95.2902975,167 94.2802975,167 C93.2702975,167 92.1702975,168.03 92.0102975,168.37 C91.8502975,168.71 93.6002975,168.93 94.1002975,168.67 C94.6102975,168.4 96.9502975,168.96 97.4302975,169.53 C97.9102975,170.09 98.9002975,170.44 99.6402975,170.3" id="Fill-2870-2" fill="#A6DAE9" sketch:type="MSShapeGroup"></path>
        <path d="M97,172.534595 C97,172.824595 98.53,172.644595 98.9,172.654595 C99.27,172.664595 99.25,172.414595 98.87,172.104595 C98.49,171.794595 97,172.244595 97,172.534595" id="Fill-2871-2" fill="#A6DAE9" sketch:type="MSShapeGroup"></path>
        <path d="M97.71,164.025953 C97.32,163.865953 97,164.485953 97,164.785953 C97,165.075953 97.21,165.315953 97.48,165.315953 C97.75,165.315953 98.11,164.185953 97.71,164.025953" id="Fill-2872-2" fill="#A6DAE9" sketch:type="MSShapeGroup"></path>
        <path d="M101.294057,164.53 C101.154057,164.24 100.504057,164 100.304057,164 C100.114057,164 99.9740571,164.51 100.004057,165.12 C100.044057,165.73 101.424057,164.82 101.294057,164.53" id="Fill-2873-2" fill="#A6DAE9" sketch:type="MSShapeGroup"></path>
        <path d="M102.84,168.230456 C103.46,167.940456 103.53,167.200456 103.17,167.240456 C102.8,167.280456 102.12,166.180456 101.72,166.020456 C101.33,165.860456 101,166.680456 101,167.040456 C101,167.400456 101.23,167.640456 101.5,167.570456 C101.77,167.500456 102.22,168.520456 102.84,168.230456" id="Fill-2874-2" fill="#A6DAE9" sketch:type="MSShapeGroup"></path>
        <path d="M274.060474,192.63 C273.740474,192.8 272.200474,192.97 272.000474,192.67 C271.800474,192.38 271.500474,193.3 271.160474,193.44 C270.840474,193.6 271.020474,194.4 271.510474,194.15 C271.840474,193.98 273.310474,194.79 274.490474,195.53 C274.720474,194.36 274.930474,193.18 275.120474,192 C274.700474,192.22 274.260474,192.52 274.060474,192.63" id="Fill-2875-2" fill="#A6DAE9" sketch:type="MSShapeGroup"></path>
        <path d="M98.3,205.416439 C98.15,205.706439 100.02,207.626439 100.75,208.286439 C101.48,208.946439 103.02,212.086439 103.33,213.116439 C103.65,214.156439 103.46,215.836439 103.36,216.236439 C103.27,216.636439 103.71,217.506439 103.79,217.876439 C103.85,218.236439 103.14,221.316439 103.41,222.556439 C103.69,223.796439 101.96,227.666439 102,229.586439 C102.04,231.516439 102.91,234.016439 103.27,233.826439 C103.61,233.636439 103.73,235.576439 103.15,235.806439 C102.56,236.046439 101.88,237.576439 102.21,237.646439 C102.54,237.726439 102.18,239.236439 102.28,239.846439 C102.37,240.446439 102.88,244.436439 102.99,245.436439 C103.1,246.426439 104.51,248.846439 104.81,249.676439 C105.11,250.496439 105.42,252.056439 105.53,252.286439 C105.65,252.536439 105.79,252.776439 105.81,252.786439 C105.84,252.786439 106.98,253.216439 107.31,253.466439 C107.65,253.716439 109.89,253.556439 110.62,253.406439 C111.35,253.256439 110.68,252.586439 110.35,252.226439 C110.02,251.856439 109.73,250.086439 109.35,249.906439 C108.97,249.736439 108.8,247.476439 109.14,246.976439 C109.48,246.476439 110.81,245.676439 110.96,245.256439 C111.1,244.846439 111.14,242.876439 110.79,242.606439 C110.42,242.336439 110.9,239.956439 110.62,238.766439 C110.35,237.586439 112.68,236.506439 112.82,235.566439 C112.95,234.626439 115.47,233.616439 116.04,233.146439 C116.61,232.676439 117.11,229.986439 116.84,229.406439 C116.56,228.826439 117.77,228.366439 118.31,228.366439 C118.84,228.366439 119.44,227.976439 119.66,227.976439 C119.86,227.966439 120.5,226.776439 120.84,226.506439 C121.19,226.236439 121.9,223.386439 122.52,222.926439 C123.15,222.456439 123.67,220.736439 123.67,220.236439 C123.67,219.736439 124.62,218.236439 124.94,217.786439 C125.25,217.336439 127.61,216.256439 128.02,216.086439 C128.45,215.916439 129.08,212.136439 129.25,210.776439 C129.41,209.416439 130.12,207.606439 130.17,207.156439 C130.21,206.716439 130.97,206.326439 131.11,206.186439 C131.25,206.046439 131.81,204.316439 132.17,203.916439 C132.54,203.526439 133.84,201.876439 133.86,201.506439 C133.9,201.136439 134.09,200.186439 134.31,199.396439 C134.31,199.396439 134.31,199.396439 134.3,198.476439 L134.31,197.006439 C133.9,195.866439 132.64,194.436439 132.32,194.756439 C131.99,195.066439 130.53,193.746439 129.79,193.466439 C129.05,193.196439 127.2,192.956439 126.73,192.956439 C126.26,192.956439 124.64,191.636439 123.91,191.406439 C123.19,191.176439 121.34,190.826439 121,190.606439 C120.66,190.386439 120.2,187.636439 118.72,186.736439 C117.21,185.826439 114.6,183.736439 114.32,182.956439 C114.03,182.186439 111.16,180.576439 110.28,180.086439 C109.4,179.596439 108.05,179.476439 107.89,179.656439 C107.71,179.826439 106.62,178.166439 106.05,177.686439 C105.48,177.226439 103.76,176.836439 103.68,177.256439 C103.6,177.676439 102.46,177.456439 102.19,177.096439 C101.93,176.736439 101.04,177.236439 100.63,177.376439 C100.22,177.506439 98.79,179.686439 98.14,180.206439 C97.48,180.726439 96.7,179.726439 96.27,179.536439 C95.83,179.346439 94.19,179.866439 93.74,180.186439 C93.29,180.496439 92.26,177.876439 92.5,176.666439 C92.74,175.466439 91.42,173.056439 90.39,173.006439 C89.38,172.946439 89.06,170.416439 89.26,169.486439 C89.47,168.556439 87.42,167.976439 86.91,167.916439 C86.39,167.846439 85.12,169.156439 84.9,169.786439 C84.68,170.416439 80.04,168.926439 80.59,166.146439 C81.13,163.366439 83.33,160.496439 83.88,160.146439 C84.42,159.806439 87.4,159.646439 88.06,160.016439 C88.73,160.406439 89.32,160.006439 89.43,159.846439 C89.54,159.666439 91.98,159.866439 92.7,160.166439 C93.42,160.466439 94.47,163.266439 95.22,163.616439 C95.98,163.966439 96.25,161.806439 96.37,161.276439 C96.49,160.756439 96,159.416439 95.82,159.036439 C95.63,158.666439 97.03,155.256439 98.17,154.676439 C99.3,154.096439 100.5,152.206439 100.41,151.866439 C100.31,151.536439 101.32,151.276439 101.59,151.126439 C101.86,150.996439 101.55,148.236439 101.99,147.636439 C102.44,147.046439 104.57,145.776439 105.25,145.496439 C105.92,145.206439 106.43,143.476439 106.19,143.166439 C105.94,142.856439 107.93,141.166439 108.97,140.836439 C110,140.516439 110.9,141.426439 110.64,141.576439 C110.84,141.466439 112.27,140.726439 112.88,140.326439 C113.59,139.846439 112.89,138.566439 112.43,138.176439 C111.98,137.806439 112.25,136.316439 112.8,136.176439 C113.35,136.046439 113.83,134.746439 113.68,134.476439 C113.54,134.186439 115.96,134.696439 116.88,134.006439 C117.79,133.326439 117.14,135.656439 116.47,136.586439 C115.8,137.526439 116.97,138.416439 117.4,138.236439 C117.83,138.056439 118.3,138.726439 118.38,138.996439 C118.47,139.256439 119.4,138.716439 120.01,138.986439 C120.62,139.256439 120.98,138.146439 121.03,137.646439 C121.08,137.136439 119.57,136.076439 119.34,135.466439 C119.1,134.856439 119,131.306439 118.97,130.576439 C118.94,129.846439 117.96,128.666439 117.64,128.886439 C117.34,129.086439 116.7,126.996439 116.19,126.536439 C115.68,126.086439 115.56,125.076439 115.58,124.736439 C115.61,124.406439 113.87,122.586439 113.44,121.736439 C113.03,120.896439 112.44,121.076439 112.4,121.456439 C112.36,121.846439 111.15,121.896439 110.66,121.846439 C110.15,121.806439 109.75,119.876439 109.75,119.156439 C109.75,118.426439 107.5,118.306439 107.13,117.716439 C106.77,117.136439 105.3,117.406439 105.07,117.006439 C104.84,116.596439 103.54,116.226439 103.29,116.376439 C103.02,116.526439 103.15,121.736439 102.9,123.146439 C102.65,124.556439 101.46,125.786439 101.02,125.756439 C100.59,125.726439 100.85,126.756439 101.15,126.666439 C101.46,126.576439 100.31,128.206439 100.15,129.276439 C100,130.336439 98.92,129.226439 98.74,128.256439 C98.57,127.286439 97.51,125.976439 97.31,126.306439 C97.11,126.636439 96.37,125.906439 96.06,126.116439 C95.75,126.326439 93.74,124.956439 92.93,124.506439 C92.13,124.086439 91.67,121.596439 91.2,121.386439 C90.74,121.156439 91.13,120.866439 91.12,120.486439 C91.1,120.106439 92.68,118.666439 93.16,118.096439 C93.63,117.526439 95.37,115.266439 96.06,114.786439 C96.75,114.286439 97.29,113.006439 97.16,112.766439 C97.05,112.526439 100.11,111.576439 100.94,111.286439 C101.77,111.006439 102.48,108.696439 102.59,108.026439 C102.71,107.366439 102.07,106.106439 101.69,105.946439 C101.3,105.776439 102.85,105.716439 103.36,105.976439 C103.87,106.226439 105.45,105.506439 106.08,105.836439 C106.69,106.166439 107.95,106.916439 108.87,107.486439 C108.87,107.486439 108.87,107.486439 108.66,109.186439 L108.3,112.066439 C105.88,113.066439 105.19,114.796439 106.04,114.756439 C106.88,114.716439 110.73,116.426439 111.82,117.206439 C112.91,117.986439 113.26,116.076439 113.58,115.436439 C113.9,114.816439 113.79,112.966439 113.53,112.596439 C113.27,112.236439 114.79,112.366439 115.21,112.776439 C115.65,113.176439 116.15,112.346439 116.48,112.206439 C116.8,112.056439 116.97,110.476439 117.14,110.156439 C117.32,109.836439 116.43,109.506439 116.4,109.116439 C116.37,108.716439 114.64,107.966439 114.08,107.696439 C113.51,107.426439 113.38,106.236439 113.66,106.026439 C113.93,105.816439 113.47,104.296439 113.19,103.796439 C112.91,103.296439 111.11,102.886439 110.5,102.886439 C109.9,102.886439 109.28,101.486439 108.93,101.286439 C108.58,101.086439 106.26,100.826439 105.69,100.996439 C105.11,101.166439 104.06,99.3464394 103.09,99.9064394 C102.12,100.456439 101.12,99.2564394 100.68,99.0164394 C100.24,98.7764394 97.97,101.216439 98,102.926439 C98.02,104.646439 98.87,106.296439 99.23,106.346439 C99.59,106.386439 99.15,107.936439 98.75,108.376439 C98.37,108.816439 97.41,107.916439 97.77,107.526439 C98.13,107.136439 96.79,105.346439 96.32,104.616439 C95.99,104.086439 94.81,103.626439 94.01,103.306439 C93.55,103.806439 93.09,104.326439 92.64,104.846439 C92.81,105.466439 93.02,106.276439 92.82,106.896439 C92.48,107.936439 91.61,108.096439 91.55,107.646439 C91.53,107.446439 91.09,107.296439 90.57,107.216439 C90.1,107.786439 89.64,108.376439 89.18,108.956439 C88.73,109.516439 88.28,110.086439 87.83,110.666439 C87.36,111.286439 86.89,111.906439 86.44,112.536439 C86.02,113.106439 85.62,113.676439 85.22,114.246439 C84.62,115.096439 84.04,115.956439 83.46,116.826439 C82.92,117.656439 82.37,118.496439 81.85,119.346439 C81.4,120.066439 80.97,120.816439 80.54,121.546439 C80.24,122.056439 79.94,122.576439 79.65,123.086439 C79.22,123.866439 78.79,124.646439 78.37,125.426439 C78.14,125.876439 77.91,126.326439 77.69,126.776439 C76.74,128.626439 75.84,130.506439 75,132.426439 L74.93,132.586439 C74.52,133.526439 74.13,134.476439 73.75,135.436439 C73.6,135.796439 73.46,136.166439 73.32,136.526439 C72.94,137.506439 72.57,138.496439 72.22,139.496439 C72.16,139.656439 72.1,139.826439 72.05,139.996439 C70.89,143.336439 69.9,146.746439 69.08,150.226439 C69.02,150.466439 68.97,150.696439 68.92,150.926439 C68.09,154.536439 67.45,158.206439 67.02,161.936439 L67,162.006439 C67.51,162.586439 68.08,163.276439 68.24,163.766439 C68.52,164.676439 70.12,165.286439 70.42,165.476439 C70.72,165.656439 70.83,163.716439 70.61,163.206439 C70.41,162.706439 71,162.396439 70.99,162.766439 C70.97,163.146439 72.5,164.856439 72.99,165.476439 C73.49,166.096439 74.01,170.096439 74.49,170.946439 C74.96,171.806439 79.58,173.586439 81.07,173.896439 C82.55,174.216439 84.42,175.876439 84.72,176.356439 C85,176.836439 86.98,177.076439 87.4,177.266439 C87.83,177.456439 88.84,178.796439 89.26,179.076439 C89.68,179.356439 90.01,180.156439 90.01,180.366439 C90.01,180.576439 92.62,181.566439 93.25,182.256439 C93.88,182.956439 94.92,182.766439 95.12,182.476439 C95.32,182.176439 95.83,183.856439 96.1,184.436439 C96.37,185.016439 96.43,186.446439 96.23,186.666439 C96.03,186.886439 95.65,189.516439 95.21,190.036439 C94.76,190.566439 93.84,194.376439 94.04,195.126439 C94.24,195.876439 95.46,197.436439 95.99,197.666439 C96.52,197.896439 96.3,198.706439 95.88,198.766439 C95.46,198.816439 95.66,202.456439 96.64,202.996439 C97.62,203.536439 98.44,205.146439 98.3,205.416439" id="Fill-2876-2" fill="#D1ECFB" sketch:type="MSShapeGroup"></path>
        <path d="M104.01,97.4302916 C105.26,97.2202916 107.35,96.8702916 107.49,96.5202916 C107.6,96.2302916 107.61,95.3702916 107.37,95.0702916 C107.57,95.0802916 107.81,95.0902916 107.99,95.0902916 C108.46,95.0902916 109.25,92.4802916 109.76,91.8702916 C110.26,91.2602916 113.13,90.3602916 113.81,89.9502916 C114.49,89.5302916 115.99,88.0902916 116.57,87.9302916 C117.14,87.7502916 117.98,86.4202916 117.85,86.1402916 C117.72,85.8802916 119.79,84.6202916 120.58,84.2902916 C121.36,83.9502916 121.77,83.0302916 121.47,83.0002916 C121.29,82.9702916 116.91,85.2602916 112.9,87.5402916 L112.79,87.6202916 C111.64,88.4002916 110.51,89.2102916 109.39,90.0302916 C108.64,90.5902916 107.9,91.1802916 107.16,91.7602916 C106.76,92.0702916 106.37,92.3702916 105.98,92.6902916 C105.1,93.4002916 104.23,94.1302916 103.37,94.8702916 C103.19,95.0202916 103.01,95.1802916 102.83,95.3402916 C101.87,96.1702916 100.93,97.0202916 100,97.8902916 C101.25,97.8002916 103.18,97.5702916 104.01,97.4302916" id="Fill-2878-2" fill="#D1ECFB" sketch:type="MSShapeGroup"></path>
        <path d="M170.12234,148.8 C169.63234,148.78 169.61234,150.28 170.13234,150.45 C170.50234,150.56 170.98234,149.61 171.42234,148.98 L171.42234,143.14 L171.30234,143.01 C170.68234,142.38 170.78234,142.37 171.42234,142.85 L171.42234,107 C170.89234,107.49 170.37234,107.96 170.04234,108.21 C169.19234,108.89 167.69234,111.8 167.21234,112.5 C166.71234,113.19 166.01234,113.32 165.72234,113.34 C165.44234,113.35 165.20234,114.13 165.20234,114.42 C165.20234,114.7 162.67234,116.02 162.41234,117.17 C162.14234,118.33 162.65234,120.96 162.65234,121.89 C162.65234,122.83 163.59234,124.68 164.30234,124.71 C165.00234,124.74 164.63234,126.3 164.45234,126.73 C164.27234,127.17 164.89234,127.65 164.87234,128.02 C164.85234,128.4 163.09234,128.92 162.55234,129.13 C162.00234,129.33 161.12234,130.56 161.01234,131.02 C160.91234,131.41 159.21234,131.7 158.66234,132.23 C158.80234,131.85 158.98234,131.31 159.14234,131.01 C159.46234,130.39 159.01234,129.32 158.75234,129.11 C158.48234,128.88 158.36234,125.83 157.93234,125.18 C157.50234,124.53 156.43234,123.42 156.17234,123.2 C155.91234,122.99 156.36234,122.19 156.51234,121.84 C156.66234,121.51 155.09234,121.31 154.66234,121.56 C154.23234,121.82 153.99234,124.83 153.81234,125.66 C153.63234,126.48 154.59234,127.75 154.85234,127.81 C155.11234,127.87 155.04234,129.36 154.49234,129.41 C153.93234,129.46 153.43234,131.63 153.71234,132.12 C154.00234,132.62 153.32234,133.59 152.99234,133.82 C152.66234,134.04 155.11234,133.91 156.23234,133.88 C157.34234,133.85 158.22234,134.35 158.10234,134.44 C157.98234,134.54 155.96234,134.83 155.60234,135.31 C155.25234,135.79 153.87234,136.71 153.60234,137.08 C153.34234,137.45 154.06234,138.26 154.64234,138.22 C155.22234,138.19 155.88234,140.23 156.33234,140.61 C156.79234,140.99 156.62234,142.05 156.42234,142.34 C156.22234,142.63 153.49234,142.15 152.45234,142.4 C151.41234,142.66 150.10234,144.85 150.02234,145.68 C149.92234,146.51 150.18234,148.89 150.32234,149.55 C150.45234,150.2 152.62234,150.61 153.06234,150.94 C153.51234,151.25 155.58234,150.94 156.02234,151.15 C156.44234,151.35 157.85234,149.04 158.12234,147.97 C158.39234,146.89 160.61234,144.93 161.07234,144.19 C161.53234,143.46 163.92234,143.55 164.51234,143.17 C165.10234,142.79 164.77234,144.98 165.05234,146.18 C165.34234,147.39 167.62234,147.24 167.28234,146.1 C166.95234,144.98 167.51234,144.49 167.60234,144.89 C167.69234,145.3 169.89234,146.2 170.31234,146.83 C170.72234,147.47 170.60234,148.82 170.12234,148.8" id="Fill-2879-2" fill="#D1ECFB" sketch:type="MSShapeGroup"></path>
        <path d="M170.81,156.174755 C170.36,155.944755 169.94,155.734755 169.62,155.594755 C168.27,155.024755 167.21,152.964755 166.94,152.704755 C166.66,152.424755 167.16,151.764755 167.04,151.364755 C166.91,150.954755 163.83,150.874755 162.94,151.204755 C162.04,151.534755 157.42,152.014755 156.33,152.494755 C155.23,152.984755 153.59,152.464755 153.08,152.374755 C152.57,152.284755 151.35,153.794755 150.73,154.064755 C150.1,154.344755 149.32,156.474755 148.98,158.824755 C148.98,158.824755 148.98,158.824755 148.14,160.454755 L147.59,161.504755 C146.07,162.664755 144.38,166.534755 143.89,167.304755 C143.39,168.084755 143,173.664755 143,175.534755 C143,177.404755 144.63,181.374755 145.09,182.474755 C145.55,183.564755 148.38,185.984755 149.33,186.564755 C150.27,187.134755 153.34,187.214755 154.35,187.214755 C155.35,187.204755 156.5,186.254755 156.89,185.084755 C156.89,185.084755 156.89,185.084755 158.37,185.234755 L159.05,185.304755 C159.08,186.124755 161.26,186.794755 161.8,187.074755 C162.33,187.374755 163.76,187.144755 164.19,187.024755 C164.61,186.904755 165.09,190.754755 164.78,191.864755 C164.47,192.974755 165.54,196.884755 165.85,198.054755 C166.17,199.234755 167.5,202.444755 167.64,203.594755 C167.77,204.754755 166.86,208.584755 166.71,209.924755 C166.55,211.274755 168.38,215.034755 168.86,216.324755 C169.34,217.614755 169.73,220.394755 169.73,221.034755 C169.73,221.364755 170.24,222.524755 170.81,223.804755 L170.81,156.174755" id="Fill-2880-2" fill="#D1ECFB" sketch:type="MSShapeGroup"></path>
        <path d="M118.002635,248.074707 L119.442635,248.074707 C119.692635,246.514707 117.922635,246.774707 118.002635,248.074707" id="Fill-2881-2" fill="#D1ECFB" sketch:type="MSShapeGroup"></path>
        <path d="M146.191591,104.752729 C146.931591,105.042729 148.321591,104.032729 147.791591,103.632729 C147.251591,103.252729 147.541591,103.262729 147.791591,103.422729 C148.051591,103.592729 148.321591,102.132729 148.041591,101.852729 C147.761591,101.582729 150.201591,99.802729 149.771591,98.122729 C149.341591,96.442729 150.431591,94.722729 151.091591,94.702729 C151.741591,94.682729 151.551591,92.802729 150.771591,92.632729 C149.981591,92.452729 150.721591,92.282729 151.011591,92.012729 C151.311591,91.752729 151.681591,90.072729 151.511591,89.752729 C151.331591,89.432729 152.701591,89.062729 152.941591,88.682729 C153.191591,88.302729 154.761591,87.552729 155.311591,87.432729 C155.861591,87.302729 156.171591,85.832729 155.571591,85.892729 C154.961591,85.972729 153.401591,85.662729 153.131591,85.372729 C152.861591,85.082729 150.521591,84.822729 149.841591,85.112729 C149.171591,85.402729 149.631591,83.462729 150.571591,83.252729 C151.511591,83.042729 150.711591,81.712729 149.721591,81.712729 C148.711591,81.702729 146.241591,81.342729 145.661591,81.472729 C145.081591,81.592729 143.941591,81.062729 143.531591,81.002729 C143.111591,80.942729 140.141591,81.892729 138.741591,81.822729 C137.341591,81.762729 133.881591,81.902729 133.141591,82.112729 C132.391591,82.312729 131.851591,83.772729 131.961591,84.282729 C132.061591,84.812729 128.611591,84.802729 127.541591,84.812729 C126.451591,84.822729 120.671591,86.062729 119.161591,86.892729 C117.651591,87.712729 116.471591,89.842729 116.971591,89.882729 C117.481591,89.922729 116.141591,91.122729 115.331591,91.402729 C114.521591,91.682729 112.581591,91.802729 112.121591,92.262729 C111.671591,92.712729 112.601591,93.022729 112.791591,93.332729 C112.971591,93.632729 113.511591,93.072729 114.021591,93.362729 C114.531591,93.652729 116.211591,93.782729 116.661591,93.962729 C117.111591,94.132729 115.231591,94.492729 114.351591,94.552729 C113.461591,94.612729 113.661591,96.352729 114.381591,96.592729 C115.101591,96.832729 116.951591,97.092729 117.141591,96.782729 C117.331591,96.482729 119.351591,97.112729 120.251591,97.222729 C121.161591,97.322729 121.851591,99.592729 122.121591,100.082729 C122.411591,100.572729 122.461591,102.302729 122.391591,102.802729 C122.331591,103.302729 123.991591,104.212729 124.301591,103.902729 C124.591591,103.582729 124.511591,104.682729 123.841591,104.622729 C123.181591,104.562729 123.611591,106.482729 124.441591,106.762729 C125.251591,107.032729 124.691591,108.222729 124.221591,108.582729 C123.751591,108.932729 124.001591,110.062729 123.511591,110.472729 C123.031591,110.872729 125.241591,114.702729 125.221591,116.662729 C125.211591,118.632729 126.441591,120.232729 126.901591,120.232729 C127.381591,120.232729 128.991591,120.632729 129.201591,121.052729 C129.421591,121.472729 130.201591,120.762729 130.511591,120.432729 C130.811591,120.112729 131.471591,119.172729 131.961591,118.342729 C132.461591,117.502729 133.571591,113.562729 133.721591,113.142729 C133.871591,112.712729 135.721591,112.982729 136.141591,112.762729 C136.561591,112.552729 137.771591,111.592729 138.121591,111.312729 C138.461591,111.022729 141.101591,109.912729 141.831591,109.382729 C142.541591,108.872729 143.741591,106.632729 144.311591,106.152729 C144.861591,105.672729 144.021591,105.812729 143.311591,105.352729 C142.611591,104.892729 142.921591,104.332729 143.131591,104.112729 C143.331591,103.902729 145.461591,104.472729 146.191591,104.752729" id="Fill-2882-2" fill="#D1ECFB" sketch:type="MSShapeGroup"></path>
        <path d="M169.325064,87.0459427 C168.575064,86.7959427 167.065064,87.6259427 167.255064,88.0959427 C167.455064,88.5659427 166.025064,87.4859427 165.035064,88.0059427 C164.035064,88.5259427 163.755064,90.2659427 164.215064,90.4959427 C164.675064,90.7259427 165.005064,92.1159427 165.015064,92.3859427 C165.035064,92.6559427 166.955064,92.4559427 167.445064,92.0559427 C167.935064,91.6459427 167.865064,93.4659427 167.385064,93.9559427 C166.905064,94.4459427 167.565064,95.4259427 168.105064,95.5159427 C168.635064,95.5859427 169.365064,96.8459427 169.915064,96.8359427 C170.185064,96.8259427 170.555064,96.2859427 170.895064,95.6559427 L170.895064,89.2359427 L170.885064,89.2359427 C170.455064,89.1759427 170.065064,87.2959427 169.325064,87.0459427" id="Fill-2883-2" fill="#D1ECFB" sketch:type="MSShapeGroup"></path>
        <path d="M151.050674,130.71 C151.630674,130.61 152.080674,130.14 152.060674,129.65 C152.030674,129.18 151.200674,127 150.870674,127 C150.550674,127 149.920674,128.6 149.530674,128.44 C149.140674,128.28 148.930674,129.74 149.020674,130.3 C149.110674,130.85 150.470674,130.8 151.050674,130.71" id="Fill-2884-2" fill="#D1ECFB" sketch:type="MSShapeGroup"></path>
        <path d="M149.153983,114.637656 C149.353983,115.207656 150.093983,115.587656 150.793983,115.477656 C151.483983,115.357656 152.883983,114.637656 153.383983,114.587656 C153.873983,114.537656 154.413983,112.067656 154.103983,111.537656 C153.803983,110.997656 151.483983,111.067656 150.913983,111.027656 C150.353983,110.997656 148.613983,110.417656 148.283983,110.047656 C147.963983,109.687656 147.703983,111.477656 147.183983,111.717656 C146.643983,111.947656 147.443983,112.287656 147.653983,112.097656 C147.873983,111.907656 147.643983,113.017656 147.403983,113.397656 C147.163983,113.787656 148.943983,114.047656 149.153983,114.637656" id="Fill-2885-2" fill="#D1ECFB" sketch:type="MSShapeGroup"></path>
        <path d="M98.1512545,115.05402 C97.7912545,115.39402 98.1012545,117.09402 98.7912545,117.14402 C99.4912545,117.19402 100.601254,114.58402 101.441254,115.10402 C102.291254,115.62402 102.871254,115.83402 102.731254,115.55402 C102.581254,115.28402 100.171254,114.21402 99.8712545,114.02402 C99.5712545,113.84402 98.5212545,114.72402 98.1512545,115.05402" id="Fill-2886-2" fill="#D1ECFB" sketch:type="MSShapeGroup"></path>
        <path d="M107,172.05 C107,172.34 108.52,172.3 108.76,171.84 C109,171.37 108.87,171 108.47,171 C108.07,171 107,171.76 107,172.05" id="Fill-2887-2" fill="#D1ECFB" sketch:type="MSShapeGroup"></path>
        <path d="M99.6402975,170.3 C100.360298,170.16 100.010298,171.33 100.190298,171.75 C100.370298,172.17 102.100298,172.51 102.440298,172.79 C102.790298,173.07 103.690298,172.26 104.380298,172.35 C105.070298,172.43 104.150298,169.95 102.990298,170.02 C101.830298,170.1 100.910298,168.97 100.640298,168.83 C100.350298,168.71 99.0102975,167.89 98.6202975,167.58 C98.2402975,167.27 95.2902975,167 94.2802975,167 C93.2702975,167 92.1702975,168.03 92.0102975,168.37 C91.8502975,168.71 93.6002975,168.93 94.1002975,168.67 C94.6102975,168.4 96.9502975,168.96 97.4302975,169.53 C97.9102975,170.09 98.9002975,170.44 99.6402975,170.3" id="Fill-2888-2" fill="#D1ECFB" sketch:type="MSShapeGroup"></path>
        <path d="M97,172.534595 C97,172.824595 98.53,172.644595 98.9,172.654595 C99.27,172.664595 99.25,172.414595 98.87,172.104595 C98.49,171.794595 97,172.244595 97,172.534595" id="Fill-2889-2" fill="#D1ECFB" sketch:type="MSShapeGroup"></path>
        <path d="M97.71,164.025953 C97.32,163.865953 97,164.485953 97,164.785953 C97,165.075953 97.21,165.315953 97.48,165.315953 C97.75,165.315953 98.11,164.185953 97.71,164.025953" id="Fill-2890-2" fill="#D1ECFB" sketch:type="MSShapeGroup"></path>
        <path d="M101.294057,164.53 C101.154057,164.24 100.504057,164 100.304057,164 C100.114057,164 99.9740571,164.51 100.004057,165.12 C100.044057,165.73 101.424057,164.82 101.294057,164.53" id="Fill-2891-2" fill="#D1ECFB" sketch:type="MSShapeGroup"></path>
        <path d="M102.84,168.230456 C103.46,167.940456 103.53,167.200456 103.17,167.240456 C102.8,167.280456 102.12,166.180456 101.72,166.020456 C101.33,165.860456 101,166.680456 101,167.040456 C101,167.400456 101.23,167.640456 101.5,167.570456 C101.77,167.500456 102.22,168.520456 102.84,168.230456" id="Fill-2892-2" fill="#D1ECFB" sketch:type="MSShapeGroup"></path>
        <path id="Fill-2893-2" fill="#ADE2DC" sketch:type="MSShapeGroup" d="M107.39151,96.0193659 C107.29151,95.9193659 106.85151,96.2293659 107.05151,96.4293659 C107.14151,96.5593659 107.57151,96.2393659 107.39151,96.0193659"></path>
        <path id="Fill-2894-2" fill="#ADE2DC" sketch:type="MSShapeGroup" d="M118.402093,130.028848 C118.312093,129.898848 117.862093,130.238848 118.042093,130.438848 C118.142093,130.558848 118.592093,130.238848 118.402093,130.028848"></path>
        <path d="M72.8232826,269.014125 C60.1032826,269.014125 50.4932826,265.414125 44.7332826,258.264125 C32.5232826,243.104125 40.0732826,213.594125 64.9232826,179.334125 C65.2532826,178.874125 65.8932826,178.774125 66.3432826,179.104125 C66.8032826,179.434125 66.9032826,180.074125 66.5732826,180.534125 C42.2932826,214.004125 34.7232826,242.584125 46.3232826,256.984125 C66.2132826,281.694125 135.243283,259.234125 200.203283,206.924125 C273.163283,148.174125 308.193283,86.1641247 317.193283,68.5541247 C317.453283,68.0541247 318.063283,67.8541247 318.563283,68.1141247 C319.063283,68.3641247 319.263283,68.9841247 319.013283,69.4841247 C309.963283,87.1841247 274.753283,149.504125 201.473283,208.514125 C169.703283,234.104125 135.983283,253.404125 106.533283,262.864125 C93.7532826,266.974125 82.4032826,269.014125 72.8232826,269.014125" id="Fill-2895-2" fill="#FFFFFF" sketch:type="MSShapeGroup"></path>
        <path d="M73.0872092,256.837794 C63.6972092,256.837794 56.5072092,254.237794 51.9672092,249.027794 C42.1872092,237.817794 46.9872092,214.537794 65.1472092,185.157794 C65.4172092,184.717794 65.9872092,184.587794 66.4172092,184.857794 C66.8572092,185.127794 66.9972092,185.697794 66.7272092,186.127794 C49.2872092,214.347794 44.2872092,237.407794 53.3672092,247.807794 C71.5272092,268.627794 135.077209,242.997794 195.027209,190.687794 C262.357209,131.937794 294.847209,73.1377943 303.197209,56.5177943 C303.427209,56.0577943 303.977209,55.8677943 304.447209,56.0977943 C304.907209,56.3277943 305.087209,56.8877943 304.857209,57.3477943 C296.467209,74.0477943 263.837209,133.117794 196.247209,192.087794 C166.947209,217.657794 135.877209,237.697794 108.777209,248.507794 C94.8572092,254.057794 82.7972092,256.837794 73.0872092,256.837794" id="Fill-2896-2" fill="#FFFFFF" sketch:type="MSShapeGroup"></path>
        <path d="M301.9,80.7530846 C312.89,88.5730846 317.42,102.093085 314.32,114.443085 C317.54,112.333085 320.44,109.603085 322.8,106.273085 C332.99,91.9430846 329.63,72.0730846 315.31,61.8930846 C300.98,51.7030846 281.11,55.0630846 270.93,69.3830846 C268.56,72.7130846 266.93,76.3430846 266,80.0830846 C276.64,73.1030846 290.9,72.9330846 301.9,80.7530846" id="Fill-2897-2" fill="#2C5871" sketch:type="MSShapeGroup"></path>
        <path d="M321.42,68 L308,86.87 C314.53,94.71 316.87,105.21 314.42,114.98 C317.64,112.87 320.54,110.14 322.9,106.81 C331.46,94.77 330.46,78.82 321.42,68" id="Fill-2898-2" fill="#0E303F" sketch:type="MSShapeGroup"></path>
        <path d="M300.16,84.15 C303.35,86.42 306.07,89.11 308.3,92.08 C318.76,86.45 329.3,77.1 337.99,64.87 C351.8,45.45 357.24,24 353.6,9 C338.23,10.48 319.75,22.67 305.94,42.09 C297.25,54.31 291.88,67.34 290,79.06 C293.54,80.2 296.97,81.89 300.16,84.15" id="Fill-2899-2" fill="#F95360" sketch:type="MSShapeGroup"></path>
        <path d="M353.54,9 L353.39,9.02 L300,84.09 L300.1,84.15 C303.29,86.42 306.01,89.11 308.24,92.08 C318.7,86.45 329.24,77.1 337.93,64.87 C351.74,45.45 357.18,24 353.54,9" id="Fill-2900-2" fill="#E61A4B" sketch:type="MSShapeGroup"></path>
        <path d="M340.1,27.38 C344.13,30.25 347.98,33.2 351.65,36.19 C354.5,26.19 355.06,16.73 353.18,9 C345.25,9.76 336.5,13.39 328,19.37 C332.03,21.85 336.08,24.52 340.1,27.38" id="Fill-2901-2" fill="#2C5871" sketch:type="MSShapeGroup"></path>
        <path d="M353.02,9.01 L340,27.32 L340.09,27.38 C344.12,30.25 347.97,33.2 351.64,36.19 C354.49,26.19 355.05,16.73 353.17,9 L353.02,9.01" id="Fill-2902-2" fill="#0E303F" sketch:type="MSShapeGroup"></path>
        <path d="M316.32,61 C311.84,62.98 305.47,68.98 299.72,77.06 C293.98,85.13 290.41,93.12 290,98 C294.49,96.02 300.86,90.02 306.6,81.95 C312.34,73.87 315.92,65.88 316.32,61" id="Fill-2903-2" fill="#2C5871" sketch:type="MSShapeGroup"></path>
        <path d="M316.1,61.1 L290.03,97.77 L290,98 C294.49,96.02 300.86,90.02 306.6,81.95 C312.34,73.87 315.92,65.88 316.32,61 L316.1,61.1" id="Fill-2904-2" fill="#0E303F" sketch:type="MSShapeGroup"></path>
        <path d="M321.642259,54.0494713 C316.672259,50.5194713 315.512259,43.6094713 319.042259,38.6394713 C322.572259,33.6794713 329.482259,32.5094713 334.442259,36.0394713 C339.412259,39.5694713 340.582259,46.4794713 337.052259,51.4494713 C333.512259,56.4094713 326.602259,57.5794713 321.642259,54.0494713" id="Fill-2905-2" fill="#174F78" sketch:type="MSShapeGroup"></path>
        <path d="M332.12574,38.4157403 C328.67574,35.9657403 323.87574,36.7757403 321.41574,40.2257403 C318.96574,43.6757403 319.77574,48.4757403 323.22574,50.9257403 C326.67574,53.3757403 331.47574,52.5757403 333.93574,49.1157403 C336.38574,45.6657403 335.57574,40.8657403 332.12574,38.4157403" id="Fill-2906-2" fill="#FFFFFF" sketch:type="MSShapeGroup"></path>
        <path d="M334.89,36.06 L334.8,36 L332.85,38.75 L332.94,38.81 C336.39,41.26 337.2,46.06 334.75,49.51 C332.29,52.97 327.49,53.77 324.04,51.32 L323.95,51.25 L322,54 L322.09,54.07 C327.05,57.6 333.96,56.43 337.5,51.47 C341.03,46.5 339.86,39.59 334.89,36.06" id="Fill-2907-2" fill="#103754" sketch:type="MSShapeGroup"></path>
        <path d="M333.8,48.76 C336.25,45.31 335.44,40.51 331.99,38.06 L331.9,38 L323,50.5 L323.09,50.57 C326.54,53.02 331.34,52.22 333.8,48.76" id="Fill-2908-2" fill="#D1ECFB" sketch:type="MSShapeGroup"></path>
        <path d="M223.45,34 L222.11,42.11 L214,43.44 L222.11,44.77 L223.45,52.89 L224.78,44.77 L232.89,43.44 L224.78,42.11 L223.45,34" id="Fill-2909-2" fill="#CCCCCC" sketch:type="MSShapeGroup"></path>
        <path d="M60.45,88 L59.11,96.11 L51,97.45 L59.11,98.78 L60.45,106.89 L61.77,98.78 L69.88,97.45 L61.77,96.11 L60.45,88" id="Fill-2910-2" fill="#FFFFFF" sketch:type="MSShapeGroup"></path>
        <path d="M248.91,27 L248.21,31.21 L244,31.91 L248.21,32.6 L248.91,36.82 L249.6,32.6 L253.81,31.91 L249.6,31.21 L248.91,27" id="Fill-2911-2" fill="#CCCCCC" sketch:type="MSShapeGroup"></path>
        <path d="M316.45,154 L315.11,162.12 L307,163.45 L315.11,164.78 L316.45,172.89 L317.78,164.78 L325.89,163.45 L317.78,162.12 L316.45,154" id="Fill-2912-2" fill="#CCCCCC" sketch:type="MSShapeGroup"></path>
        <path d="M300.9,199 L300.21,203.21 L296,203.91 L300.21,204.6 L300.9,208.82 L301.59,204.6 L305.81,203.91 L301.59,203.21 L300.9,199" id="Fill-2913-2" fill="#FFFFFF" sketch:type="MSShapeGroup"></path>
        <path d="M46.9,130 L46.21,134.21 L42,134.91 L46.21,135.6 L46.9,139.82 L47.6,135.6 L51.81,134.91 L47.6,134.21 L46.9,130" id="Fill-2914-2" fill="#CCCCCC" sketch:type="MSShapeGroup"></path>
        <path d="M335.45,242 L334.11,250.12 L326,251.45 L334.11,252.78 L335.45,260.9 L336.78,252.78 L344.89,251.45 L336.78,250.12 L335.45,242" id="Fill-2915-2" fill="#FFFFFF" sketch:type="MSShapeGroup"></path>
        <path d="M88.45,0 L87.11,8.11 L79,9.44 L87.11,10.77 L88.45,18.89 L89.78,10.77 L97.89,9.44 L89.78,8.11 L88.45,0" id="Fill-2916-2" fill="#FFFFFF" sketch:type="MSShapeGroup"></path>
        <path d="M124.91,37 L124.21,41.22 L120,41.91 L124.21,42.61 L124.91,46.82 L125.6,42.61 L129.81,41.91 L125.6,41.22 L124.91,37" id="Fill-2917-2" fill="#CCCCCC" sketch:type="MSShapeGroup"></path>
    </g>
</svg>