<?xml version="1.0" encoding="UTF-8" standalone="no"?><!DOCTYPE svg PUBLIC "-//W3C//DTD SVG 1.1//EN" "http://www.w3.org/Graphics/SVG/1.1/DTD/svg11.dtd"><svg width="100%" height="100%" viewBox="0 0 24 24" version="1.1" xmlns="http://www.w3.org/2000/svg" xmlns:xlink="http://www.w3.org/1999/xlink" xml:space="preserve" style="fill-rule:evenodd;clip-rule:evenodd;stroke-linejoin:round;stroke-miterlimit:1.41421;"><rect x="0" y="0" width="24" height="24" style="fill:none;"/><g><path d="M8,4l0,5.535l3.446,2.297l1.109,-1.664l-2.555,-1.703l0,-4.465l-2,0l0,0Z" style="fill:#ddd;fill-rule:nonzero;"/><path d="M15.315,12l2.16,0c0.334,-0.94 0.525,-1.947 0.525,-3c0,-4.962 -4.037,-9 -9,-9c-4.963,0 -9,4.038 -9,9c0,4.962 4.038,9 9,9c1.053,0 2.06,-0.191 3,-0.524l0,-2.161c-0.911,0.435 -1.925,0.685 -3,0.685c-3.86,0 -7,-3.14 -7,-7c0,-3.86 3.14,-7 7,-7c3.859,0 7,3.14 7,7c0,1.075 -0.25,2.09 -0.685,3Z" style="fill:#ddd;fill-rule:nonzero;"/><path d="M19,14.585l-4.707,4.707l1.414,1.414l2.293,-2.293l0,5.587l2,0l0,-5.587l2.293,2.293l1.414,-1.414l-4.707,-4.707Z" style="fill:#ddd;fill-rule:nonzero;"/></g></svg>