<?xml version="1.0" encoding="UTF-8" standalone="no"?><!DOCTYPE svg PUBLIC "-//W3C//DTD SVG 1.1//EN" "http://www.w3.org/Graphics/SVG/1.1/DTD/svg11.dtd"><svg width="100%" height="100%" viewBox="0 0 356 239" version="1.1" xmlns="http://www.w3.org/2000/svg" xmlns:xlink="http://www.w3.org/1999/xlink" xml:space="preserve" style="fill-rule:evenodd;clip-rule:evenodd;stroke-linejoin:round;stroke-miterlimit:1.41421;"><path d="M163.247,27.472l-110.548,27.604l0,24.434l13.471,9.509c7.529,5.283 20.076,14.133 28.001,19.812l14.396,10.17l-12.283,3.17c-6.868,1.717 -17.038,4.226 -22.849,5.415l-10.434,2.377l-30.114,-21c-16.642,-11.491 -30.774,-21 -31.566,-21c-0.925,0 -1.321,18.358 -1.321,53.359l0.132,53.359l31.566,22.188l31.567,22.057l141.321,-35.264c77.794,-19.415 143.568,-35.925 146.341,-36.585l4.755,-1.321l0,-54.152c0,-29.717 -0.132,-54.151 -0.396,-54.151c-0.132,0 -10.566,2.642 -23.114,5.811l-22.849,5.68l-0.396,24.302l-0.396,24.434l-95.624,23.906c-52.698,13.207 -96.151,24.038 -96.812,24.038c-0.528,0 -0.924,-7.397 -0.924,-16.51l0,-16.641l5.151,-1.321c2.905,-0.793 38.302,-9.642 78.717,-19.68c40.416,-10.037 73.963,-18.754 74.491,-19.283c0.661,-0.396 0.925,-21.396 0.793,-46.491l-0.396,-45.698l-110.68,27.472l0,0Z" style="fill:#444;fill-rule:nonzero;"/></svg>