<?xml version="1.0" encoding="UTF-8" standalone="no"?>
<svg width="311px" height="307px" viewBox="0 0 311 307" version="1.1" xmlns="http://www.w3.org/2000/svg" xmlns:xlink="http://www.w3.org/1999/xlink" xmlns:sketch="http://www.bohemiancoding.com/sketch/ns">
    <!-- Generator: Sketch 3.1 (8751) - http://www.bohemiancoding.com/sketch -->
    <title>Slice 2</title>
    <desc>Created with Sketch.</desc>
    <defs></defs>
    <g id="Page-1" stroke="none" stroke-width="1" fill="none" fill-rule="evenodd" sketch:type="MSPage">
        <path d="M181.003,132.87 C181.212,133.07 181.485,133.18 181.759,133.18 C182.032,133.18 182.306,133.07 182.515,132.87 L225.835,89.54 C226.253,89.13 226.253,88.45 225.835,88.03 C225.417,87.62 224.741,87.62 224.323,88.03 L181.003,131.35 C180.587,131.77 180.587,132.45 181.003,132.87" id="Fill-2453-2" fill="#B3B3B3" sketch:type="MSShapeGroup"></path>
        <path d="M171.274,124.59 C171.388,124.62 171.505,124.64 171.618,124.64 C172.063,124.64 172.479,124.36 172.63,123.92 L192.407,65.93 C192.597,65.37 192.298,64.77 191.739,64.58 C191.183,64.39 190.573,64.69 190.384,65.24 L170.606,123.23 C170.417,123.79 170.716,124.39 171.274,124.59" id="Fill-2454-2" fill="#B3B3B3" sketch:type="MSShapeGroup"></path>
        <path d="M249.292,122.13 C249.101,121.57 248.491,121.27 247.937,121.46 L189.95,141.24 C189.392,141.43 189.093,142.04 189.284,142.6 C189.437,143.04 189.851,143.32 190.296,143.32 C190.409,143.32 190.525,143.3 190.64,143.26 L248.626,123.49 C249.185,123.29 249.482,122.69 249.292,122.13" id="Fill-2455-2" fill="#B3B3B3" sketch:type="MSShapeGroup"></path>
        <path d="M242.341,50.62 L269.253,73.98 L215.429,73.98 L242.341,50.62" id="Fill-2456-2" fill="#174F78" sketch:type="MSShapeGroup"></path>
        <path d="M263.468,68.87 L269.28,74.05 L269.28,108.22 C269.28,110.15 267.712,111.72 265.776,111.72 L218.905,111.72 C216.97,111.72 215.401,110.15 215.401,108.22 L215.401,74.05 L221.214,69.35" id="Fill-2457-2" fill="#FD611F" sketch:type="MSShapeGroup"></path>
        <path d="M263.468,68.87 L269.28,74.05 L269.28,108.22 C269.28,110.15 267.712,111.72 265.776,111.72 L218.905,111.72 C216.97,111.72 215.401,110.15 215.401,108.22 L215.401,74.05 L221.214,69.35" id="Fill-2458-2" fill="#174F78" sketch:type="MSShapeGroup"></path>
        <path d="M221.536,57.84 L263.147,57.84 L263.147,95.52 L221.536,95.52 L221.536,57.84 L221.536,57.84 Z" id="Fill-2459-2" fill="#FFFFFF" sketch:type="MSShapeGroup"></path>
        <path d="M227.239,65.99 L245.308,65.99 L245.308,67.34 L227.239,67.34 L227.239,65.99 L227.239,65.99 Z" id="Fill-2460-2" fill="#C1E2DE" sketch:type="MSShapeGroup"></path>
        <path d="M227.239,71.11 L257.442,71.11 L257.442,72.46 L227.239,72.46 L227.239,71.11 L227.239,71.11 Z" id="Fill-2461-2" fill="#C1E2DE" sketch:type="MSShapeGroup"></path>
        <path d="M227.239,76.24 L257.442,76.24 L257.442,77.58 L227.239,77.58 L227.239,76.24 L227.239,76.24 Z" id="Fill-2462-2" fill="#C1E2DE" sketch:type="MSShapeGroup"></path>
        <path d="M227.239,81.36 L257.442,81.36 L257.442,82.71 L227.239,82.71 L227.239,81.36 L227.239,81.36 Z" id="Fill-2463-2" fill="#C1E2DE" sketch:type="MSShapeGroup"></path>
        <path d="M227.239,86.48 L257.442,86.48 L257.442,87.83 L227.239,87.83 L227.239,86.48 L227.239,86.48 Z" id="Fill-2464-2" fill="#C1E2DE" sketch:type="MSShapeGroup"></path>
        <path d="M235.956,91.34 L215.64,109.46 C216.138,110.78 217.409,111.72 218.905,111.72 L265.776,111.72 C267.274,111.72 268.544,110.78 269.044,109.46 L248.728,91.34 L235.956,91.34" id="Fill-2465-2" fill="#1695A4" sketch:type="MSShapeGroup"></path>
        <path d="M248.829,91.43 L269.044,109.46 C268.976,109.63 268.896,109.8 268.802,109.96 L268.81,109.97 C269.106,109.45 269.28,108.86 269.28,108.22 L269.28,74.05 L248.829,91.43" id="Fill-2466-2" fill="#14B0BF" sketch:type="MSShapeGroup"></path>
        <path d="M215.64,109.46 L235.854,91.43 L215.401,74.05 L215.401,108.22 C215.401,108.86 215.575,109.45 215.872,109.97 L215.878,109.96 C215.786,109.8 215.706,109.63 215.64,109.46" id="Fill-2467-2" fill="#14B0BF" sketch:type="MSShapeGroup"></path>
        <path d="M154.452,62.79 C164.183,62.79 172.067,69 172.067,76.67 C172.067,82.21 167.935,86.98 161.982,89.21 C162.101,89.45 162.206,89.69 162.341,89.93 C163.507,91.88 165.21,93.36 167.239,94.35 C162.743,94.67 158.583,93.33 155.837,90.5 C155.38,90.52 154.919,90.55 154.452,90.55 C144.728,90.55 136.845,84.34 136.845,76.67 C136.845,69 144.728,62.79 154.452,62.79" id="Fill-2468-2" fill="#174F78" sketch:type="MSShapeGroup"></path>
        <path d="M142.331,86.73 C153.22,86.49 161.956,79.46 161.956,70.82 C161.956,68.14 161.112,65.61 159.628,63.4 C157.991,63 156.255,62.79 154.452,62.79 C144.728,62.79 136.845,69 136.845,76.67 C136.845,80.63 138.954,84.2 142.331,86.73" id="Fill-2469-2" fill="#103754" sketch:type="MSShapeGroup"></path>
        <path d="M139.421,51.39 C128.261,51.39 119.212,58.52 119.212,67.32 C119.212,73.68 123.952,79.14 130.78,81.7 C130.646,81.98 130.525,82.26 130.37,82.53 C129.034,84.77 127.079,86.46 124.753,87.61 C129.909,87.97 134.683,86.43 137.833,83.18 C138.356,83.21 138.884,83.24 139.421,83.24 C150.577,83.24 159.622,76.11 159.622,67.32 C159.622,58.52 150.577,51.39 139.421,51.39" id="Fill-2470-2" fill="#F95360" sketch:type="MSShapeGroup"></path>
        <path d="M119.214,67.37 C119.239,73.71 123.972,79.15 130.78,81.7 C130.646,81.98 130.525,82.26 130.37,82.53 C129.034,84.77 127.079,86.46 124.753,87.61 C129.909,87.97 134.683,86.43 137.833,83.18 C138.356,83.21 138.884,83.24 139.421,83.24 C150.556,83.24 159.583,76.14 159.62,67.37 L119.214,67.37" id="Fill-2471-2" fill="#E61A4B" sketch:type="MSShapeGroup"></path>
        <path d="M133.618,67.61 C133.618,69.17 132.351,70.45 130.78,70.45 C129.218,70.45 127.946,69.17 127.946,67.61 C127.946,66.04 129.218,64.77 130.78,64.77 C132.351,64.77 133.618,66.04 133.618,67.61" id="Fill-2472-2" fill="#D1ECFB" sketch:type="MSShapeGroup"></path>
        <path d="M142.316,67.61 C142.316,69.17 141.048,70.45 139.478,70.45 C137.915,70.45 136.646,69.17 136.646,67.61 C136.646,66.04 137.915,64.77 139.478,64.77 C141.048,64.77 142.316,66.04 142.316,67.61" id="Fill-2473-2" fill="#D1ECFB" sketch:type="MSShapeGroup"></path>
        <path d="M151.013,67.61 C151.013,69.17 149.745,70.45 148.177,70.45 C146.612,70.45 145.341,69.17 145.341,67.61 C145.341,66.04 146.612,64.77 148.177,64.77 C149.745,64.77 151.013,66.04 151.013,67.61" id="Fill-2474-2" fill="#D1ECFB" sketch:type="MSShapeGroup"></path>
        <path d="M127.972,67.37 L133.595,67.37 C133.472,65.92 132.267,64.77 130.78,64.77 C129.298,64.77 128.095,65.92 127.972,67.37" id="Fill-2475-2" fill="#FFFFFF" sketch:type="MSShapeGroup"></path>
        <path d="M136.669,67.37 L142.294,67.37 C142.169,65.92 140.966,64.77 139.478,64.77 C137.995,64.77 136.794,65.92 136.669,67.37" id="Fill-2476-2" fill="#FFFFFF" sketch:type="MSShapeGroup"></path>
        <path d="M145.366,67.37 L150.989,67.37 C150.866,65.92 149.663,64.77 148.177,64.77 C146.694,64.77 145.489,65.92 145.366,67.37" id="Fill-2477-2" fill="#FFFFFF" sketch:type="MSShapeGroup"></path>
        <path d="M65.101,142.65 C64.72,142.65 64.365,142.4 64.24,142.02 L52.39,105.8 L40.537,142.02 C40.382,142.5 39.869,142.76 39.396,142.6 C38.92,142.45 38.66,141.93 38.816,141.46 L51.529,102.61 C51.65,102.24 51.998,101.99 52.39,101.99 C52.781,101.99 53.129,102.24 53.25,102.61 L65.961,141.46 C66.117,141.93 65.857,142.45 65.382,142.6 C65.289,142.63 65.193,142.65 65.101,142.65" id="Fill-2478-2" fill="#B3B3B3" sketch:type="MSShapeGroup"></path>
        <path d="M43.058,142.64 L36.991,142.64 C36.491,142.64 36.086,142.24 36.086,141.74 C36.086,141.24 36.491,140.83 36.991,140.83 L43.058,140.83 C43.558,140.83 43.963,141.24 43.963,141.74 C43.963,142.24 43.558,142.64 43.058,142.64" id="Fill-2479-2" fill="#B3B3B3" sketch:type="MSShapeGroup"></path>
        <path d="M67.784,142.64 L61.72,142.64 C61.22,142.64 60.814,142.24 60.814,141.74 C60.814,141.24 61.22,140.83 61.72,140.83 L67.784,140.83 C68.284,140.83 68.689,141.24 68.689,141.74 C68.689,142.24 68.284,142.64 67.784,142.64" id="Fill-2480-2" fill="#B3B3B3" sketch:type="MSShapeGroup"></path>
        <path d="M60.509,130.66 L44.255,130.66 C43.755,130.66 43.35,130.26 43.35,129.76 C43.35,129.26 43.755,128.85 44.255,128.85 L60.509,128.85 C61.009,128.85 61.414,129.26 61.414,129.76 C61.414,130.26 61.009,130.66 60.509,130.66" id="Fill-2481-2" fill="#B3B3B3" sketch:type="MSShapeGroup"></path>
        <path d="M76.101,112.54 C75.161,112.82 73.99,113.12 72.562,113.43 C70.357,113.92 69.068,114.22 68.377,114.4 C67.721,114.59 67.087,114.94 66.499,115.45 C65.988,115.89 65.744,116.49 65.744,117.32 C65.744,118.21 66.054,118.92 66.719,119.56 C67.375,120.18 68.24,120.49 69.368,120.49 C70.656,120.49 71.851,120.2 72.92,119.63 C73.978,119.06 74.754,118.34 75.229,117.49 C75.795,116.5 76.086,114.84 76.101,112.54 L76.101,112.54 L76.101,112.54 Z M69.368,122.3 C67.773,122.3 66.462,121.82 65.469,120.87 C64.45,119.9 63.934,118.71 63.934,117.32 C63.934,115.95 64.398,114.86 65.317,114.08 C66.102,113.39 66.975,112.91 67.9,112.66 C68.635,112.46 69.91,112.16 72.17,111.67 C74.219,111.21 75.697,110.8 76.687,110.43 C76.966,110.33 77.277,110.37 77.521,110.53 C77.767,110.7 77.912,110.98 77.912,111.28 L77.912,112.35 C77.912,115.11 77.55,117.09 76.805,118.38 C76.166,119.53 75.144,120.5 73.772,121.23 C72.439,121.94 70.957,122.3 69.368,122.3 L69.368,122.3 L69.368,122.3 Z" id="Fill-2482-2" fill="#B3B3B3" sketch:type="MSShapeGroup"></path>
        <path d="M77.181,122.13 C76.681,122.13 76.275,121.72 76.275,121.22 L76.275,109.4 C76.275,106.82 74.31,104.72 71.894,104.72 L70.647,104.72 C68.891,104.72 67.308,105.84 66.616,107.56 C66.43,108.03 65.902,108.25 65.438,108.07 C64.975,107.88 64.749,107.36 64.935,106.89 C65.903,104.47 68.146,102.91 70.647,102.91 L71.894,102.91 C75.309,102.91 78.086,105.82 78.086,109.4 L78.086,121.22 C78.086,121.72 77.681,122.13 77.181,122.13" id="Fill-2483-2" fill="#B3B3B3" sketch:type="MSShapeGroup"></path>
        <path d="M158.333,243.22 C160.962,245.05 161.597,248.68 159.757,251.3 L150.878,263.99 C149.04,266.61 145.419,267.25 142.792,265.41 L110.294,242.65 C107.667,240.82 107.028,237.2 108.868,234.57 L117.747,221.89 C119.587,219.26 123.208,218.62 125.837,220.46 L158.333,243.22" id="Fill-2484-2" fill="#103754" sketch:type="MSShapeGroup"></path>
        <path d="M165.173,136.11 C159.127,136.11 154.222,141.01 154.229,147.06 C154.224,153.1 159.118,158 165.165,158 L165.182,158 C171.22,158 176.126,153.09 176.122,147.05 C176.114,141.01 171.21,136.12 165.175,136.11 L165.173,136.11" id="Fill-2485-2" fill="#174F78" sketch:type="MSShapeGroup"></path>
        <path d="M93.708,174.6 L125.905,206.8 L168.876,163.83 L119.116,114.07 C120.2,130.18 116.503,146.27 107.511,159.73 C103.585,165.6 98.911,170.56 93.708,174.6" id="Fill-2486-2" fill="#F95360" sketch:type="MSShapeGroup"></path>
        <path d="M94.604,173.48 L70.997,197.09 C61.925,206.16 61.929,220.87 70.997,229.94 L82.286,241.23 C91.354,250.29 106.062,250.29 115.13,241.22 L138.737,217.62 L94.604,173.48" id="Fill-2487-2" fill="#174F78" sketch:type="MSShapeGroup"></path>
        <path d="M202.87,193.49 C200.815,195.54 197.243,195.3 194.89,192.95 L119.276,117.33 C116.923,114.98 116.683,111.41 118.737,109.35 L122.456,105.63 C124.511,103.58 128.085,103.82 130.437,106.17 L206.052,181.79 C208.4,184.14 208.644,187.71 206.591,189.77 L202.87,193.49" id="Fill-2488-2" fill="#14B0BF" sketch:type="MSShapeGroup"></path>
        <path d="M198.04,192.99 L158.399,153.35 L115.429,196.32 L137.511,218.4 C141.548,213.2 146.507,208.52 152.38,204.6 C165.837,195.6 181.925,191.91 198.04,192.99" id="Fill-2489-2" fill="#E61A4B" sketch:type="MSShapeGroup"></path>
        <path d="M116.435,195.31 L76.405,235.34 L82.286,241.23 C91.354,250.29 106.062,250.29 115.13,241.22 L138.737,217.62 L116.435,195.31" id="Fill-2490-2" fill="#103754" sketch:type="MSShapeGroup"></path>
        <path d="M206.052,181.79 L167.999,143.73 L156.839,154.89 L194.89,192.95 C197.243,195.3 200.815,195.54 202.87,193.49 L206.591,189.77 C208.644,187.71 208.4,184.14 206.052,181.79" id="Fill-2491-2" fill="#1695A4" sketch:type="MSShapeGroup"></path>
        <path d="M124.05,239.23 C122.347,238.06 120.017,238.49 118.841,240.19 C117.671,241.89 118.103,244.23 119.806,245.4 L144.15,262.14 C145.854,263.32 148.188,262.88 149.362,261.18 C150.532,259.48 150.101,257.14 148.397,255.97 L124.05,239.23" id="Fill-2492-2" fill="#174F78" sketch:type="MSShapeGroup"></path>
        <path d="M254.269,181.02 C243.144,182.48 232.019,182.48 220.896,181.02 C219.003,172.42 219.003,163.83 220.896,155.23 C232.019,153.77 243.144,153.77 254.269,155.23 C256.159,163.83 256.159,172.42 254.269,181.02" id="Fill-2493-2" fill="#F95360" sketch:type="MSShapeGroup"></path>
        <path d="M220.896,181.02 C232.019,182.48 243.144,182.48 254.269,181.02 C255.218,176.7 255.69,172.39 255.687,168.07 L219.478,168.07 C219.474,172.39 219.946,176.7 220.896,181.02" id="Fill-2494-2" fill="#E61A4B" sketch:type="MSShapeGroup"></path>
        <path d="M244.401,167.38 C245.054,167.79 245.054,168.46 244.401,168.87 L234.747,174.93 C234.095,175.34 233.562,175.01 233.562,174.19 L233.562,162.06 C233.562,161.24 234.095,160.9 234.747,161.31 L244.401,167.38" id="Fill-2495-2" fill="#FFFFFF" sketch:type="MSShapeGroup"></path>
        <path d="M233.562,174.19 C233.562,175.01 234.095,175.34 234.747,174.93 L244.401,168.87 C244.749,168.65 244.905,168.36 244.884,168.07 L233.562,168.07 L233.562,174.19" id="Fill-2496-2" fill="#C1E2DE" sketch:type="MSShapeGroup"></path>
        <path d="M244.456,224.96 L240.849,224.96 L236.899,219.93 L224.37,219.93 L220.419,224.96 L207.382,224.96 C205.853,224.96 204.61,226.21 204.61,227.74 L204.61,251.99 C204.61,253.52 205.854,254.76 207.382,254.76 L244.456,254.76 C245.985,254.76 247.228,253.52 247.228,251.99 L247.228,227.73 C247.228,226.21 245.985,224.96 244.456,224.96" id="Fill-2497-2" fill="#174F78" sketch:type="MSShapeGroup"></path>
        <path d="M240.556,239.86 C240.556,245.34 236.114,249.78 230.636,249.78 C225.157,249.78 220.716,245.34 220.716,239.86 C220.716,234.38 225.157,229.94 230.636,229.94 C236.114,229.94 240.556,234.38 240.556,239.86" id="Fill-2498-2" fill="#103754" sketch:type="MSShapeGroup"></path>
        <path d="M239.218,239.86 C239.218,244.6 235.374,248.44 230.636,248.44 C225.896,248.44 222.054,244.6 222.052,239.86 C222.052,235.12 225.896,231.28 230.636,231.28 C235.374,231.28 239.218,235.12 239.218,239.86" id="Fill-2499-2" fill="#174F78" sketch:type="MSShapeGroup"></path>
        <path d="M237.007,239.86 C237.007,243.38 234.155,246.23 230.636,246.23 C227.114,246.23 224.259,243.38 224.259,239.86 C224.259,236.34 227.114,233.48 230.634,233.49 C234.155,233.49 237.007,236.34 237.007,239.86" id="Fill-2500-2" fill="#C1E2DE" sketch:type="MSShapeGroup"></path>
        <path d="M230.956,237.26 C230.956,238.51 229.942,239.52 228.696,239.52 C227.448,239.52 226.437,238.51 226.437,237.26 C226.437,236.01 227.446,235 228.696,235 C229.942,235 230.956,236.02 230.956,237.26" id="Fill-2501-2" fill="#FFFFFF" sketch:type="MSShapeGroup"></path>
        <path d="M227.651,240.77 C227.651,241.47 227.085,242.04 226.386,242.04 C225.688,242.04 225.122,241.47 225.122,240.77 C225.122,240.07 225.688,239.51 226.386,239.51 C227.085,239.51 227.653,240.07 227.651,240.77" id="Fill-2502-2" fill="#FFFFFF" sketch:type="MSShapeGroup"></path>
        <path d="M208.386,226.86 C207.325,226.86 206.4,226.26 205.935,225.37 C205.142,225.86 204.61,226.74 204.61,227.74 L204.61,251.99 C204.61,253.52 205.854,254.76 207.382,254.76 L215.146,254.76 L215.146,226.86 L208.386,226.86" id="Fill-2503-2" fill="#103754" sketch:type="MSShapeGroup"></path>
        <path d="M215.147,224.91 C215.146,225.36 214.786,225.72 214.343,225.72 L208.923,225.72 C208.479,225.72 208.118,225.36 208.118,224.91 L208.118,224.51 C208.118,224.07 208.479,223.71 208.923,223.71 L214.343,223.71 C214.786,223.71 215.146,224.07 215.147,224.51 L215.147,224.91" id="Fill-2504-2" fill="#103754" sketch:type="MSShapeGroup"></path>
        <path d="M236.558,223.39 C236.558,223.85 236.187,224.22 235.728,224.22 L225.343,224.22 C224.886,224.22 224.513,223.85 224.513,223.39 L224.513,221.73 C224.513,221.27 224.886,220.9 225.343,220.9 L235.728,220.9 C236.187,220.9 236.558,221.27 236.558,221.73 L236.558,223.39" id="Fill-2505-2" fill="#FFFFFF" sketch:type="MSShapeGroup"></path>
        <path d="M220.958,206.06 L219.972,212.06 L213.978,213.04 L219.972,214.03 L220.96,220.02 L221.942,214.03 L227.935,213.04 L221.942,212.06 L220.958,206.06" id="Fill-2506-2" fill="#FFFFFF" sketch:type="MSShapeGroup"></path>
        <path d="M235.903,200.41 L235.257,204.34 L231.335,204.98 L235.257,205.63 L235.903,209.55 L236.55,205.63 L240.474,204.98 L236.548,204.34 L235.903,200.41" id="Fill-2507-2" fill="#FFFFFF" sketch:type="MSShapeGroup"></path>
        <path d="M270.601,220.14 C268.728,220.14 267.21,218.62 267.21,216.75 C267.21,214.88 268.728,213.36 270.601,213.36 C272.474,213.36 273.991,214.88 273.991,216.75 C273.991,218.62 272.474,220.14 270.601,220.14 L270.601,220.14 L270.601,220.14 Z M280.659,214.76 L278.997,214.76 C278.607,214.76 278.19,214.47 278.069,214.1 L277.759,213.35 C277.587,213 277.669,212.5 277.94,212.22 L279.118,211.05 C279.392,210.77 279.392,210.33 279.118,210.06 L277.3,208.23 C277.028,207.96 276.581,207.96 276.308,208.23 L275.128,209.41 C274.854,209.68 274.351,209.77 274.005,209.59 L273.255,209.28 C272.89,209.16 272.593,208.75 272.593,208.36 L272.593,206.7 C272.593,206.31 272.272,205.99 271.888,205.99 L269.313,205.99 C268.927,205.99 268.614,206.31 268.614,206.7 L268.614,208.36 C268.614,208.75 268.313,209.16 267.946,209.28 L267.194,209.59 C266.849,209.77 266.343,209.68 266.071,209.41 L264.894,208.23 C264.624,207.96 264.175,207.96 263.903,208.23 L262.083,210.06 C261.81,210.33 261.81,210.77 262.083,211.05 L263.261,212.22 C263.532,212.5 263.612,213 263.442,213.35 L263.134,214.1 C263.011,214.47 262.595,214.76 262.208,214.76 L260.542,214.76 C260.159,214.76 259.841,215.08 259.841,215.47 L259.841,218.04 C259.841,218.42 260.159,218.74 260.542,218.74 L262.208,218.74 C262.595,218.74 263.011,219.04 263.134,219.4 L263.442,220.16 C263.612,220.5 263.532,221.01 263.261,221.28 L262.083,222.46 C261.81,222.73 261.81,223.18 262.083,223.45 L263.903,225.27 C264.175,225.54 264.624,225.54 264.894,225.27 L266.071,224.09 C266.343,223.82 266.849,223.74 267.194,223.91 L267.946,224.22 C268.313,224.34 268.614,224.76 268.614,225.14 L268.614,226.81 C268.614,227.2 268.927,227.51 269.313,227.51 L271.888,227.51 C272.272,227.51 272.593,227.2 272.593,226.81 L272.593,225.14 C272.593,224.76 272.89,224.34 273.255,224.22 L274.005,223.91 C274.351,223.74 274.854,223.82 275.128,224.09 L276.308,225.27 C276.581,225.54 277.028,225.54 277.3,225.27 L279.118,223.45 C279.392,223.18 279.392,222.73 279.118,222.46 L277.94,221.28 C277.669,221.01 277.587,220.5 277.759,220.16 L278.069,219.4 C278.19,219.04 278.607,218.74 278.997,218.74 L280.659,218.74 C281.044,218.74 281.36,218.42 281.36,218.04 L281.36,215.47 C281.36,215.08 281.044,214.76 280.659,214.76 L280.659,214.76 L280.659,214.76 Z" id="Fill-2508-2" fill="#B3B3B3" sketch:type="MSShapeGroup"></path>
        <path d="M267.146,135.51 L273.585,135.51 L273.585,126.62 L267.146,126.62 L267.146,135.51 L267.146,135.51 Z M274.442,137.51 L266.29,137.51 C265.659,137.51 265.146,137 265.146,136.37 L265.146,125.77 C265.146,125.14 265.659,124.62 266.29,124.62 L274.442,124.62 C275.072,124.62 275.585,125.14 275.585,125.77 L275.585,136.37 C275.585,137 275.072,137.51 274.442,137.51 L274.442,137.51 L274.442,137.51 Z" id="Fill-2509-2" fill="#B3B3B3" sketch:type="MSShapeGroup"></path>
        <path d="M280.153,135.51 L286.593,135.51 L286.593,114.88 L280.153,114.88 L280.153,135.51 L280.153,135.51 Z M287.448,137.51 L279.298,137.51 C278.667,137.51 278.153,137 278.153,136.37 L278.153,114.02 C278.153,113.39 278.667,112.88 279.298,112.88 L287.448,112.88 C288.079,112.88 288.593,113.39 288.593,114.02 L288.593,136.37 C288.593,137 288.079,137.51 287.448,137.51 L287.448,137.51 L287.448,137.51 Z" id="Fill-2510-2" fill="#B3B3B3" sketch:type="MSShapeGroup"></path>
        <path d="M293.161,135.51 L299.601,135.51 L299.601,102.6 L293.161,102.6 L293.161,135.51 L293.161,135.51 Z M300.456,137.51 L292.306,137.51 C291.675,137.51 291.161,137 291.161,136.37 L291.161,101.75 C291.161,101.12 291.675,100.6 292.306,100.6 L300.456,100.6 C301.087,100.6 301.601,101.12 301.601,101.75 L301.601,136.37 C301.601,137 301.087,137.51 300.456,137.51 L300.456,137.51 L300.456,137.51 Z" id="Fill-2511-2" fill="#B3B3B3" sketch:type="MSShapeGroup"></path>
        <path d="M188.665,19.04 C178.559,19.04 170.337,27.26 170.337,37.37 C170.337,47.47 178.559,55.7 188.665,55.7 C198.77,55.7 206.989,47.47 206.989,37.37 C206.989,27.26 198.77,19.04 188.665,19.04 L188.665,19.04 L188.665,19.04 Z M188.665,56.7 C178.008,56.7 169.337,48.03 169.337,37.37 C169.337,26.71 178.008,18.04 188.665,18.04 C199.32,18.04 207.989,26.71 207.989,37.37 C207.989,48.03 199.32,56.7 188.665,56.7 L188.665,56.7 L188.665,56.7 Z" id="Fill-2512-2" fill="#B3B3B3" sketch:type="MSShapeGroup"></path>
        <path d="M195.616,25.71 L195.421,25.66 C195.234,25.55 195.172,25.31 195.279,25.13 L195.73,24.35 C195.838,24.16 196.075,24.1 196.263,24.21 C196.449,24.31 196.512,24.55 196.404,24.74 L195.953,25.52 C195.881,25.64 195.75,25.71 195.616,25.71" id="Fill-2513-2" fill="#B3B3B3" sketch:type="MSShapeGroup"></path>
        <path d="M181.257,50.59 L181.063,50.54 C180.877,50.43 180.813,50.19 180.919,50.01 L181.366,49.22 C181.472,49.04 181.709,48.97 181.897,49.08 C182.084,49.19 182.148,49.42 182.042,49.61 L181.595,50.39 C181.523,50.52 181.392,50.59 181.257,50.59" id="Fill-2514-2" fill="#B3B3B3" sketch:type="MSShapeGroup"></path>
        <path d="M201.489,45.16 L201.295,45.11 L200.52,44.67 C200.333,44.56 200.27,44.32 200.376,44.13 C200.483,43.95 200.723,43.88 200.908,43.99 L201.684,44.44 C201.87,44.54 201.934,44.78 201.827,44.97 C201.755,45.09 201.624,45.16 201.489,45.16" id="Fill-2515-2" fill="#B3B3B3" sketch:type="MSShapeGroup"></path>
        <path d="M176.622,30.8 L176.429,30.75 L175.647,30.3 C175.461,30.2 175.396,29.96 175.503,29.77 C175.61,29.59 175.851,29.52 176.034,29.63 L176.815,30.08 C177.002,30.18 177.066,30.42 176.96,30.61 C176.888,30.73 176.757,30.8 176.622,30.8" id="Fill-2516-2" fill="#B3B3B3" sketch:type="MSShapeGroup"></path>
        <path d="M181.71,25.71 C181.575,25.71 181.444,25.64 181.372,25.52 L180.925,24.74 C180.818,24.55 180.882,24.31 181.068,24.21 C181.256,24.1 181.493,24.16 181.601,24.35 L182.048,25.13 C182.154,25.31 182.091,25.55 181.904,25.66 L181.71,25.71" id="Fill-2517-2" fill="#B3B3B3" sketch:type="MSShapeGroup"></path>
        <path d="M196.077,50.59 C195.943,50.59 195.813,50.52 195.74,50.39 L195.285,49.61 C195.178,49.43 195.24,49.19 195.426,49.08 C195.612,48.97 195.852,49.04 195.959,49.22 L196.414,50 C196.521,50.19 196.459,50.43 196.273,50.54 L196.077,50.59" id="Fill-2518-2" fill="#B3B3B3" sketch:type="MSShapeGroup"></path>
        <path d="M175.841,45.16 C175.706,45.16 175.574,45.09 175.503,44.96 C175.396,44.78 175.461,44.54 175.648,44.44 L176.43,43.99 C176.614,43.88 176.853,43.95 176.96,44.13 C177.066,44.32 177.002,44.56 176.814,44.67 L176.033,45.11 L175.841,45.16" id="Fill-2519-2" fill="#B3B3B3" sketch:type="MSShapeGroup"></path>
        <path d="M200.714,30.8 C200.58,30.8 200.448,30.73 200.377,30.61 C200.27,30.42 200.333,30.18 200.52,30.08 L201.295,29.63 C201.48,29.52 201.72,29.59 201.826,29.77 C201.934,29.96 201.87,30.2 201.684,30.3 L200.908,30.75 L200.714,30.8" id="Fill-2520-2" fill="#B3B3B3" sketch:type="MSShapeGroup"></path>
        <path d="M174.753,37.76 L173.855,37.76 C173.641,37.76 173.467,37.58 173.467,37.37 C173.468,37.15 173.642,36.98 173.856,36.98 L174.754,36.98 C174.969,36.98 175.143,37.15 175.143,37.37 C175.142,37.58 174.968,37.76 174.753,37.76" id="Fill-2521-2" fill="#B3B3B3" sketch:type="MSShapeGroup"></path>
        <path d="M202.575,37.76 C202.361,37.76 202.187,37.58 202.186,37.37 C202.185,37.15 202.358,36.98 202.573,36.98 L203.478,36.97 L203.479,36.97 C203.693,36.97 203.868,37.15 203.869,37.36 C203.87,37.58 203.696,37.75 203.481,37.75 L202.577,37.76 L202.575,37.76" id="Fill-2522-2" fill="#B3B3B3" sketch:type="MSShapeGroup"></path>
        <path d="M188.663,52.57 L188.662,52.57 C188.446,52.57 188.272,52.39 188.273,52.18 L188.277,51.28 C188.278,51.06 188.453,50.89 188.667,50.89 L188.669,50.89 C188.884,50.89 189.058,51.06 189.057,51.28 L189.053,52.18 C189.052,52.39 188.877,52.57 188.663,52.57" id="Fill-2523-2" fill="#B3B3B3" sketch:type="MSShapeGroup"></path>
        <path d="M188.665,23.85 C188.45,23.85 188.275,23.67 188.275,23.46 L188.275,22.56 C188.275,22.35 188.45,22.17 188.665,22.17 C188.88,22.17 189.055,22.35 189.055,22.56 L189.055,23.46 C189.055,23.67 188.88,23.85 188.665,23.85" id="Fill-2524-2" fill="#B3B3B3" sketch:type="MSShapeGroup"></path>
        <path d="M188.665,35.57 C188.946,35.57 189.208,35.64 189.445,35.75 L189.445,25.78 C189.445,25.35 189.097,25 188.667,25 C188.237,25 187.889,25.35 187.889,25.78 L187.889,35.75 C188.125,35.64 188.386,35.57 188.665,35.57" id="Fill-2525-2" fill="#B3B3B3" sketch:type="MSShapeGroup"></path>
        <path d="M186.971,37.96 L183.042,41.89 C182.738,42.2 182.738,42.69 183.042,42.99 C183.194,43.15 183.394,43.22 183.593,43.22 C183.792,43.22 183.991,43.15 184.144,42.99 L188.075,39.06 C187.558,38.88 187.152,38.48 186.971,37.96" id="Fill-2526-2" fill="#B3B3B3" sketch:type="MSShapeGroup"></path>
        <path d="M188.665,39.17 C187.669,39.17 186.862,38.37 186.862,37.37 C186.862,36.37 187.669,35.57 188.665,35.57 C189.659,35.57 190.464,36.37 190.464,37.37 C190.464,38.37 189.659,39.17 188.665,39.17 L188.665,39.17 L188.665,39.17 Z M188.665,34.45 C187.052,34.45 185.743,35.76 185.743,37.37 C185.743,38.98 187.052,40.29 188.665,40.29 C190.275,40.29 191.585,38.98 191.585,37.37 C191.585,35.76 190.275,34.45 188.665,34.45 L188.665,34.45 L188.665,34.45 Z" id="Fill-2527-2" fill="#B3B3B3" sketch:type="MSShapeGroup"></path>
        <path d="M189.558,37.37 C189.558,37.86 189.157,38.26 188.665,38.26 C188.171,38.26 187.771,37.86 187.771,37.37 C187.771,36.88 188.171,36.48 188.665,36.48 C189.157,36.48 189.558,36.88 189.558,37.37" id="Fill-2528-2" fill="#B3B3B3" sketch:type="MSShapeGroup"></path>
        <path d="M188.667,37.76 C188.5,37.76 188.345,37.65 188.294,37.48 C188.232,37.28 188.349,37.06 188.555,37 L198.66,33.95 C198.866,33.89 199.084,34 199.146,34.21 C199.207,34.41 199.091,34.63 198.885,34.69 L188.779,37.74 L188.667,37.76" id="Fill-2529-2" fill="#B3B3B3" sketch:type="MSShapeGroup"></path>
        <path d="M295.86,43.94 L307.183,9.09 L272.337,20.41 L284.253,26.53 L274.95,35.84 L280.435,41.32 L289.737,32.02 L295.86,43.94" id="Fill-2530-2" fill="#B3B3B3" sketch:type="MSShapeGroup"></path>
        <path d="M295.86,38.94 L307.183,4.09 L272.337,15.41 L284.253,21.53 L274.95,30.84 L280.435,36.32 L289.737,27.02 L295.86,38.94" id="Fill-2531-2" fill="#FFFFFF" sketch:type="MSShapeGroup"></path>
        <path d="M301.521,21.51 L307.183,4.09 L306.603,4.28 L277.497,33.38 L280.435,36.32 L289.737,27.02 L295.86,38.94 L301.521,21.51" id="Fill-2532-2" fill="#D1ECFB" sketch:type="MSShapeGroup"></path>
        <path d="M184.888,2.79 C184.356,2.79 183.913,2.37 183.89,1.84 C183.865,1.28 184.293,0.82 184.845,0.79 C186.888,0.7 188.93,0.66 190.913,0.66 L191.899,0.66 C192.452,0.66 192.896,1.12 192.891,1.67 C192.886,2.22 192.438,2.66 191.891,2.66 L190.913,2.66 C188.959,2.66 186.947,2.7 184.933,2.79 L184.888,2.79 L184.888,2.79 Z M205.852,3.6 L205.719,3.59 C203.493,3.29 201.173,3.06 198.819,2.91 C198.269,2.87 197.852,2.4 197.888,1.85 C197.924,1.29 198.413,0.89 198.952,0.91 C201.349,1.07 203.714,1.31 205.982,1.61 C206.53,1.68 206.915,2.19 206.842,2.73 C206.774,3.23 206.346,3.6 205.852,3.6 L205.852,3.6 L205.852,3.6 Z M170.945,4.07 C170.453,4.07 170.024,3.71 169.955,3.2 C169.881,2.66 170.264,2.15 170.811,2.08 C173.154,1.76 175.51,1.49 177.811,1.28 C178.371,1.22 178.848,1.63 178.898,2.18 C178.949,2.73 178.544,3.22 177.994,3.27 C175.722,3.48 173.396,3.74 171.082,4.06 L170.945,4.07 L170.945,4.07 Z M157.162,6.54 C156.704,6.54 156.29,6.22 156.187,5.76 C156.067,5.22 156.407,4.68 156.946,4.56 C159.224,4.06 161.547,3.59 163.852,3.18 C164.394,3.08 164.915,3.44 165.013,3.98 C165.11,4.53 164.749,5.05 164.205,5.15 C161.928,5.56 159.631,6.02 157.38,6.52 L157.162,6.54 L157.162,6.54 Z M219.516,6.57 C219.416,6.57 219.315,6.55 219.215,6.52 C217.095,5.85 214.849,5.26 212.537,4.77 C211.997,4.65 211.653,4.12 211.77,3.58 C211.885,3.04 212.412,2.7 212.957,2.81 C215.328,3.32 217.636,3.93 219.815,4.61 C220.343,4.78 220.636,5.34 220.47,5.87 C220.335,6.29 219.94,6.57 219.516,6.57 L219.516,6.57 L219.516,6.57 Z M143.626,10.12 C143.198,10.12 142.803,9.85 142.671,9.42 C142.508,8.89 142.804,8.33 143.331,8.17 C145.542,7.48 147.82,6.83 150.103,6.23 C150.638,6.09 151.184,6.4 151.325,6.94 C151.467,7.47 151.148,8.02 150.614,8.16 C148.358,8.76 146.106,9.4 143.921,10.08 C143.822,10.11 143.724,10.12 143.626,10.12 L143.626,10.12 L143.626,10.12 Z M232.228,12.33 C232.04,12.33 231.851,12.27 231.682,12.16 C230.651,11.49 229.511,10.83 228.29,10.21 C227.44,9.77 226.555,9.34 225.656,8.94 C225.152,8.72 224.925,8.13 225.15,7.62 C225.374,7.12 225.965,6.89 226.471,7.12 C227.401,7.53 228.321,7.97 229.204,8.43 C230.485,9.08 231.688,9.78 232.775,10.49 C233.237,10.79 233.368,11.41 233.065,11.87 C232.874,12.17 232.554,12.33 232.228,12.33 L232.228,12.33 L232.228,12.33 Z M130.435,14.81 C130.04,14.81 129.666,14.58 129.508,14.19 C129.3,13.68 129.546,13.09 130.058,12.89 C132.192,12.02 134.408,11.18 136.645,10.38 C137.166,10.2 137.736,10.47 137.922,10.99 C138.106,11.51 137.835,12.08 137.314,12.27 C135.105,13.05 132.918,13.88 130.812,14.74 C130.688,14.79 130.561,14.81 130.435,14.81 L130.435,14.81 L130.435,14.81 Z M117.744,20.72 C117.387,20.72 117.041,20.53 116.86,20.19 C116.601,19.7 116.785,19.1 117.272,18.84 C119.286,17.77 121.411,16.71 123.591,15.7 C124.093,15.46 124.687,15.68 124.92,16.18 C125.152,16.68 124.935,17.28 124.435,17.51 C122.287,18.51 120.194,19.55 118.214,20.6 C118.063,20.68 117.902,20.72 117.744,20.72 L117.744,20.72 L117.744,20.72 Z M240.463,23.12 C239.977,23.12 239.55,22.77 239.476,22.27 C239.173,20.28 238.252,18.34 236.738,16.52 C236.386,16.09 236.444,15.46 236.869,15.11 C237.295,14.75 237.924,14.82 238.277,15.24 C240.027,17.35 241.095,19.61 241.452,21.97 C241.535,22.52 241.159,23.03 240.613,23.11 L240.463,23.12 L240.463,23.12 Z M105.854,28.1 C105.545,28.1 105.24,27.96 105.045,27.69 C104.719,27.25 104.817,26.62 105.263,26.29 C107.097,24.96 109.074,23.63 111.143,22.35 C111.609,22.06 112.228,22.21 112.519,22.68 C112.809,23.15 112.663,23.76 112.193,24.05 C110.169,25.3 108.234,26.6 106.442,27.91 C106.264,28.04 106.058,28.1 105.854,28.1 L105.854,28.1 L105.854,28.1 Z M223.787,31.96 C223.644,31.96 223.497,31.93 223.358,31.87 C222.859,31.63 222.647,31.03 222.885,30.54 C224.137,27.91 226.406,26.63 229.519,26.74 C230.07,26.76 230.503,27.22 230.483,27.77 C230.466,28.33 229.99,28.8 229.45,28.74 C227.119,28.67 225.596,29.49 224.691,31.39 C224.52,31.75 224.161,31.96 223.787,31.96 L223.787,31.96 L223.787,31.96 Z M235.288,35.55 C235.022,35.55 234.758,35.45 234.562,35.24 C234.182,34.84 234.2,34.2 234.602,33.82 C235.586,32.89 236.452,31.89 237.173,30.84 C236.743,30.66 236.317,30.5 235.898,30.34 C235.383,30.14 235.123,29.56 235.319,29.05 C235.515,28.53 236.093,28.27 236.609,28.47 C237.136,28.67 237.672,28.88 238.213,29.1 C238.313,28.91 238.406,28.72 238.494,28.52 C238.723,28.02 239.313,27.8 239.819,28.03 C240.322,28.26 240.543,28.85 240.314,29.35 C240.232,29.53 240.146,29.71 240.057,29.89 C241.082,30.34 242.107,30.81 243.104,31.27 C243.605,31.5 243.824,32.1 243.592,32.6 C243.36,33.1 242.769,33.32 242.265,33.09 C241.212,32.6 240.128,32.11 239.048,31.63 C238.204,32.92 237.165,34.15 235.975,35.28 C235.781,35.46 235.534,35.55 235.288,35.55 L235.288,35.55 L235.288,35.55 Z M95.475,37.45 C95.242,37.45 95.01,37.37 94.82,37.21 C94.402,36.85 94.356,36.22 94.718,35.8 C96.19,34.1 97.879,32.39 99.735,30.74 C100.146,30.37 100.777,30.41 101.147,30.82 C101.515,31.23 101.478,31.87 101.065,32.23 C99.273,33.83 97.646,35.47 96.231,37.11 C96.033,37.34 95.755,37.45 95.475,37.45 L95.475,37.45 L95.475,37.45 Z M255.548,38.72 C255.439,38.72 255.33,38.71 255.222,38.67 C253.3,38.01 251.21,37.17 248.644,36.03 C248.139,35.8 247.912,35.21 248.136,34.71 C248.361,34.2 248.953,33.97 249.456,34.2 C251.969,35.31 254.008,36.13 255.874,36.78 C256.396,36.96 256.673,37.53 256.493,38.05 C256.351,38.46 255.963,38.72 255.548,38.72 L255.548,38.72 L255.548,38.72 Z M225.991,40.21 L225.984,40.21 C224.248,40.21 222.918,39.5 222.238,38.22 C221.979,37.73 222.166,37.13 222.654,36.87 C223.138,36.61 223.747,36.79 224.006,37.28 C224.331,37.9 224.997,38.21 225.985,38.21 L225.99,38.21 C226.869,38.21 227.944,37.96 229.102,37.48 C229.615,37.27 230.197,37.51 230.407,38.02 C230.617,38.54 230.374,39.12 229.863,39.33 C228.447,39.91 227.145,40.21 225.991,40.21 L225.991,40.21 L225.991,40.21 Z M264.488,40.51 C263.765,40.51 263.003,40.46 262.225,40.37 C261.676,40.31 261.282,39.81 261.346,39.26 C261.409,38.71 261.906,38.32 262.453,38.38 C264.912,38.67 267.06,38.45 268.853,37.73 C269.362,37.53 269.945,37.77 270.153,38.29 C270.359,38.8 270.111,39.38 269.599,39.59 C268.081,40.2 266.361,40.51 264.488,40.51 L264.488,40.51 L264.488,40.51 Z M87.438,48.89 C87.27,48.89 87.099,48.85 86.942,48.76 C86.463,48.49 86.296,47.87 86.57,47.4 C87.728,45.37 89.008,43.36 90.374,41.41 C90.692,40.96 91.314,40.85 91.768,41.17 C92.22,41.49 92.328,42.11 92.011,42.56 C90.68,44.46 89.434,46.42 88.307,48.39 C88.122,48.71 87.785,48.89 87.438,48.89 L87.438,48.89 L87.438,48.89 Z M81.777,61.67 C81.677,61.67 81.574,61.65 81.474,61.62 C80.947,61.46 80.657,60.89 80.824,60.37 C81.531,58.15 82.384,55.92 83.358,53.73 C83.584,53.22 84.176,53 84.679,53.22 C85.184,53.44 85.41,54.04 85.187,54.54 C84.24,56.67 83.414,58.83 82.73,60.97 C82.595,61.4 82.201,61.67 81.777,61.67 L81.777,61.67 L81.777,61.67 Z M69.882,67.63 C69.398,67.63 68.973,67.28 68.896,66.78 C68.809,66.24 69.182,65.72 69.727,65.64 C70.738,65.48 71.735,65.37 72.69,65.32 C73.857,65.25 75.026,65.22 76.165,65.22 L76.875,65.22 C77.427,65.23 77.869,65.68 77.862,66.23 C77.855,66.78 77.409,67.22 76.862,67.22 L76.165,67.22 C75.064,67.22 73.934,67.25 72.804,67.31 C71.915,67.36 70.984,67.46 70.039,67.61 L69.882,67.63 L69.882,67.63 Z M90.652,69.3 C90.554,69.3 90.453,69.29 90.354,69.25 C88.247,68.6 86.004,68.09 83.688,67.75 C83.142,67.67 82.764,67.16 82.844,66.61 C82.924,66.07 83.423,65.68 83.979,65.77 C86.397,66.12 88.744,66.66 90.951,67.35 C91.478,67.51 91.771,68.07 91.606,68.6 C91.473,69.03 91.078,69.3 90.652,69.3 L90.652,69.3 L90.652,69.3 Z M56.68,72.12 C56.313,72.12 55.96,71.92 55.785,71.57 C55.537,71.07 55.737,70.47 56.23,70.22 C58.45,69.11 60.654,68.17 62.784,67.43 C63.309,67.25 63.876,67.52 64.059,68.04 C64.24,68.56 63.966,69.13 63.444,69.31 C61.396,70.03 59.27,70.94 57.127,72.01 C56.983,72.08 56.83,72.12 56.68,72.12 L56.68,72.12 L56.68,72.12 Z M79.292,75.4 L79.259,75.4 C78.707,75.38 78.273,74.92 78.292,74.37 C78.365,72.08 78.63,69.69 79.079,67.27 C79.18,66.72 79.698,66.36 80.245,66.47 C80.788,66.57 81.146,67.09 81.046,67.63 C80.615,69.96 80.36,72.24 80.29,74.43 C80.273,74.97 79.829,75.4 79.292,75.4 L79.292,75.4 L79.292,75.4 Z M102.827,75.99 C102.588,75.99 102.348,75.9 102.156,75.73 C100.563,74.29 98.703,72.99 96.627,71.87 C96.141,71.61 95.958,71.01 96.22,70.52 C96.48,70.03 97.091,69.85 97.574,70.11 C99.793,71.31 101.785,72.7 103.498,74.25 C103.907,74.62 103.939,75.25 103.568,75.66 C103.371,75.87 103.1,75.99 102.827,75.99 L102.827,75.99 L102.827,75.99 Z M44.848,79.58 C44.545,79.58 44.247,79.44 44.05,79.18 C43.716,78.74 43.802,78.11 44.242,77.78 C46.155,76.33 48.111,74.96 50.056,73.73 C50.521,73.43 51.139,73.57 51.436,74.04 C51.732,74.5 51.594,75.12 51.128,75.42 C49.23,76.62 47.32,77.96 45.451,79.37 C45.271,79.51 45.058,79.58 44.848,79.58 L44.848,79.58 L44.848,79.58 Z M108.801,88.13 L108.722,88.12 C108.171,88.08 107.76,87.6 107.803,87.05 C107.82,86.82 107.829,86.6 107.829,86.37 C107.829,84.63 107.304,82.73 106.311,80.89 C106.048,80.4 106.229,79.8 106.716,79.54 C107.205,79.27 107.81,79.46 108.07,79.94 C109.221,82.08 109.829,84.3 109.829,86.37 C109.829,86.65 109.818,86.93 109.797,87.21 C109.756,87.73 109.317,88.13 108.801,88.13 L108.801,88.13 L108.801,88.13 Z M34.353,88.84 C34.099,88.84 33.845,88.74 33.65,88.55 C33.257,88.16 33.253,87.53 33.641,87.13 C35.308,85.45 37.034,83.81 38.772,82.27 C39.184,81.91 39.817,81.94 40.184,82.36 C40.55,82.77 40.511,83.4 40.098,83.77 C38.394,85.28 36.7,86.88 35.064,88.54 C34.869,88.74 34.61,88.84 34.353,88.84 L34.353,88.84 L34.353,88.84 Z M81.806,89.04 C81.437,89.04 81.082,88.83 80.908,88.48 C79.904,86.44 79.175,84.11 78.741,81.54 C78.649,81 79.017,80.48 79.561,80.39 C80.106,80.3 80.621,80.67 80.714,81.21 C81.114,83.58 81.783,85.73 82.701,87.59 C82.946,88.09 82.742,88.69 82.247,88.93 C82.104,89 81.954,89.04 81.806,89.04 L81.806,89.04 L81.806,89.04 Z M99.363,97.04 C98.9,97.04 98.485,96.71 98.386,96.24 C98.271,95.7 98.617,95.17 99.157,95.06 C101.586,94.54 103.56,93.65 105.022,92.41 C105.445,92.05 106.074,92.1 106.433,92.53 C106.79,92.95 106.738,93.58 106.317,93.94 C104.598,95.39 102.328,96.43 99.571,97.01 L99.363,97.04 L99.363,97.04 Z M92.412,97.29 L92.247,97.27 C89.699,96.85 87.414,95.84 85.458,94.28 C85.026,93.94 84.956,93.31 85.301,92.87 C85.646,92.45 86.273,92.37 86.706,92.72 C88.393,94.06 90.367,94.93 92.575,95.3 C93.12,95.39 93.488,95.9 93.397,96.45 C93.316,96.94 92.893,97.29 92.412,97.29 L92.412,97.29 L92.412,97.29 Z M25.181,99.41 C24.97,99.41 24.756,99.34 24.575,99.21 C24.136,98.87 24.052,98.24 24.387,97.8 C25.814,95.93 27.314,94.09 28.844,92.32 C29.207,91.91 29.838,91.86 30.255,92.22 C30.672,92.58 30.717,93.21 30.355,93.63 C28.853,95.37 27.38,97.18 25.977,99.02 C25.78,99.27 25.482,99.41 25.181,99.41 L25.181,99.41 L25.181,99.41 Z M17.383,111.03 C17.211,111.03 17.037,110.99 16.878,110.89 C16.401,110.61 16.242,110 16.521,109.53 C17.711,107.5 18.974,105.48 20.276,103.54 C20.583,103.09 21.206,102.96 21.664,103.27 C22.122,103.58 22.244,104.2 21.937,104.66 C20.657,106.57 19.415,108.54 18.246,110.54 C18.061,110.85 17.727,111.03 17.383,111.03 L17.383,111.03 L17.383,111.03 Z M11.047,123.51 C10.915,123.51 10.779,123.48 10.65,123.42 C10.144,123.21 9.911,122.62 10.131,122.11 C11.063,119.96 12.074,117.81 13.136,115.72 C13.386,115.23 13.986,115.03 14.48,115.28 C14.973,115.53 15.169,116.13 14.919,116.63 C13.876,118.68 12.882,120.79 11.965,122.9 C11.802,123.28 11.434,123.51 11.047,123.51 L11.047,123.51 L11.047,123.51 Z M6.282,136.66 C6.189,136.66 6.095,136.65 6,136.62 C5.471,136.46 5.167,135.91 5.323,135.38 C5.982,133.13 6.723,130.88 7.522,128.67 C7.711,128.15 8.284,127.88 8.804,128.07 C9.323,128.26 9.591,128.83 9.403,129.35 C8.617,131.52 7.89,133.74 7.241,135.94 C7.113,136.38 6.715,136.66 6.282,136.66 L6.282,136.66 L6.282,136.66 Z M3.183,150.3 L3.021,150.29 C2.477,150.2 2.106,149.68 2.194,149.14 C2.569,146.83 3.023,144.49 3.544,142.21 C3.666,141.67 4.203,141.33 4.74,141.46 C5.279,141.58 5.616,142.12 5.493,142.65 C4.982,144.9 4.537,147.19 4.169,149.46 C4.089,149.95 3.665,150.3 3.183,150.3 L3.183,150.3 L3.183,150.3 Z M1.812,164.22 L1.775,164.21 C1.223,164.2 0.792,163.73 0.812,163.18 C0.895,160.84 1.053,158.47 1.282,156.14 C1.336,155.59 1.825,155.19 2.375,155.24 C2.925,155.29 3.326,155.79 3.272,156.33 C3.048,158.62 2.892,160.95 2.81,163.25 C2.791,163.79 2.347,164.22 1.812,164.22 L1.812,164.22 L1.812,164.22 Z M2.173,178.2 C1.659,178.2 1.223,177.81 1.178,177.29 C0.974,174.95 0.839,172.58 0.777,170.24 C0.763,169.69 1.199,169.23 1.751,169.21 L1.778,169.21 C2.318,169.21 2.763,169.64 2.777,170.19 C2.837,172.48 2.97,174.81 3.17,177.12 C3.218,177.67 2.811,178.15 2.261,178.2 L2.173,178.2 L2.173,178.2 Z M4.212,192.04 C3.748,192.04 3.331,191.72 3.233,191.25 C2.756,188.94 2.342,186.6 2.002,184.3 C1.921,183.75 2.299,183.24 2.846,183.16 C3.389,183.07 3.9,183.46 3.98,184.01 C4.314,186.27 4.722,188.57 5.192,190.84 C5.304,191.38 4.956,191.91 4.415,192.02 L4.212,192.04 L4.212,192.04 Z M7.804,205.57 C7.382,205.57 6.989,205.3 6.853,204.87 C6.125,202.63 5.454,200.36 4.857,198.11 C4.716,197.58 5.034,197.03 5.567,196.89 C6.103,196.75 6.649,197.06 6.791,197.6 C7.378,199.81 8.038,202.05 8.755,204.26 C8.925,204.78 8.638,205.35 8.112,205.52 C8.01,205.55 7.905,205.57 7.804,205.57 L7.804,205.57 L7.804,205.57 Z M12.788,218.64 C12.402,218.64 12.035,218.42 11.871,218.04 C10.925,215.88 10.026,213.69 9.199,211.52 C9.003,211.01 9.262,210.43 9.777,210.23 C10.293,210.03 10.871,210.29 11.068,210.81 C11.883,212.95 12.77,215.11 13.703,217.24 C13.925,217.75 13.694,218.34 13.188,218.56 C13.058,218.62 12.922,218.64 12.788,218.64 L12.788,218.64 L12.788,218.64 Z M18.984,231.19 C18.632,231.19 18.289,231 18.107,230.67 C16.973,228.61 15.876,226.51 14.848,224.43 C14.603,223.93 14.806,223.33 15.301,223.09 C15.794,222.84 16.395,223.05 16.641,223.54 C17.656,225.6 18.739,227.67 19.859,229.71 C20.126,230.19 19.949,230.8 19.466,231.06 C19.313,231.15 19.147,231.19 18.984,231.19 L18.984,231.19 L18.984,231.19 Z M26.097,243.24 C25.763,243.24 25.436,243.08 25.246,242.77 C24.055,240.85 22.83,238.83 21.607,236.77 C21.326,236.29 21.483,235.68 21.958,235.4 C22.437,235.12 23.049,235.27 23.328,235.75 C24.544,237.8 25.761,239.81 26.945,241.71 C27.236,242.18 27.093,242.8 26.624,243.09 C26.459,243.19 26.277,243.24 26.097,243.24 L26.097,243.24 L26.097,243.24 Z M33.792,254.93 C33.477,254.93 33.166,254.78 32.972,254.5 C31.658,252.63 30.331,250.67 29.027,248.69 C28.725,248.23 28.853,247.61 29.314,247.3 C29.776,247 30.397,247.13 30.699,247.59 C31.991,249.56 33.308,251.5 34.61,253.36 C34.927,253.81 34.817,254.43 34.364,254.75 C34.19,254.87 33.99,254.93 33.792,254.93 L33.792,254.93 L33.792,254.93 Z M102.573,263.58 C102.39,263.58 102.203,263.53 102.037,263.43 C100.654,262.54 98.593,262.16 95.857,262.31 C95.341,262.33 94.835,261.92 94.805,261.37 C94.775,260.81 95.198,260.34 95.75,260.31 C98.942,260.13 101.366,260.63 103.111,261.74 C103.577,262.04 103.715,262.65 103.418,263.12 C103.227,263.42 102.903,263.58 102.573,263.58 L102.573,263.58 L102.573,263.58 Z M163.951,266.03 C163.697,266.03 163.443,265.94 163.248,265.74 C160.386,262.91 158.145,261.11 158.122,261.1 C157.691,260.75 157.621,260.12 157.967,259.69 C158.313,259.26 158.941,259.19 159.372,259.54 C159.466,259.61 161.711,261.41 164.654,264.32 C165.047,264.71 165.051,265.34 164.662,265.74 C164.467,265.93 164.209,266.03 163.951,266.03 L163.951,266.03 L163.951,266.03 Z M42.217,266.1 C41.927,266.1 41.64,265.97 41.441,265.73 C40.017,263.99 38.557,262.13 37.101,260.2 C36.769,259.75 36.856,259.13 37.298,258.79 C37.739,258.46 38.368,258.55 38.698,258.99 C40.138,260.9 41.582,262.75 42.99,264.47 C43.34,264.89 43.276,265.52 42.849,265.87 C42.663,266.03 42.439,266.1 42.217,266.1 L42.217,266.1 L42.217,266.1 Z M91.257,272.54 C90.869,272.54 90.5,272.32 90.338,271.94 C89.47,269.92 89.029,268.09 89.028,266.5 C89.028,265.77 89.122,265.09 89.308,264.47 C89.466,263.94 90.021,263.64 90.553,263.8 C91.082,263.96 91.382,264.51 91.224,265.04 C91.094,265.47 91.028,265.96 91.028,266.5 C91.029,267.81 91.415,269.38 92.176,271.15 C92.394,271.66 92.158,272.25 91.651,272.46 C91.522,272.52 91.389,272.54 91.257,272.54 L91.257,272.54 L91.257,272.54 Z M103.05,276.37 C102.905,276.37 102.758,276.33 102.618,276.27 C102.12,276.03 101.91,275.43 102.149,274.93 C103.264,272.61 103.938,270.43 104.099,268.62 C104.147,268.07 104.638,267.65 105.183,267.71 C105.733,267.76 106.14,268.24 106.091,268.79 C105.907,270.87 105.188,273.23 103.952,275.8 C103.78,276.16 103.423,276.37 103.05,276.37 L103.05,276.37 L103.05,276.37 Z M51.614,276.46 C51.362,276.46 51.109,276.36 50.915,276.17 C49.296,274.59 47.653,272.87 46.031,271.08 C45.661,270.67 45.693,270.04 46.104,269.67 C46.513,269.3 47.146,269.33 47.516,269.74 C49.11,271.5 50.725,273.19 52.313,274.74 C52.708,275.13 52.715,275.76 52.329,276.16 C52.133,276.36 51.874,276.46 51.614,276.46 L51.614,276.46 L51.614,276.46 Z M172.888,276.8 C172.558,276.8 172.234,276.64 172.043,276.34 C170.906,274.56 169.529,272.7 167.948,270.82 C167.593,270.4 167.647,269.77 168.07,269.41 C168.492,269.05 169.124,269.11 169.479,269.53 C171.116,271.48 172.546,273.41 173.73,275.27 C174.027,275.73 173.89,276.35 173.424,276.65 C173.258,276.75 173.071,276.8 172.888,276.8 L172.888,276.8 L172.888,276.8 Z M62.366,285.38 C62.174,285.38 61.979,285.32 61.808,285.21 C59.952,283.96 58.049,282.51 56.15,280.93 C55.727,280.57 55.671,279.94 56.025,279.52 C56.378,279.1 57.009,279.04 57.434,279.39 C59.279,280.94 61.128,282.34 62.927,283.55 C63.385,283.86 63.505,284.48 63.196,284.94 C63.003,285.22 62.688,285.38 62.366,285.38 L62.366,285.38 L62.366,285.38 Z M94.723,287.53 C94.442,287.53 94.164,287.41 93.966,287.18 C93.604,286.76 93.651,286.13 94.068,285.77 C95.145,284.84 96.255,283.69 97.339,282.37 C96.097,280.97 94.964,279.56 93.962,278.17 C93.64,277.72 93.741,277.1 94.189,276.77 C94.638,276.45 95.264,276.55 95.585,277 C96.482,278.25 97.49,279.51 98.593,280.77 L98.612,280.75 C98.94,280.3 99.565,280.21 100.011,280.54 C100.455,280.87 100.549,281.49 100.22,281.94 C100.134,282.05 100.047,282.17 99.96,282.28 L99.97,282.29 C100.348,282.7 100.327,283.33 99.924,283.71 C99.589,284.02 99.1,284.06 98.726,283.84 C97.619,285.16 96.482,286.33 95.377,287.28 C95.188,287.45 94.955,287.53 94.723,287.53 L94.723,287.53 L94.723,287.53 Z M177.067,289.92 L176.979,289.91 C176.428,289.86 176.021,289.38 176.07,288.83 C176.101,288.48 176.115,288.13 176.115,287.79 C176.115,286.12 175.77,284.3 175.088,282.38 C174.903,281.87 175.175,281.29 175.694,281.11 C176.218,280.92 176.786,281.19 176.973,281.71 C177.73,283.84 178.115,285.89 178.115,287.79 C178.115,288.19 178.099,288.6 178.063,289 C178.017,289.52 177.58,289.92 177.067,289.92 L177.067,289.92 L177.067,289.92 Z M74.938,291.36 L74.682,291.33 C72.493,290.75 70.233,289.9 67.966,288.79 C67.47,288.55 67.264,287.96 67.506,287.46 C67.746,286.96 68.343,286.75 68.843,287 C70.993,288.05 73.129,288.85 75.191,289.4 C75.726,289.54 76.044,290.08 75.903,290.62 C75.785,291.07 75.381,291.36 74.938,291.36 L74.938,291.36 L74.938,291.36 Z M81.852,292.26 C81.305,292.26 80.858,291.82 80.852,291.27 C80.845,290.72 81.287,290.27 81.839,290.26 C84.124,290.23 86.32,289.84 88.369,289.09 C88.889,288.91 89.461,289.17 89.65,289.69 C89.839,290.21 89.57,290.79 89.051,290.97 C86.792,291.79 84.374,292.23 81.864,292.26 L81.852,292.26 L81.852,292.26 Z M109.774,293.18 C109.572,293.18 109.367,293.12 109.19,292.99 C107.269,291.61 105.398,290.13 103.631,288.59 C103.214,288.23 103.17,287.59 103.533,287.18 C103.896,286.76 104.529,286.72 104.943,287.08 C106.665,288.58 108.487,290.02 110.36,291.37 C110.808,291.7 110.909,292.32 110.587,292.77 C110.392,293.04 110.085,293.18 109.774,293.18 L109.774,293.18 L109.774,293.18 Z M121.825,300.29 C121.684,300.29 121.539,300.25 121.402,300.19 C119.288,299.2 117.178,298.09 115.128,296.87 C114.652,296.59 114.495,295.98 114.775,295.51 C115.057,295.03 115.669,294.87 116.146,295.15 C118.14,296.33 120.193,297.42 122.25,298.38 C122.75,298.61 122.966,299.21 122.731,299.71 C122.562,300.07 122.201,300.29 121.825,300.29 L121.825,300.29 L121.825,300.29 Z M169.032,300.65 C168.681,300.65 168.339,300.46 168.156,300.13 C167.889,299.65 168.063,299.04 168.547,298.77 C170.717,297.57 172.443,296.19 173.677,294.66 C174.024,294.23 174.655,294.17 175.083,294.52 C175.513,294.86 175.579,295.49 175.231,295.92 C173.835,297.65 171.912,299.19 169.516,300.52 C169.362,300.61 169.196,300.65 169.032,300.65 L169.032,300.65 L169.032,300.65 Z M135.041,304.85 L134.822,304.83 C132.557,304.32 130.255,303.66 127.979,302.87 C127.458,302.69 127.182,302.12 127.363,301.6 C127.544,301.08 128.112,300.8 128.636,300.98 C130.839,301.75 133.067,302.38 135.258,302.87 C135.797,302.99 136.137,303.53 136.016,304.07 C135.912,304.53 135.499,304.85 135.041,304.85 L135.041,304.85 L135.041,304.85 Z M155.884,305.31 C155.415,305.31 154.996,304.97 154.903,304.5 C154.798,303.96 155.152,303.43 155.694,303.32 C157.925,302.89 160.147,302.29 162.298,301.52 C162.82,301.34 163.392,301.61 163.574,302.13 C163.759,302.65 163.486,303.22 162.966,303.41 C160.722,304.2 158.403,304.84 156.075,305.29 L155.884,305.31 L155.884,305.31 Z M146.729,306.18 C145.121,306.18 143.482,306.1 141.856,305.95 C141.307,305.89 140.903,305.41 140.955,304.86 C141.006,304.31 141.489,303.9 142.044,303.96 C144.337,304.17 146.618,304.23 148.895,304.13 C149.443,304.08 149.914,304.53 149.938,305.08 C149.963,305.63 149.536,306.1 148.984,306.12 C148.231,306.16 147.479,306.18 146.729,306.18 L146.729,306.18 L146.729,306.18 Z" id="Fill-2533-2" fill="#B3B3B3" sketch:type="MSShapeGroup"></path>
        <path d="M288.323,160.91 C285.218,160.91 282.299,162.12 280.103,164.32 C277.904,166.52 276.694,169.44 276.694,172.54 C276.694,175.64 277.904,178.56 280.103,180.76 C280.142,180.8 284.25,184.69 291.847,185.65 C293.698,185.91 295.505,187.38 296.49,188.33 L304.137,180.68 C303.186,179.7 301.698,177.92 301.433,176.08 C300.477,168.46 296.585,164.36 296.546,164.32 C294.348,162.12 291.428,160.91 288.323,160.91 L288.323,160.91 L288.323,160.91 Z M296.481,190.75 L296.451,190.75 C296.177,190.74 295.916,190.62 295.733,190.41 C295.112,189.71 293.156,187.85 291.582,187.63 C283.309,186.59 278.732,182.22 278.688,182.17 C276.112,179.6 274.694,176.18 274.694,172.54 C274.694,168.9 276.112,165.48 278.688,162.9 C281.262,160.33 284.684,158.91 288.323,158.91 C291.962,158.91 295.385,160.33 297.96,162.9 C298.004,162.95 302.374,167.52 303.415,175.81 C303.639,177.36 305.518,179.29 306.223,179.91 C306.433,180.09 306.557,180.35 306.566,180.63 C306.576,180.91 306.471,181.18 306.274,181.37 L297.188,190.46 C297.001,190.64 296.746,190.75 296.481,190.75 L296.481,190.75 L296.481,190.75 Z" id="Fill-2534-2" fill="#B3B3B3" sketch:type="MSShapeGroup"></path>
        <path d="M298.966,193.64 C298.71,193.64 298.454,193.54 298.259,193.35 C297.868,192.96 297.868,192.32 298.259,191.93 L307.718,182.47 C308.108,182.08 308.741,182.08 309.132,182.47 C309.522,182.86 309.522,183.5 309.132,183.89 L299.673,193.35 C299.478,193.54 299.222,193.64 298.966,193.64" id="Fill-2535-2" fill="#B3B3B3" sketch:type="MSShapeGroup"></path>
        <path d="M302.759,195.15 C302.503,195.15 302.247,195.05 302.052,194.85 C301.661,194.46 301.661,193.83 302.052,193.44 L309.224,186.27 C309.614,185.88 310.247,185.88 310.638,186.27 C311.028,186.66 311.028,187.29 310.638,187.68 L303.466,194.85 C303.271,195.05 303.015,195.15 302.759,195.15" id="Fill-2536-2" fill="#B3B3B3" sketch:type="MSShapeGroup"></path>
        <path d="M298.595,187.34 L284.452,176.25 L285.687,174.68 L299.829,185.77 L298.595,187.34" id="Fill-2537-2" fill="#B3B3B3" sketch:type="MSShapeGroup"></path>
        <path d="M301.55,184.04 L290.464,169.9 L292.038,168.67 L303.124,182.81 L301.55,184.04" id="Fill-2538-2" fill="#B3B3B3" sketch:type="MSShapeGroup"></path>
        <path d="M288.125,178.27 C287.753,178.27 287.412,178.14 287.216,178.06 L286.984,177.98 C287.073,178 287.308,177.97 287.492,177.79 L286.08,176.37 C286.424,176.03 286.829,175.96 287.182,175.99 C287.147,175.64 287.215,175.24 287.56,174.89 C287.901,174.55 288.295,174.48 288.658,174.51 C288.625,174.16 288.692,173.76 289.036,173.42 C289.381,173.07 289.781,173 290.143,173.04 C290.108,172.68 290.176,172.28 290.521,171.93 C290.869,171.58 291.274,171.52 291.632,171.55 C291.598,171.19 291.664,170.79 292.012,170.44 L293.426,171.85 C293.609,171.67 293.634,171.43 293.616,171.35 L293.697,171.58 C293.835,171.94 294.159,172.79 293.516,173.43 C293.168,173.78 292.762,173.85 292.405,173.81 C292.439,174.17 292.373,174.57 292.027,174.92 C291.682,175.27 291.285,175.33 290.925,175.3 C290.958,175.65 290.892,176.06 290.547,176.4 C290.203,176.74 289.803,176.81 289.447,176.78 C289.48,177.13 289.412,177.54 289.067,177.88 C288.774,178.17 288.438,178.27 288.125,178.27" id="Fill-2539-2" fill="#B3B3B3" sketch:type="MSShapeGroup"></path>
    </g>
</svg>